g floor
v 15 -2.425319E-14 5
v 15 -0.5 5
v 1.666667 -0.5 5
v 1.666667 -2.425319E-14 5
v 6.123233E-16 -0.5 5
v 6.123233E-16 -3.637979E-14 5
v 15 0.15 5
v 1.670219 0.15 5
v 1.670219 0.15 -5
v 1.670219 0.15 5
v 1.666667 -2.425319E-14 5
v 1.666667 -2.425319E-14 -5
v 1.666667 -2.425319E-14 -5
v -6.123233E-16 -3.637979E-14 -5
v -6.123233E-16 -0.5 -5
v 1.666667 -0.5 -5
v 15 -0.5 -5
v 15 -2.425319E-14 -5
v 1.670219 0.15 -5
v 15 0.15 -5
v 15 -2.425319E-14 -5
v 15 -0.5 -5
v 15 -0.5 5
v 15 -2.425319E-14 5
v 15 0.15 -5
v 15 0.15 5
v 15 0.15 -5
v 15 0.15 5
v 1.670219 0.15 5
v 1.670219 0.15 -5
v 1.666667 -2.425319E-14 5
v 6.123233E-16 -3.637979E-14 5
v -6.123233E-16 -3.637979E-14 -5
v 1.666667 -2.425319E-14 -5
v -1.666667 -0.5 5
v -15 -0.5 5
v -15 -1.21266E-14 5
v -1.666667 -1.21266E-14 5
v 6.123233E-16 -0.5 5
v 6.123233E-16 -3.637979E-14 5
v -15 0.15 5
v -1.670219 0.15 5
v -1.666667 -1.21266E-14 5
v -1.670219 0.15 5
v -1.670219 0.15 -5
v -1.666667 -1.21266E-14 -5
v -6.123233E-16 -0.5 -5
v -6.123233E-16 -3.637979E-14 -5
v -1.666667 -1.21266E-14 -5
v -1.666667 -0.5 -5
v -15 -0.5 -5
v -15 -1.21266E-14 -5
v -1.670219 0.15 -5
v -15 0.15 -5
v -15 -0.5 5
v -15 -0.5 -5
v -15 -1.21266E-14 -5
v -15 -1.21266E-14 5
v -15 0.15 -5
v -15 0.15 5
v -1.670219 0.15 5
v -15 0.15 5
v -15 0.15 -5
v -1.670219 0.15 -5
v -6.123233E-16 -3.637979E-14 -5
v 6.123233E-16 -3.637979E-14 5
v -1.666667 -1.21266E-14 5
v -1.666667 -1.21266E-14 -5
vt 0.8439524 0.4492263
vt 0.8413654 0.4492263
vt 0.8413654 0.380237
vt 0.8439524 0.380237
vt 0.8413654 0.3716134
vt 0.8439524 0.3716134
vt 0.8447286 0.4492263
vt 0.8447286 0.3802555
vt 0.9042999 0.7963611
vt 0.9042999 0.8481029
vt 0.9035236 0.8481029
vt 0.9035236 0.7963611
vt 0.8421414 0.4754267
vt 0.8421414 0.4668031
vt 0.8447286 0.4668031
vt 0.8447286 0.4754267
vt 0.8447286 0.5444159
vt 0.8421414 0.5444159
vt 0.8413653 0.4754452
vt 0.8413653 0.5444159
vt 0.04068198 0.1521721
vt 0.04068198 0.1495849
vt 0.09242388 0.1495849
vt 0.09242388 0.1521721
vt 0.04068198 0.1529481
vt 0.09242388 0.1529481
vt 0.2341646 0.9912115
vt 0.008788462 0.9912115
vt 0.008788462 0.6907901
vt 0.2341646 0.6907901
vt 0.008782811 0.6732252
vt 0.008782811 0.6356528
vt 0.2342167 0.6356533
vt 0.2342167 0.6732256
vt 0.8413654 0.380237
vt 0.8413654 0.4492263
vt 0.8439524 0.4492263
vt 0.8439524 0.380237
vt 0.8413654 0.3716134
vt 0.8439524 0.3716134
vt 0.8447286 0.4492263
vt 0.8447286 0.3802555
vt 0.9035236 0.8481029
vt 0.9042999 0.8481029
vt 0.9042999 0.7963611
vt 0.9035236 0.7963611
vt 0.8447286 0.4668031
vt 0.8421414 0.4668031
vt 0.8421414 0.4754267
vt 0.8447286 0.4754267
vt 0.8447286 0.5444159
vt 0.8421414 0.5444159
vt 0.8413653 0.4754452
vt 0.8413653 0.5444159
vt 0.09242388 0.1495849
vt 0.04068198 0.1495849
vt 0.04068198 0.1521721
vt 0.09242388 0.1521721
vt 0.04068198 0.1529481
vt 0.09242388 0.1529481
vt 0.008788462 0.6907901
vt 0.008788462 0.9912115
vt 0.2341646 0.9912115
vt 0.2341646 0.6907901
vt 0.2342167 0.6356533
vt 0.008782811 0.6356528
vt 0.008782811 0.6732252
vt 0.2342167 0.6732256
vn 0 0 1
vn 0 0 1
vn 0 0 1
vn 0 0 1
vn 0 0 1
vn 0 0 1
vn 0 0 1
vn 0 0 1
vn -0.9997196 0.02367808 0
vn -0.9997196 0.02367808 0
vn -0.9997196 0.02367808 0
vn -0.9997196 0.02367808 0
vn 0 0 -1
vn 0 0 -1
vn 0 0 -1
vn 0 0 -1
vn 0 0 -1
vn 0 0 -1
vn 0 0 -1
vn 0 0 -1
vn 1 0 0
vn 1 0 0
vn 1 0 0
vn 1 0 0
vn 1 0 0
vn 1 0 0
vn 0 1 0
vn 0 1 0
vn 0 1 0
vn 0 1 0
vn 0 1 0
vn 0 1 0
vn 0 1 0
vn 0 1 0
vn 0 0 1
vn 0 0 1
vn 0 0 1
vn 0 0 1
vn 0 0 1
vn 0 0 1
vn 0 0 1
vn 0 0 1
vn 0.9997196 0.02367808 0
vn 0.9997196 0.02367808 0
vn 0.9997196 0.02367808 0
vn 0.9997196 0.02367808 0
vn 0 0 -1
vn 0 0 -1
vn 0 0 -1
vn 0 0 -1
vn 0 0 -1
vn 0 0 -1
vn 0 0 -1
vn 0 0 -1
vn -1 0 0
vn -1 0 0
vn -1 0 0
vn -1 0 0
vn -1 0 0
vn -1 0 0
vn 0 1 0
vn 0 1 0
vn 0 1 0
vn 0 1 0
vn 0 1 0
vn 0 1 0
vn 0 1 0
vn 0 1 0
g floor_0
f 3/3/3 2/2/2 1/1/1
f 4/4/4 3/3/3 1/1/1
f 5/5/5 3/3/3 4/4/4
f 6/6/6 5/5/5 4/4/4
f 4/4/4 1/1/1 7/7/7
f 8/8/8 4/4/4 7/7/7
f 11/11/11 10/10/10 9/9/9
f 12/12/12 11/11/11 9/9/9
f 15/15/15 14/14/14 13/13/13
f 16/16/16 15/15/15 13/13/13
f 17/17/17 16/16/16 13/13/13
f 18/18/18 17/17/17 13/13/13
f 18/18/18 13/13/13 19/19/19
f 20/20/20 18/18/18 19/19/19
f 23/23/23 22/22/22 21/21/21
f 24/24/24 23/23/23 21/21/21
f 24/24/24 21/21/21 25/25/25
f 26/26/26 24/24/24 25/25/25
f 29/29/29 28/28/28 27/27/27
f 30/30/30 29/29/29 27/27/27
f 33/33/33 32/32/32 31/31/31
f 34/34/34 33/33/33 31/31/31
f 37/37/37 36/36/36 35/35/35
f 38/38/38 37/37/37 35/35/35
f 38/38/38 35/35/35 39/39/39
f 40/40/40 38/38/38 39/39/39
f 41/41/41 37/37/37 38/38/38
f 42/42/42 41/41/41 38/38/38
f 45/45/45 44/44/44 43/43/43
f 46/46/46 45/45/45 43/43/43
f 49/49/49 48/48/48 47/47/47
f 50/50/50 49/49/49 47/47/47
f 49/49/49 50/50/50 51/51/51
f 52/52/52 49/49/49 51/51/51
f 53/53/53 49/49/49 52/52/52
f 54/54/54 53/53/53 52/52/52
f 57/57/57 56/56/56 55/55/55
f 58/58/58 57/57/57 55/55/55
f 59/59/59 57/57/57 58/58/58
f 60/60/60 59/59/59 58/58/58
f 63/63/63 62/62/62 61/61/61
f 64/64/64 63/63/63 61/61/61
f 67/67/67 66/66/66 65/65/65
f 68/68/68 67/67/67 65/65/65
