g floor
v -1.85 0.3519988 -0.7598076
v -1.85 -0.6350012 -0.7598076
v -1.7 -0.6350012 -0.5
v -1.7 0.3519988 -0.5
v -1.7 0.3519988 -0.5
v -1.7 -0.6350012 -0.5
v -1.85 -0.6350012 -0.2401924
v -1.85 0.3519988 -0.2401924
v -2 0.1499988 -5
v -2 -1.229815E-06 -5
v -1.666667 -1.229815E-06 -5
v -1.670219 0.1499988 -5
v -1.85 0.3519988 4.240192
v -1.85 -0.6350012 4.240192
v -1.7 -0.6350012 4.5
v -1.7 0.3519988 4.5
v -1.85 0.3519988 -0.2401924
v -1.85 -0.6350012 -0.2401924
v -2.15 -0.6350012 -0.2401924
v -2.15 0.3519988 -0.2401924
v -2.15 0.3519988 1.740192
v -2.15 -0.6350012 1.740192
v -1.85 -0.6350012 1.740192
v -1.85 0.3519988 1.740192
v -2.15 0.3519988 4.759808
v -2.15 -0.6350012 4.759808
v -2.3 -0.6350012 4.5
v -2.3 0.3519988 4.5
v -2.15 0.3519988 -0.2401924
v -2.15 -0.6350012 -0.2401924
v -2.3 -0.6350012 -0.5
v -2.3 0.3519988 -0.5
v -2 0.1499988 5
v -2 -1.229815E-06 5
v -2 -1.229815E-06 -5
v -2 0.1499988 -5
v -2 -0.5000012 -5
v -2 -0.5000012 5
v -1.85 0.3519988 1.740192
v -1.85 -0.6350012 1.740192
v -1.7 -0.6350012 2
v -1.7 0.3519988 2
v -1.7 0.3519988 2
v -1.7 -0.6350012 2
v -1.85 -0.6350012 2.259808
v -1.85 0.3519988 2.259808
v -1.85 0.3519988 2.259808
v -1.85 -0.6350012 2.259808
v -2.15 -0.6350012 2.259808
v -2.15 0.3519988 2.259808
v -1.7 0.3519988 4.5
v -1.7 -0.6350012 4.5
v -1.85 -0.6350012 4.759808
v -1.85 0.3519988 4.759808
v -2.15 0.3519988 2.259808
v -2.15 -0.6350012 2.259808
v -2.3 -0.6350012 2
v -2.3 0.3519988 2
v -1.670219 0.1499988 5
v -1.666667 -1.229815E-06 5
v -2 -1.229815E-06 5
v -2 0.1499988 5
v -1.85 0.3519988 4.759808
v -1.85 -0.6350012 4.759808
v -2.15 -0.6350012 4.759808
v -2.15 0.3519988 4.759808
v -1.666667 -1.229815E-06 -5
v -6.123233E-16 -1.229815E-06 -5
v 6.123233E-16 -1.229815E-06 5
v -1.666667 -1.229815E-06 5
v -2.3 0.3519988 -3
v -2.3 -0.6350012 -3
v -2.15 -0.6350012 -3.259808
v -2.15 0.3519988 -3.259808
v -2.3 0.3519988 4.5
v -2.3 -0.6350012 4.5
v -2.15 -0.6350012 4.240192
v -2.15 0.3519988 4.240192
v -1.670219 0.1499988 5
v -1.670219 0.1499988 -5
v -1.666667 -1.229815E-06 -5
v -1.666667 -1.229815E-06 5
v -2.15 0.3519988 -3.259808
v -2.15 -0.6350012 -3.259808
v -1.85 -0.6350012 -3.259808
v -1.85 0.3519988 -3.259808
v -2 -1.229815E-06 -5
v -1.666667 -1.229815E-06 5
v -1.666667 -1.229815E-06 -5
v 6.123233E-16 -1.229815E-06 5
v 6.123233E-16 -0.5000012 5
v -1.666667 -0.5000012 5
v -1.666667 -1.229815E-06 5
v -1.666667 -1.229815E-06 5
v -1.666667 -0.5000012 5
v -2 -0.5000012 5
v -2 -1.229815E-06 5
v -1.670219 0.1499988 -5
v -1.670219 0.1499988 5
v -2 0.1499988 5
v -2 0.1499988 -5
v -1.85 0.3519988 -3.259808
v -1.85 -0.6350012 -3.259808
v -1.7 -0.6350012 -3
v -1.7 0.3519988 -3
v -1.7 0.3519988 -3
v -1.7 -0.6350012 -3
v -1.85 -0.6350012 -2.740192
v -1.85 0.3519988 -2.740192
v -1.85 0.3519988 -2.740192
v -1.85 -0.6350012 -2.740192
v -2.15 -0.6350012 -2.740192
v -2.15 0.3519988 -2.740192
v -2.15 0.3519988 -2.740192
v -2.15 -0.6350012 -2.740192
v -2.3 -0.6350012 -3
v -2.3 0.3519988 -3
v -2 -1.229815E-06 -5
v -2 -0.5000012 -5
v -1.666667 -0.5000012 -5
v -1.666667 -1.229815E-06 -5
v -6.123233E-16 -0.5000012 -5
v -6.123233E-16 -1.229815E-06 -5
v -2.3 0.3519988 -0.5
v -2.3 -0.6350012 -0.5
v -2.15 -0.6350012 -0.7598076
v -2.15 0.3519988 -0.7598076
v -2.15 0.3519988 4.240192
v -2.15 -0.6350012 4.240192
v -1.85 -0.6350012 4.240192
v -1.85 0.3519988 4.240192
v -2.15 0.3519988 -0.7598076
v -2.15 -0.6350012 -0.7598076
v -1.85 -0.6350012 -0.7598076
v -1.85 0.3519988 -0.7598076
v -2.3 0.3519988 2
v -2.3 -0.6350012 2
v -2.15 -0.6350012 1.740192
v -2.15 0.3519988 1.740192
v 1.7 -0.6350012 -0.5
v 1.85 -0.6350012 -0.7598076
v 1.85 0.3519988 -0.7598076
v 1.7 0.3519988 -0.5
v 1.85 -0.6350012 -0.2401924
v 1.7 -0.6350012 -0.5
v 1.7 0.3519988 -0.5
v 1.85 0.3519988 -0.2401924
v 1.666667 -1.229815E-06 -5
v 2 -1.229815E-06 -5
v 2 0.1499988 -5
v 1.670219 0.1499988 -5
v 1.7 -0.6350012 4.5
v 1.85 -0.6350012 4.240192
v 1.85 0.3519988 4.240192
v 1.7 0.3519988 4.5
v 2.15 -0.6350012 -0.2401924
v 1.85 -0.6350012 -0.2401924
v 1.85 0.3519988 -0.2401924
v 2.15 0.3519988 -0.2401924
v 1.85 -0.6350012 1.740192
v 2.15 -0.6350012 1.740192
v 2.15 0.3519988 1.740192
v 1.85 0.3519988 1.740192
v 2.3 -0.6350012 4.5
v 2.15 -0.6350012 4.759808
v 2.15 0.3519988 4.759808
v 2.3 0.3519988 4.5
v 2.3 -0.6350012 -0.5
v 2.15 -0.6350012 -0.2401924
v 2.15 0.3519988 -0.2401924
v 2.3 0.3519988 -0.5
v 2 -1.229815E-06 -5
v 2 -1.229815E-06 5
v 2 0.1499988 5
v 2 0.1499988 -5
v 2 -0.5000012 -5
v 2 -0.5000012 5
v 1.7 -0.6350012 2
v 1.85 -0.6350012 1.740192
v 1.85 0.3519988 1.740192
v 1.7 0.3519988 2
v 1.85 -0.6350012 2.259808
v 1.7 -0.6350012 2
v 1.7 0.3519988 2
v 1.85 0.3519988 2.259808
v 2.15 -0.6350012 2.259808
v 1.85 -0.6350012 2.259808
v 1.85 0.3519988 2.259808
v 2.15 0.3519988 2.259808
v 1.85 -0.6350012 4.759808
v 1.7 -0.6350012 4.5
v 1.7 0.3519988 4.5
v 1.85 0.3519988 4.759808
v 2.3 -0.6350012 2
v 2.15 -0.6350012 2.259808
v 2.15 0.3519988 2.259808
v 2.3 0.3519988 2
v 2 -1.229815E-06 5
v 1.666667 -1.229815E-06 5
v 1.670219 0.1499988 5
v 2 0.1499988 5
v 2.15 -0.6350012 4.759808
v 1.85 -0.6350012 4.759808
v 1.85 0.3519988 4.759808
v 2.15 0.3519988 4.759808
v 6.123233E-16 -1.229815E-06 5
v -6.123233E-16 -1.229815E-06 -5
v 1.666667 -1.229815E-06 -5
v 1.666667 -1.229815E-06 5
v 2.15 -0.6350012 -3.259808
v 2.3 -0.6350012 -3
v 2.3 0.3519988 -3
v 2.15 0.3519988 -3.259808
v 2.15 -0.6350012 4.240192
v 2.3 -0.6350012 4.5
v 2.3 0.3519988 4.5
v 2.15 0.3519988 4.240192
v 1.666667 -1.229815E-06 -5
v 1.670219 0.1499988 -5
v 1.670219 0.1499988 5
v 1.666667 -1.229815E-06 5
v 1.85 -0.6350012 -3.259808
v 2.15 -0.6350012 -3.259808
v 2.15 0.3519988 -3.259808
v 1.85 0.3519988 -3.259808
v 1.666667 -1.229815E-06 -5
v 1.666667 -1.229815E-06 5
v 2 -1.229815E-06 -5
v 1.666667 -0.5000012 5
v 6.123233E-16 -0.5000012 5
v 6.123233E-16 -1.229815E-06 5
v 1.666667 -1.229815E-06 5
v 2 -0.5000012 5
v 1.666667 -0.5000012 5
v 1.666667 -1.229815E-06 5
v 2 -1.229815E-06 5
v 2 0.1499988 5
v 1.670219 0.1499988 5
v 1.670219 0.1499988 -5
v 2 0.1499988 -5
v 1.7 -0.6350012 -3
v 1.85 -0.6350012 -3.259808
v 1.85 0.3519988 -3.259808
v 1.7 0.3519988 -3
v 1.85 -0.6350012 -2.740192
v 1.7 -0.6350012 -3
v 1.7 0.3519988 -3
v 1.85 0.3519988 -2.740192
v 2.15 -0.6350012 -2.740192
v 1.85 -0.6350012 -2.740192
v 1.85 0.3519988 -2.740192
v 2.15 0.3519988 -2.740192
v 2.3 -0.6350012 -3
v 2.15 -0.6350012 -2.740192
v 2.15 0.3519988 -2.740192
v 2.3 0.3519988 -3
v 1.666667 -0.5000012 -5
v 2 -0.5000012 -5
v 2 -1.229815E-06 -5
v 1.666667 -1.229815E-06 -5
v -6.123233E-16 -0.5000012 -5
v -6.123233E-16 -1.229815E-06 -5
v 2.15 -0.6350012 -0.7598076
v 2.3 -0.6350012 -0.5
v 2.3 0.3519988 -0.5
v 2.15 0.3519988 -0.7598076
v 1.85 -0.6350012 4.240192
v 2.15 -0.6350012 4.240192
v 2.15 0.3519988 4.240192
v 1.85 0.3519988 4.240192
v 1.85 -0.6350012 -0.7598076
v 2.15 -0.6350012 -0.7598076
v 2.15 0.3519988 -0.7598076
v 1.85 0.3519988 -0.7598076
v 2.15 -0.6350012 1.740192
v 2.3 -0.6350012 2
v 2.3 0.3519988 2
v 2.15 0.3519988 1.740192
vt 0.9192826 0.6107069
vt 0.9192826 0.6054599
vt 0.9176878 0.6054599
vt 0.9176878 0.6107069
vt 0.9192826 0.7025573
vt 0.9192826 0.6973103
vt 0.9176878 0.6973103
vt 0.9176878 0.7025573
vt 0.7263801 0.04025316
vt 0.7255827 0.04025316
vt 0.7255827 0.04202521
vt 0.7263801 0.04200625
vt 0.9192826 0.7209272
vt 0.9192826 0.7156804
vt 0.9176877 0.7156804
vt 0.9176877 0.7209272
vt 0.2296925 0.07666361
vt 0.2349395 0.07666361
vt 0.2349395 0.07506883
vt 0.2296925 0.07506883
vt 0.3149342 0.07809269
vt 0.3096873 0.07809269
vt 0.3096873 0.07968748
vt 0.3149342 0.07968748
vt 0.9192826 0.5739668
vt 0.9192826 0.5687199
vt 0.9176878 0.5687199
vt 0.9176878 0.5739668
vt 0.1979176 0.09167385
vt 0.1979176 0.08642673
vt 0.1963227 0.08642673
vt 0.1963227 0.09167385
vt 0.4077329 0.4855113
vt 0.4077329 0.4847139
vt 0.3545719 0.4847139
vt 0.3545719 0.4855113
vt 0.3545719 0.4820559
vt 0.4077329 0.4820559
vt 0.9192826 0.7392972
vt 0.9192826 0.7340503
vt 0.9176877 0.7340503
vt 0.9176877 0.7392972
vt 0.9192826 0.6658171
vt 0.9192826 0.6605701
vt 0.9176878 0.6605701
vt 0.9176878 0.6658171
vt 0.6326979 0.08111703
vt 0.6379449 0.08111703
vt 0.6379449 0.07952225
vt 0.6326979 0.07952225
vt 0.9192826 0.647447
vt 0.9192826 0.6422001
vt 0.9176878 0.6422001
vt 0.9176878 0.647447
vt 0.9192826 0.7944074
vt 0.9192826 0.7891604
vt 0.9176877 0.7891604
vt 0.9176877 0.7944074
vt 0.7116622 0.04200625
vt 0.7124596 0.04202521
vt 0.7124596 0.04025316
vt 0.7116622 0.04025316
vt 0.6143278 0.08111715
vt 0.6195748 0.08111715
vt 0.6195748 0.07952225
vt 0.6143278 0.07952225
vt 0.3545719 0.8805636
vt 0.396444 0.8805636
vt 0.396444 0.6293312
vt 0.3545719 0.6293312
vt 0.9192826 0.7760373
vt 0.9192826 0.7707902
vt 0.9176877 0.7707902
vt 0.9176877 0.7760373
vt 0.9192826 0.5555968
vt 0.9192826 0.5503498
vt 0.9176878 0.5503498
vt 0.9176878 0.5555968
vt 0.8849448 0.516548
vt 0.8849448 0.5697089
vt 0.8857424 0.5697089
vt 0.8857424 0.516548
vt 0.7602638 0.07979202
vt 0.7550168 0.07979202
vt 0.7550168 0.0813868
vt 0.7602638 0.0813868
vt 0.6701009 0.6316321
vt 0.61694 0.6334042
vt 0.6701009 0.6334042
vt 0.2455231 0.1293761
vt 0.2481812 0.1293761
vt 0.2481812 0.1205158
vt 0.2455231 0.1205158
vt 0.743068 0.06509173
vt 0.7457261 0.06509173
vt 0.7457261 0.06331968
vt 0.743068 0.06331968
vt 0.706623 0.9019963
vt 0.706623 0.6507639
vt 0.6941953 0.6507639
vt 0.6941953 0.9019963
vt 0.9192826 0.7576672
vt 0.9192826 0.7524202
vt 0.9176877 0.7524202
vt 0.9176877 0.7576672
vt 0.9192826 0.629077
vt 0.9192826 0.62383
vt 0.9176878 0.62383
vt 0.9176878 0.629077
vt 0.5959578 0.08111715
vt 0.6012048 0.08111715
vt 0.6012048 0.07952225
vt 0.5959578 0.07952225
vt 0.9192826 0.5923369
vt 0.9192826 0.5870899
vt 0.9176878 0.5870899
vt 0.9176878 0.5923369
vt 0.7124596 0.1402295
vt 0.7098016 0.1402295
vt 0.7098016 0.1420014
vt 0.7124596 0.1420014
vt 0.7098016 0.1508617
vt 0.7124596 0.1508617
vt 0.9192826 0.6841872
vt 0.9192826 0.6789402
vt 0.9176878 0.6789402
vt 0.9176878 0.6841872
vt 0.1827985 0.07559657
vt 0.1775515 0.07559657
vt 0.1775515 0.07719147
vt 0.1827985 0.07719147
vt 0.2165694 0.07506883
vt 0.2113224 0.07506883
vt 0.2113224 0.07666361
vt 0.2165694 0.07666361
vt 0.9192826 0.5372268
vt 0.9192826 0.5319798
vt 0.9176878 0.5319798
vt 0.9176878 0.5372268
vt 0.9176878 0.6054599
vt 0.9192826 0.6054599
vt 0.9192826 0.6107069
vt 0.9176878 0.6107069
vt 0.9176878 0.6973103
vt 0.9192826 0.6973103
vt 0.9192826 0.7025573
vt 0.9176878 0.7025573
vt 0.7255827 0.04202521
vt 0.7255827 0.04025316
vt 0.7263801 0.04025316
vt 0.7263801 0.04200625
vt 0.9176877 0.7156804
vt 0.9192826 0.7156804
vt 0.9192826 0.7209272
vt 0.9176877 0.7209272
vt 0.2349395 0.07506883
vt 0.2349395 0.07666361
vt 0.2296925 0.07666361
vt 0.2296925 0.07506883
vt 0.3096873 0.07968748
vt 0.3096873 0.07809269
vt 0.3149342 0.07809269
vt 0.3149342 0.07968748
vt 0.9176878 0.5687199
vt 0.9192826 0.5687199
vt 0.9192826 0.5739668
vt 0.9176878 0.5739668
vt 0.1963227 0.08642673
vt 0.1979176 0.08642673
vt 0.1979176 0.09167385
vt 0.1963227 0.09167385
vt 0.3545719 0.4847139
vt 0.4077329 0.4847139
vt 0.4077329 0.4855113
vt 0.3545719 0.4855113
vt 0.3545719 0.4820559
vt 0.4077329 0.4820559
vt 0.9176877 0.7340503
vt 0.9192826 0.7340503
vt 0.9192826 0.7392972
vt 0.9176877 0.7392972
vt 0.9176878 0.6605701
vt 0.9192826 0.6605701
vt 0.9192826 0.6658171
vt 0.9176878 0.6658171
vt 0.6379449 0.07952225
vt 0.6379449 0.08111703
vt 0.6326979 0.08111703
vt 0.6326979 0.07952225
vt 0.9176878 0.6422001
vt 0.9192826 0.6422001
vt 0.9192826 0.647447
vt 0.9176878 0.647447
vt 0.9176877 0.7891604
vt 0.9192826 0.7891604
vt 0.9192826 0.7944074
vt 0.9176877 0.7944074
vt 0.7124596 0.04025316
vt 0.7124596 0.04202521
vt 0.7116622 0.04200625
vt 0.7116622 0.04025316
vt 0.6195748 0.07952225
vt 0.6195748 0.08111715
vt 0.6143278 0.08111715
vt 0.6143278 0.07952225
vt 0.396444 0.6293312
vt 0.396444 0.8805636
vt 0.3545719 0.8805636
vt 0.3545719 0.6293312
vt 0.9176877 0.7707902
vt 0.9192826 0.7707902
vt 0.9192826 0.7760373
vt 0.9176877 0.7760373
vt 0.9176878 0.5503498
vt 0.9192826 0.5503498
vt 0.9192826 0.5555968
vt 0.9176878 0.5555968
vt 0.8857424 0.5697089
vt 0.8849448 0.5697089
vt 0.8849448 0.516548
vt 0.8857424 0.516548
vt 0.7550168 0.0813868
vt 0.7550168 0.07979202
vt 0.7602638 0.07979202
vt 0.7602638 0.0813868
vt 0.6701009 0.6334042
vt 0.61694 0.6334042
vt 0.6701009 0.6316321
vt 0.2481812 0.1205158
vt 0.2481812 0.1293761
vt 0.2455231 0.1293761
vt 0.2455231 0.1205158
vt 0.7457261 0.06331968
vt 0.7457261 0.06509173
vt 0.743068 0.06509173
vt 0.743068 0.06331968
vt 0.6941953 0.6507639
vt 0.706623 0.6507639
vt 0.706623 0.9019963
vt 0.6941953 0.9019963
vt 0.9176877 0.7524202
vt 0.9192826 0.7524202
vt 0.9192826 0.7576672
vt 0.9176877 0.7576672
vt 0.9176878 0.62383
vt 0.9192826 0.62383
vt 0.9192826 0.629077
vt 0.9176878 0.629077
vt 0.6012048 0.07952225
vt 0.6012048 0.08111715
vt 0.5959578 0.08111715
vt 0.5959578 0.07952225
vt 0.9176878 0.5870899
vt 0.9192826 0.5870899
vt 0.9192826 0.5923369
vt 0.9176878 0.5923369
vt 0.7098016 0.1420014
vt 0.7098016 0.1402295
vt 0.7124596 0.1402295
vt 0.7124596 0.1420014
vt 0.7098016 0.1508617
vt 0.7124596 0.1508617
vt 0.9176878 0.6789402
vt 0.9192826 0.6789402
vt 0.9192826 0.6841872
vt 0.9176878 0.6841872
vt 0.1775515 0.07719147
vt 0.1775515 0.07559657
vt 0.1827985 0.07559657
vt 0.1827985 0.07719147
vt 0.2113224 0.07666361
vt 0.2113224 0.07506883
vt 0.2165694 0.07506883
vt 0.2165694 0.07666361
vt 0.9176878 0.5319798
vt 0.9192826 0.5319798
vt 0.9192826 0.5372268
vt 0.9176878 0.5372268
vn 0.8660254 0 -0.5
vn 0.8660254 0 -0.5
vn 0.8660254 0 -0.5
vn 0.8660254 0 -0.5
vn 0.8660254 0 0.5
vn 0.8660254 0 0.5
vn 0.8660254 0 0.5
vn 0.8660254 0 0.5
vn 0 0 -1
vn 0 0 -1
vn 0 0 -1
vn 0 0 -1
vn 0.8660254 0 -0.5
vn 0.8660254 0 -0.5
vn 0.8660254 0 -0.5
vn 0.8660254 0 -0.5
vn 0 0 1
vn 0 0 1
vn 0 0 1
vn 0 0 1
vn 0 0 -1
vn 0 0 -1
vn 0 0 -1
vn 0 0 -1
vn -0.8660254 0 0.5
vn -0.8660254 0 0.5
vn -0.8660254 0 0.5
vn -0.8660254 0 0.5
vn -0.8660254 0 0.5
vn -0.8660254 0 0.5
vn -0.8660254 0 0.5
vn -0.8660254 0 0.5
vn -1 0 0
vn -1 0 0
vn -1 0 0
vn -1 0 0
vn -1 0 0
vn -1 0 0
vn 0.8660254 0 -0.5
vn 0.8660254 0 -0.5
vn 0.8660254 0 -0.5
vn 0.8660254 0 -0.5
vn 0.8660254 0 0.5
vn 0.8660254 0 0.5
vn 0.8660254 0 0.5
vn 0.8660254 0 0.5
vn 0 0 1
vn 0 0 1
vn 0 0 1
vn 0 0 1
vn 0.8660254 0 0.5
vn 0.8660254 0 0.5
vn 0.8660254 0 0.5
vn 0.8660254 0 0.5
vn -0.8660254 0 0.5
vn -0.8660254 0 0.5
vn -0.8660254 0 0.5
vn -0.8660254 0 0.5
vn 0 0 1
vn 0 0 1
vn 0 0 1
vn 0 0 1
vn 0 0 1
vn 0 0 1
vn 0 0 1
vn 0 0 1
vn 0 1 0
vn 0 1 0
vn 0 1 0
vn 0 1 0
vn -0.8660254 0 -0.5
vn -0.8660254 0 -0.5
vn -0.8660254 0 -0.5
vn -0.8660254 0 -0.5
vn -0.8660254 0 -0.5
vn -0.8660254 0 -0.5
vn -0.8660254 0 -0.5
vn -0.8660254 0 -0.5
vn 0.9997196 0.02367808 0
vn 0.9997196 0.02367808 0
vn 0.9997196 0.02367808 0
vn 0.9997196 0.02367808 0
vn 0 0 -1
vn 0 0 -1
vn 0 0 -1
vn 0 0 -1
vn 0 -1 0
vn 0 -1 0
vn 0 -1 0
vn 0 0 1
vn 0 0 1
vn 0 0 1
vn 0 0 1
vn 0 0 1
vn 0 0 1
vn 0 0 1
vn 0 0 1
vn 0 1 0
vn 0 1 0
vn 0 1 0
vn 0 1 0
vn 0.8660254 0 -0.5
vn 0.8660254 0 -0.5
vn 0.8660254 0 -0.5
vn 0.8660254 0 -0.5
vn 0.8660254 0 0.5
vn 0.8660254 0 0.5
vn 0.8660254 0 0.5
vn 0.8660254 0 0.5
vn 0 0 1
vn 0 0 1
vn 0 0 1
vn 0 0 1
vn -0.8660254 0 0.5
vn -0.8660254 0 0.5
vn -0.8660254 0 0.5
vn -0.8660254 0 0.5
vn 0 0 -1
vn 0 0 -1
vn 0 0 -1
vn 0 0 -1
vn 0 0 -1
vn 0 0 -1
vn -0.8660254 0 -0.5
vn -0.8660254 0 -0.5
vn -0.8660254 0 -0.5
vn -0.8660254 0 -0.5
vn 0 0 -1
vn 0 0 -1
vn 0 0 -1
vn 0 0 -1
vn 0 0 -1
vn 0 0 -1
vn 0 0 -1
vn 0 0 -1
vn -0.8660254 0 -0.5
vn -0.8660254 0 -0.5
vn -0.8660254 0 -0.5
vn -0.8660254 0 -0.5
vn -0.8660254 0 -0.5
vn -0.8660254 0 -0.5
vn -0.8660254 0 -0.5
vn -0.8660254 0 -0.5
vn -0.8660254 0 0.5
vn -0.8660254 0 0.5
vn -0.8660254 0 0.5
vn -0.8660254 0 0.5
vn 0 0 -1
vn 0 0 -1
vn 0 0 -1
vn 0 0 -1
vn -0.8660254 0 -0.5
vn -0.8660254 0 -0.5
vn -0.8660254 0 -0.5
vn -0.8660254 0 -0.5
vn 0 0 1
vn 0 0 1
vn 0 0 1
vn 0 0 1
vn 0 0 -1
vn 0 0 -1
vn 0 0 -1
vn 0 0 -1
vn 0.8660254 0 0.5
vn 0.8660254 0 0.5
vn 0.8660254 0 0.5
vn 0.8660254 0 0.5
vn 0.8660254 0 0.5
vn 0.8660254 0 0.5
vn 0.8660254 0 0.5
vn 0.8660254 0 0.5
vn 1 0 0
vn 1 0 0
vn 1 0 0
vn 1 0 0
vn 1 0 0
vn 1 0 0
vn -0.8660254 0 -0.5
vn -0.8660254 0 -0.5
vn -0.8660254 0 -0.5
vn -0.8660254 0 -0.5
vn -0.8660254 0 0.5
vn -0.8660254 0 0.5
vn -0.8660254 0 0.5
vn -0.8660254 0 0.5
vn 0 0 1
vn 0 0 1
vn 0 0 1
vn 0 0 1
vn -0.8660254 0 0.5
vn -0.8660254 0 0.5
vn -0.8660254 0 0.5
vn -0.8660254 0 0.5
vn 0.8660254 0 0.5
vn 0.8660254 0 0.5
vn 0.8660254 0 0.5
vn 0.8660254 0 0.5
vn 0 0 1
vn 0 0 1
vn 0 0 1
vn 0 0 1
vn 0 0 1
vn 0 0 1
vn 0 0 1
vn 0 0 1
vn 0 1 0
vn 0 1 0
vn 0 1 0
vn 0 1 0
vn 0.8660254 0 -0.5
vn 0.8660254 0 -0.5
vn 0.8660254 0 -0.5
vn 0.8660254 0 -0.5
vn 0.8660254 0 -0.5
vn 0.8660254 0 -0.5
vn 0.8660254 0 -0.5
vn 0.8660254 0 -0.5
vn -0.9997196 0.02367808 0
vn -0.9997196 0.02367808 0
vn -0.9997196 0.02367808 0
vn -0.9997196 0.02367808 0
vn 0 0 -1
vn 0 0 -1
vn 0 0 -1
vn 0 0 -1
vn 0 -1 0
vn 0 -1 0
vn 0 -1 0
vn 0 0 1
vn 0 0 1
vn 0 0 1
vn 0 0 1
vn 0 0 1
vn 0 0 1
vn 0 0 1
vn 0 0 1
vn 0 1 0
vn 0 1 0
vn 0 1 0
vn 0 1 0
vn -0.8660254 0 -0.5
vn -0.8660254 0 -0.5
vn -0.8660254 0 -0.5
vn -0.8660254 0 -0.5
vn -0.8660254 0 0.5
vn -0.8660254 0 0.5
vn -0.8660254 0 0.5
vn -0.8660254 0 0.5
vn 0 0 1
vn 0 0 1
vn 0 0 1
vn 0 0 1
vn 0.8660254 0 0.5
vn 0.8660254 0 0.5
vn 0.8660254 0 0.5
vn 0.8660254 0 0.5
vn 0 0 -1
vn 0 0 -1
vn 0 0 -1
vn 0 0 -1
vn 0 0 -1
vn 0 0 -1
vn 0.8660254 0 -0.5
vn 0.8660254 0 -0.5
vn 0.8660254 0 -0.5
vn 0.8660254 0 -0.5
vn 0 0 -1
vn 0 0 -1
vn 0 0 -1
vn 0 0 -1
vn 0 0 -1
vn 0 0 -1
vn 0 0 -1
vn 0 0 -1
vn 0.8660254 0 -0.5
vn 0.8660254 0 -0.5
vn 0.8660254 0 -0.5
vn 0.8660254 0 -0.5
g floor_0
f 3/3/3 2/2/2 1/1/1
f 4/4/4 3/3/3 1/1/1
f 7/7/7 6/6/6 5/5/5
f 8/8/8 7/7/7 5/5/5
f 11/11/11 10/10/10 9/9/9
f 12/12/12 11/11/11 9/9/9
f 15/15/15 14/14/14 13/13/13
f 16/16/16 15/15/15 13/13/13
f 19/19/19 18/18/18 17/17/17
f 20/20/20 19/19/19 17/17/17
f 23/23/23 22/22/22 21/21/21
f 24/24/24 23/23/23 21/21/21
f 27/27/27 26/26/26 25/25/25
f 28/28/28 27/27/27 25/25/25
f 31/31/31 30/30/30 29/29/29
f 32/32/32 31/31/31 29/29/29
f 35/35/35 34/34/34 33/33/33
f 36/36/36 35/35/35 33/33/33
f 35/35/35 37/37/37 34/34/34
f 37/37/37 38/38/38 34/34/34
f 41/41/41 40/40/40 39/39/39
f 42/42/42 41/41/41 39/39/39
f 45/45/45 44/44/44 43/43/43
f 46/46/46 45/45/45 43/43/43
f 49/49/49 48/48/48 47/47/47
f 50/50/50 49/49/49 47/47/47
f 53/53/53 52/52/52 51/51/51
f 54/54/54 53/53/53 51/51/51
f 57/57/57 56/56/56 55/55/55
f 58/58/58 57/57/57 55/55/55
f 61/61/61 60/60/60 59/59/59
f 62/62/62 61/61/61 59/59/59
f 65/65/65 64/64/64 63/63/63
f 66/66/66 65/65/65 63/63/63
f 69/69/69 68/68/68 67/67/67
f 70/70/70 69/69/69 67/67/67
f 73/73/73 72/72/72 71/71/71
f 74/74/74 73/73/73 71/71/71
f 77/77/77 76/76/76 75/75/75
f 78/78/78 77/77/77 75/75/75
f 81/81/81 80/80/80 79/79/79
f 82/82/82 81/81/81 79/79/79
f 85/85/85 84/84/84 83/83/83
f 86/86/86 85/85/85 83/83/83
f 89/89/89 88/88/88 87/87/87
f 92/92/92 91/91/91 90/90/90
f 93/93/93 92/92/92 90/90/90
f 96/96/96 95/95/95 94/94/94
f 97/97/97 96/96/96 94/94/94
f 100/100/100 99/99/99 98/98/98
f 101/101/101 100/100/100 98/98/98
f 104/104/104 103/103/103 102/102/102
f 105/105/105 104/104/104 102/102/102
f 108/108/108 107/107/107 106/106/106
f 109/109/109 108/108/108 106/106/106
f 112/112/112 111/111/111 110/110/110
f 113/113/113 112/112/112 110/110/110
f 116/116/116 115/115/115 114/114/114
f 117/117/117 116/116/116 114/114/114
f 120/120/120 119/119/119 118/118/118
f 121/121/121 120/120/120 118/118/118
f 122/122/122 120/120/120 121/121/121
f 123/123/123 122/122/122 121/121/121
f 126/126/126 125/125/125 124/124/124
f 127/127/127 126/126/126 124/124/124
f 130/130/130 129/129/129 128/128/128
f 131/131/131 130/130/130 128/128/128
f 134/134/134 133/133/133 132/132/132
f 135/135/135 134/134/134 132/132/132
f 138/138/138 137/137/137 136/136/136
f 139/139/139 138/138/138 136/136/136
f 142/142/142 141/141/141 140/140/140
f 143/143/143 142/142/142 140/140/140
f 146/146/146 145/145/145 144/144/144
f 147/147/147 146/146/146 144/144/144
f 150/150/150 149/149/149 148/148/148
f 151/151/151 150/150/150 148/148/148
f 154/154/154 153/153/153 152/152/152
f 155/155/155 154/154/154 152/152/152
f 158/158/158 157/157/157 156/156/156
f 159/159/159 158/158/158 156/156/156
f 162/162/162 161/161/161 160/160/160
f 163/163/163 162/162/162 160/160/160
f 166/166/166 165/165/165 164/164/164
f 167/167/167 166/166/166 164/164/164
f 170/170/170 169/169/169 168/168/168
f 171/171/171 170/170/170 168/168/168
f 174/174/174 173/173/173 172/172/172
f 175/175/175 174/174/174 172/172/172
f 172/172/172 173/173/173 176/176/176
f 173/173/173 177/177/177 176/176/176
f 180/180/180 179/179/179 178/178/178
f 181/181/181 180/180/180 178/178/178
f 184/184/184 183/183/183 182/182/182
f 185/185/185 184/184/184 182/182/182
f 188/188/188 187/187/187 186/186/186
f 189/189/189 188/188/188 186/186/186
f 192/192/192 191/191/191 190/190/190
f 193/193/193 192/192/192 190/190/190
f 196/196/196 195/195/195 194/194/194
f 197/197/197 196/196/196 194/194/194
f 200/200/200 199/199/199 198/198/198
f 201/201/201 200/200/200 198/198/198
f 204/204/204 203/203/203 202/202/202
f 205/205/205 204/204/204 202/202/202
f 208/208/208 207/207/207 206/206/206
f 209/209/209 208/208/208 206/206/206
f 212/212/212 211/211/211 210/210/210
f 213/213/213 212/212/212 210/210/210
f 216/216/216 215/215/215 214/214/214
f 217/217/217 216/216/216 214/214/214
f 220/220/220 219/219/219 218/218/218
f 221/221/221 220/220/220 218/218/218
f 224/224/224 223/223/223 222/222/222
f 225/225/225 224/224/224 222/222/222
f 228/228/228 227/227/227 226/226/226
f 231/231/231 230/230/230 229/229/229
f 232/232/232 231/231/231 229/229/229
f 235/235/235 234/234/234 233/233/233
f 236/236/236 235/235/235 233/233/233
f 239/239/239 238/238/238 237/237/237
f 240/240/240 239/239/239 237/237/237
f 243/243/243 242/242/242 241/241/241
f 244/244/244 243/243/243 241/241/241
f 247/247/247 246/246/246 245/245/245
f 248/248/248 247/247/247 245/245/245
f 251/251/251 250/250/250 249/249/249
f 252/252/252 251/251/251 249/249/249
f 255/255/255 254/254/254 253/253/253
f 256/256/256 255/255/255 253/253/253
f 259/259/259 258/258/258 257/257/257
f 260/260/260 259/259/259 257/257/257
f 260/260/260 257/257/257 261/261/261
f 262/262/262 260/260/260 261/261/261
f 265/265/265 264/264/264 263/263/263
f 266/266/266 265/265/265 263/263/263
f 269/269/269 268/268/268 267/267/267
f 270/270/270 269/269/269 267/267/267
f 273/273/273 272/272/272 271/271/271
f 274/274/274 273/273/273 271/271/271
f 277/277/277 276/276/276 275/275/275
f 278/278/278 277/277/277 275/275/275
