g floor
v -1.666667 -0.5 5
v -15 -0.5 5
v -15 -6.669628E-14 5
v -1.666667 -6.669628E-14 5
v 6.123233E-16 -0.5 5
v 6.123233E-16 -9.701277E-14 5
v -15 0.15 5
v -1.670219 0.15 5
v -1.666667 -6.669628E-14 5
v -1.670219 0.15 5
v -1.670219 0.15 -5
v -1.666667 -6.669628E-14 -5
v -6.123233E-16 -0.5 -5
v -6.123233E-16 -9.701277E-14 -5
v -1.666667 -6.669628E-14 -5
v -1.666667 -0.5 -5
v -15 -0.5 -5
v -15 -6.669628E-14 -5
v -1.670219 0.15 -5
v -15 0.15 -5
v -15 -0.5 5
v -15 -0.5 -5
v -15 -6.669628E-14 -5
v -15 -6.669628E-14 5
v -15 0.15 -5
v -15 0.15 5
v -1.670219 0.15 5
v -15 0.15 5
v -15 0.15 -5
v -1.670219 0.15 -5
v -6.123233E-16 -9.701277E-14 -5
v 6.123233E-16 -9.701277E-14 5
v -1.666667 -6.669628E-14 5
v -1.666667 -6.669628E-14 -5
v 15 -8.488617E-14 5
v 15 -0.5 5
v 1.666667 -0.5 5
v 1.666667 -8.488617E-14 5
v 6.123233E-16 -0.5 5
v 6.123233E-16 -9.701277E-14 5
v 15 0.15 5
v 1.670219 0.15 5
v 1.670219 0.15 -5
v 1.670219 0.15 5
v 1.666667 -8.488617E-14 5
v 1.666667 -8.488617E-14 -5
v 1.666667 -8.488617E-14 -5
v -6.123233E-16 -9.701277E-14 -5
v -6.123233E-16 -0.5 -5
v 1.666667 -0.5 -5
v 15 -0.5 -5
v 15 -8.488617E-14 -5
v 1.670219 0.15 -5
v 15 0.15 -5
v 15 -8.488617E-14 -5
v 15 -0.5 -5
v 15 -0.5 5
v 15 -8.488617E-14 5
v 15 0.15 -5
v 15 0.15 5
v 15 0.15 -5
v 15 0.15 5
v 1.670219 0.15 5
v 1.670219 0.15 -5
v 1.666667 -8.488617E-14 5
v 6.123233E-16 -9.701277E-14 5
v -6.123233E-16 -9.701277E-14 -5
v 1.666667 -8.488617E-14 -5
vt 0.8328933 0.7807527
vt 0.8328933 0.8208706
vt 0.8343977 0.8208706
vt 0.8343977 0.7807527
vt 0.8328933 0.7757381
vt 0.8343977 0.7757381
vt 0.8348491 0.8208706
vt 0.8348491 0.7807636
vt 0.8947997 0.5085958
vt 0.8952512 0.5085958
vt 0.8952512 0.4785079
vt 0.8947997 0.4785079
vt 0.8348491 0.9486194
vt 0.8333446 0.9486194
vt 0.8333446 0.9536341
vt 0.8348491 0.9536341
vt 0.8348491 0.9937527
vt 0.8333446 0.9937527
vt 0.8328933 0.9536449
vt 0.8328933 0.9937527
vt 0.5164009 0.2669573
vt 0.4863119 0.2669573
vt 0.4863119 0.2684617
vt 0.5164009 0.2684617
vt 0.4863119 0.268913
vt 0.5164009 0.268913
vt 0.006247228 0.7248388
vt 0.006247228 0.9937528
vt 0.2079865 0.9937528
vt 0.2079865 0.7248388
vt 0.2080002 0.6787233
vt 0.006249254 0.6787233
vt 0.006249254 0.7123427
vt 0.2080002 0.7123427
vt 0.8343977 0.8208706
vt 0.8328933 0.8208706
vt 0.8328933 0.7807527
vt 0.8343977 0.7807527
vt 0.8328933 0.7757381
vt 0.8343977 0.7757381
vt 0.8348491 0.8208706
vt 0.8348491 0.7807636
vt 0.8952512 0.4785079
vt 0.8952512 0.5085958
vt 0.8947997 0.5085958
vt 0.8947997 0.4785079
vt 0.8333446 0.9536341
vt 0.8333446 0.9486194
vt 0.8348491 0.9486194
vt 0.8348491 0.9536341
vt 0.8348491 0.9937527
vt 0.8333446 0.9937527
vt 0.8328933 0.9536449
vt 0.8328933 0.9937527
vt 0.4863119 0.2684617
vt 0.4863119 0.2669573
vt 0.5164009 0.2669573
vt 0.5164009 0.2684617
vt 0.4863119 0.268913
vt 0.5164009 0.268913
vt 0.2079865 0.9937528
vt 0.006247228 0.9937528
vt 0.006247228 0.7248388
vt 0.2079865 0.7248388
vt 0.006249254 0.7123427
vt 0.006249254 0.6787233
vt 0.2080002 0.6787233
vt 0.2080002 0.7123427
vn 0 0 1
vn 0 0 1
vn 0 0 1
vn 0 0 1
vn 0 0 1
vn 0 0 1
vn 0 0 1
vn 0 0 1
vn 0.9997196 0.02367808 0
vn 0.9997196 0.02367808 0
vn 0.9997196 0.02367808 0
vn 0.9997196 0.02367808 0
vn 0 0 -1
vn 0 0 -1
vn 0 0 -1
vn 0 0 -1
vn 0 0 -1
vn 0 0 -1
vn 0 0 -1
vn 0 0 -1
vn -1 0 0
vn -1 0 0
vn -1 0 0
vn -1 0 0
vn -1 0 0
vn -1 0 0
vn 0 1 0
vn 0 1 0
vn 0 1 0
vn 0 1 0
vn 0 1 0
vn 0 1 0
vn 0 1 0
vn 0 1 0
vn 0 0 1
vn 0 0 1
vn 0 0 1
vn 0 0 1
vn 0 0 1
vn 0 0 1
vn 0 0 1
vn 0 0 1
vn -0.9997196 0.02367808 0
vn -0.9997196 0.02367808 0
vn -0.9997196 0.02367808 0
vn -0.9997196 0.02367808 0
vn 0 0 -1
vn 0 0 -1
vn 0 0 -1
vn 0 0 -1
vn 0 0 -1
vn 0 0 -1
vn 0 0 -1
vn 0 0 -1
vn 1 0 0
vn 1 0 0
vn 1 0 0
vn 1 0 0
vn 1 0 0
vn 1 0 0
vn 0 1 0
vn 0 1 0
vn 0 1 0
vn 0 1 0
vn 0 1 0
vn 0 1 0
vn 0 1 0
vn 0 1 0
g floor_0
f 3/3/3 2/2/2 1/1/1
f 4/4/4 3/3/3 1/1/1
f 4/4/4 1/1/1 5/5/5
f 6/6/6 4/4/4 5/5/5
f 7/7/7 3/3/3 4/4/4
f 8/8/8 7/7/7 4/4/4
f 11/11/11 10/10/10 9/9/9
f 12/12/12 11/11/11 9/9/9
f 15/15/15 14/14/14 13/13/13
f 16/16/16 15/15/15 13/13/13
f 15/15/15 16/16/16 17/17/17
f 18/18/18 15/15/15 17/17/17
f 19/19/19 15/15/15 18/18/18
f 20/20/20 19/19/19 18/18/18
f 23/23/23 22/22/22 21/21/21
f 24/24/24 23/23/23 21/21/21
f 25/25/25 23/23/23 24/24/24
f 26/26/26 25/25/25 24/24/24
f 29/29/29 28/28/28 27/27/27
f 30/30/30 29/29/29 27/27/27
f 33/33/33 32/32/32 31/31/31
f 34/34/34 33/33/33 31/31/31
f 37/37/37 36/36/36 35/35/35
f 38/38/38 37/37/37 35/35/35
f 39/39/39 37/37/37 38/38/38
f 40/40/40 39/39/39 38/38/38
f 38/38/38 35/35/35 41/41/41
f 42/42/42 38/38/38 41/41/41
f 45/45/45 44/44/44 43/43/43
f 46/46/46 45/45/45 43/43/43
f 49/49/49 48/48/48 47/47/47
f 50/50/50 49/49/49 47/47/47
f 51/51/51 50/50/50 47/47/47
f 52/52/52 51/51/51 47/47/47
f 52/52/52 47/47/47 53/53/53
f 54/54/54 52/52/52 53/53/53
f 57/57/57 56/56/56 55/55/55
f 58/58/58 57/57/57 55/55/55
f 58/58/58 55/55/55 59/59/59
f 60/60/60 58/58/58 59/59/59
f 63/63/63 62/62/62 61/61/61
f 64/64/64 63/63/63 61/61/61
f 67/67/67 66/66/66 65/65/65
f 68/68/68 67/67/67 65/65/65
