g floor
v -1.666667 -0.5 5
v -15 -0.5 5
v -15 2.611244E-15 5
v -1.666667 2.611244E-15 5
v 5.053215E-15 -0.5 5
v 5.053215E-15 2.611244E-15 5
v -1.666667 2.611244E-15 5
v -1.670219 0.15 5
v -1.670219 0.15 -5
v -1.666667 2.611244E-15 -5
v -1.666667 2.611244E-15 5
v -15 2.611244E-15 5
v -15 0.15 5
v -1.670219 0.15 5
v -5.053215E-15 -0.5 -5
v -5.053215E-15 2.611244E-15 -5
v -1.666667 2.611244E-15 -5
v -1.666667 -0.5 -5
v -15 -0.5 -5
v -15 2.611244E-15 -5
v -1.670219 0.15 -5
v -15 0.15 -5
v -15 -0.5 5
v -15 -0.5 -5
v -15 2.611244E-15 -5
v -15 2.611244E-15 5
v -15 0.15 -5
v -15 0.15 5
v -1.670219 0.15 5
v -15 0.15 5
v -15 0.15 -5
v -1.670219 0.15 -5
v -5.053215E-15 2.611244E-15 -5
v 5.053215E-15 2.611244E-15 5
v -1.666667 2.611244E-15 5
v -1.666667 2.611244E-15 -5
v 15 2.611244E-15 5
v 15 -0.5 5
v 1.666667 -0.5 5
v 1.666667 2.611244E-15 5
v 5.053215E-15 -0.5 5
v 5.053215E-15 2.611244E-15 5
v 1.670219 0.15 -5
v 1.670219 0.15 5
v 1.666667 2.611244E-15 5
v 1.666667 2.611244E-15 -5
v 15 0.15 5
v 15 2.611244E-15 5
v 1.666667 2.611244E-15 5
v 1.670219 0.15 5
v 1.666667 2.611244E-15 -5
v -5.053215E-15 2.611244E-15 -5
v -5.053215E-15 -0.5 -5
v 1.666667 -0.5 -5
v 15 -0.5 -5
v 15 2.611244E-15 -5
v 1.670219 0.15 -5
v 15 0.15 -5
v 15 2.611244E-15 -5
v 15 -0.5 -5
v 15 -0.5 5
v 15 2.611244E-15 5
v 15 0.15 -5
v 15 0.15 5
v 15 0.15 -5
v 15 0.15 5
v 1.670219 0.15 5
v 1.670219 0.15 -5
v 1.666667 2.611244E-15 5
v 5.053215E-15 2.611244E-15 5
v -5.053215E-15 2.611244E-15 -5
v 1.666667 2.611244E-15 -5
vt 0.6910819 0.9794301
vt 0.6910819 0.8826935
vt 0.687449 0.8826935
vt 0.687449 0.9794301
vt 0.6910819 0.9915223
vt 0.687449 0.9915223
vt 0.6173623 0.3102889
vt 0.6173623 0.3075229
vt 0.4332809 0.3075229
vt 0.4332809 0.3102889
vt 0.6969993 0.6486659
vt 0.6969993 0.4353657
vt 0.6945962 0.4353657
vt 0.6945962 0.648609
vt 0.6662928 0.6112661
vt 0.6699256 0.6112661
vt 0.6699256 0.599174
vt 0.6662928 0.599174
vt 0.6662928 0.5024374
vt 0.6699256 0.5024374
vt 0.6710156 0.5991484
vt 0.6710156 0.5024374
vt 0.7227895 0.7300449
vt 0.7227895 0.6573868
vt 0.7191621 0.6573868
vt 0.7191621 0.7300449
vt 0.7180739 0.6573868
vt 0.7180739 0.7300449
vt 0.3817801 0.9956393
vt 0.3817801 0.750263
vt 0.1974307 0.750263
vt 0.1974307 0.9956393
vt 0.09679584 0.6112086
vt 0.2811453 0.6112083
vt 0.2811402 0.5805349
vt 0.09679078 0.5805352
vt 0.687449 0.8826935
vt 0.6910819 0.8826935
vt 0.6910819 0.9794301
vt 0.687449 0.9794301
vt 0.6910819 0.9915223
vt 0.687449 0.9915223
vt 0.4332809 0.3075229
vt 0.6173623 0.3075229
vt 0.6173623 0.3102889
vt 0.4332809 0.3102889
vt 0.6945962 0.4353657
vt 0.6969993 0.4353657
vt 0.6969993 0.6486659
vt 0.6945962 0.648609
vt 0.6699256 0.599174
vt 0.6699256 0.6112661
vt 0.6662928 0.6112661
vt 0.6662928 0.599174
vt 0.6662928 0.5024374
vt 0.6699256 0.5024374
vt 0.6710156 0.5991484
vt 0.6710156 0.5024374
vt 0.7191621 0.6573868
vt 0.7227895 0.6573868
vt 0.7227895 0.7300449
vt 0.7191621 0.7300449
vt 0.7180739 0.6573868
vt 0.7180739 0.7300449
vt 0.1974307 0.750263
vt 0.3817801 0.750263
vt 0.3817801 0.9956393
vt 0.1974307 0.9956393
vt 0.2811402 0.5805349
vt 0.2811453 0.6112083
vt 0.09679584 0.6112086
vt 0.09679078 0.5805352
vn 0 0 1
vn 0 0 1
vn 0 0 1
vn 0 0 1
vn 0 0 1
vn 0 0 1
vn 0.9997196 0.02367808 0
vn 0.9997196 0.02367808 0
vn 0.9997196 0.02367808 0
vn 0.9997196 0.02367808 0
vn 0 0 1
vn 0 0 1
vn 0 0 1
vn 0 0 1
vn 0 0 -1
vn 0 0 -1
vn 0 0 -1
vn 0 0 -1
vn 0 0 -1
vn 0 0 -1
vn 0 0 -1
vn 0 0 -1
vn -1 0 0
vn -1 0 0
vn -1 0 0
vn -1 0 0
vn -1 0 0
vn -1 0 0
vn 0 1 0
vn 0 1 0
vn 0 1 0
vn 0 1 0
vn 0 1 0
vn 0 1 0
vn 0 1 0
vn 0 1 0
vn 0 0 1
vn 0 0 1
vn 0 0 1
vn 0 0 1
vn 0 0 1
vn 0 0 1
vn -0.9997196 0.02367808 0
vn -0.9997196 0.02367808 0
vn -0.9997196 0.02367808 0
vn -0.9997196 0.02367808 0
vn 0 0 1
vn 0 0 1
vn 0 0 1
vn 0 0 1
vn 0 0 -1
vn 0 0 -1
vn 0 0 -1
vn 0 0 -1
vn 0 0 -1
vn 0 0 -1
vn 0 0 -1
vn 0 0 -1
vn 1 0 0
vn 1 0 0
vn 1 0 0
vn 1 0 0
vn 1 0 0
vn 1 0 0
vn 0 1 0
vn 0 1 0
vn 0 1 0
vn 0 1 0
vn 0 1 0
vn 0 1 0
vn 0 1 0
vn 0 1 0
g floor_0
f 3/3/3 2/2/2 1/1/1
f 4/4/4 3/3/3 1/1/1
f 4/4/4 1/1/1 5/5/5
f 6/6/6 4/4/4 5/5/5
f 9/9/9 8/8/8 7/7/7
f 10/10/10 9/9/9 7/7/7
f 13/13/13 12/12/12 11/11/11
f 14/14/14 13/13/13 11/11/11
f 17/17/17 16/16/16 15/15/15
f 18/18/18 17/17/17 15/15/15
f 17/17/17 18/18/18 19/19/19
f 20/20/20 17/17/17 19/19/19
f 21/21/21 17/17/17 20/20/20
f 22/22/22 21/21/21 20/20/20
f 25/25/25 24/24/24 23/23/23
f 26/26/26 25/25/25 23/23/23
f 27/27/27 25/25/25 26/26/26
f 28/28/28 27/27/27 26/26/26
f 31/31/31 30/30/30 29/29/29
f 32/32/32 31/31/31 29/29/29
f 35/35/35 34/34/34 33/33/33
f 36/36/36 35/35/35 33/33/33
f 39/39/39 38/38/38 37/37/37
f 40/40/40 39/39/39 37/37/37
f 41/41/41 39/39/39 40/40/40
f 42/42/42 41/41/41 40/40/40
f 45/45/45 44/44/44 43/43/43
f 46/46/46 45/45/45 43/43/43
f 49/49/49 48/48/48 47/47/47
f 50/50/50 49/49/49 47/47/47
f 53/53/53 52/52/52 51/51/51
f 54/54/54 53/53/53 51/51/51
f 55/55/55 54/54/54 51/51/51
f 56/56/56 55/55/55 51/51/51
f 56/56/56 51/51/51 57/57/57
f 58/58/58 56/56/56 57/57/57
f 61/61/61 60/60/60 59/59/59
f 62/62/62 61/61/61 59/59/59
f 62/62/62 59/59/59 63/63/63
f 64/64/64 62/62/62 63/63/63
f 67/67/67 66/66/66 65/65/65
f 68/68/68 67/67/67 65/65/65
f 71/71/71 70/70/70 69/69/69
f 72/72/72 71/71/71 69/69/69
