g floor
v -1.666667 -0.5 4.996666
v -15 -0.5 4.996666
v -15 -8.408089E-15 4.996666
v -1.666667 -9.26074E-15 4.996666
v -5.451382E-15 -0.5 4.996666
v -5.451382E-15 -1.236344E-14 4.996666
v -15 0.15 4.996666
v -1.670219 0.15 4.996666
v -6.67603E-15 -0.5 -5.003333
v -9.707679E-15 -1.236344E-14 -5.003333
v -1.666667 -9.26074E-15 -5.003333
v -1.666667 -0.5 -5.003333
v -15 -0.5 -5.003333
v -15 -8.408089E-15 -5.003333
v -1.670219 0.15 -5.003333
v -15 0.15 -5.003333
v -9.707679E-15 -1.236344E-14 -5.003333
v -5.451382E-15 -1.236344E-14 4.996666
v -1.666667 -9.26074E-15 4.996666
v -1.666667 -9.26074E-15 -5.003333
v -1.666667 -9.26074E-15 4.996666
v -1.670219 0.15 4.996666
v -1.670219 0.15 -5.003333
v -1.666667 -9.26074E-15 -5.003333
v -15 -0.5 4.996666
v -15 -0.5 -5.003333
v -15 -8.408089E-15 -5.003333
v -15 -8.408089E-15 4.996666
v -1.670219 0.15 4.996666
v -15 0.15 4.996666
v -15 0.15 -5.003333
v -1.670219 0.15 -5.003333
v -15 -8.408089E-15 4.996666
v -15 -8.408089E-15 -5.003333
v -15 0.15 -5.003333
v -15 0.15 4.996666
v 15 -8.384404E-15 4.996666
v 15 -0.5 4.996666
v 1.666667 -0.5 4.996666
v 1.666667 -9.237055E-15 4.996666
v -5.451382E-15 -0.5 4.996666
v -5.451382E-15 -1.236344E-14 4.996666
v 15 0.15 4.996666
v 1.670219 0.15 4.996666
v 1.666667 -9.237055E-15 -5.003333
v -9.707679E-15 -1.236344E-14 -5.003333
v -6.67603E-15 -0.5 -5.003333
v 1.666667 -0.5 -5.003333
v 15 -0.5 -5.003333
v 15 -8.384404E-15 -5.003333
v 1.670219 0.15 -5.003333
v 15 0.15 -5.003333
v 1.666667 -9.237055E-15 4.996666
v -5.451382E-15 -1.236344E-14 4.996666
v -9.707679E-15 -1.236344E-14 -5.003333
v 1.666667 -9.237055E-15 -5.003333
v 1.670219 0.15 -5.003333
v 1.670219 0.15 4.996666
v 1.666667 -9.237055E-15 4.996666
v 1.666667 -9.237055E-15 -5.003333
v 15 -8.384404E-15 -5.003333
v 15 -0.5 -5.003333
v 15 -0.5 4.996666
v 15 -8.384404E-15 4.996666
v 15 0.15 -5.003333
v 15 0.15 4.996666
v 1.670219 0.15 4.996666
v 1.670219 0.15 -5.003333
v 15 0.15 -5.003333
v 15 -8.384404E-15 -5.003333
v 15 -8.384404E-15 4.996666
v 15 0.15 4.996666
vt 0.865271 0.272859
vt 0.865271 0.2251884
vt 0.8634834 0.2251884
vt 0.8634834 0.272859
vt 0.865271 0.2788178
vt 0.8634834 0.2788178
vt 0.8629471 0.2251884
vt 0.8629471 0.2728463
vt 0.8773605 0.994248
vt 0.8791482 0.994248
vt 0.8791482 0.9882892
vt 0.8773605 0.9882892
vt 0.8773605 0.9406185
vt 0.8791482 0.9406185
vt 0.8796844 0.9882765
vt 0.8796844 0.9406185
vt 0.004387125 0.6013044
vt 0.2044653 0.6013053
vt 0.2044604 0.5679651
vt 0.004382238 0.5679643
vt 0.2015406 0.4609047
vt 0.202077 0.4609047
vt 0.202077 0.4251517
vt 0.2015406 0.4251517
vt 0.3192593 0.09904027
vt 0.2835063 0.09904027
vt 0.2835063 0.1008278
vt 0.3192593 0.1008281
vt 0.4133094 0.9956124
vt 0.4133094 0.7289191
vt 0.2132361 0.7289191
vt 0.2132361 0.9956124
vt 0.08703513 0.09196091
vt 0.05128215 0.09196091
vt 0.05128215 0.09249723
vt 0.08703513 0.09249723
vt 0.8634834 0.2251884
vt 0.865271 0.2251884
vt 0.865271 0.272859
vt 0.8634834 0.272859
vt 0.865271 0.2788178
vt 0.8634834 0.2788178
vt 0.8629471 0.2251884
vt 0.8629471 0.2728463
vt 0.8791482 0.9882892
vt 0.8791482 0.994248
vt 0.8773605 0.994248
vt 0.8773605 0.9882892
vt 0.8773605 0.9406185
vt 0.8791482 0.9406185
vt 0.8796844 0.9882765
vt 0.8796844 0.9406185
vt 0.2044604 0.5679651
vt 0.2044653 0.6013053
vt 0.004387125 0.6013044
vt 0.004382238 0.5679643
vt 0.202077 0.4251517
vt 0.202077 0.4609047
vt 0.2015406 0.4609047
vt 0.2015406 0.4251517
vt 0.2835063 0.1008278
vt 0.2835063 0.09904027
vt 0.3192593 0.09904027
vt 0.3192593 0.1008281
vt 0.2132361 0.7289191
vt 0.4133094 0.7289191
vt 0.4133094 0.9956124
vt 0.2132361 0.9956124
vt 0.05128215 0.09249723
vt 0.05128215 0.09196091
vt 0.08703513 0.09196091
vt 0.08703513 0.09249723
vn 0 0 1
vn 0 0 1
vn 0 0 1
vn 0 0 1
vn 0 0 1
vn 0 0 1
vn 0 0 1
vn 0 0 1
vn 0 0 -1
vn 0 0 -1
vn 0 0 -1
vn 0 0 -1
vn 0 0 -1
vn 0 0 -1
vn 0 0 -1
vn 0 0 -1
vn 0 1 0
vn 0 1 0
vn 0 1 0
vn 0 1 0
vn 0.9997196 0.02367808 0
vn 0.9997196 0.02367808 0
vn 0.9997196 0.02367808 0
vn 0.9997196 0.02367808 0
vn -1 0 0
vn -1 0 0
vn -1 0 0
vn -1 0 0
vn 0 1 0
vn 0 1 0
vn 0 1 0
vn 0 1 0
vn -1 0 0
vn -1 0 0
vn -1 0 0
vn -1 0 0
vn 0 0 1
vn 0 0 1
vn 0 0 1
vn 0 0 1
vn 0 0 1
vn 0 0 1
vn 0 0 1
vn 0 0 1
vn 0 0 -1
vn 0 0 -1
vn 0 0 -1
vn 0 0 -1
vn 0 0 -1
vn 0 0 -1
vn 0 0 -1
vn 0 0 -1
vn 0 1 0
vn 0 1 0
vn 0 1 0
vn 0 1 0
vn -0.9997196 0.02367808 0
vn -0.9997196 0.02367808 0
vn -0.9997196 0.02367808 0
vn -0.9997196 0.02367808 0
vn 1 0 0
vn 1 0 0
vn 1 0 0
vn 1 0 0
vn 0 1 0
vn 0 1 0
vn 0 1 0
vn 0 1 0
vn 1 0 0
vn 1 0 0
vn 1 0 0
vn 1 0 0
g floor_0
f 3/3/3 2/2/2 1/1/1
f 4/4/4 3/3/3 1/1/1
f 4/4/4 1/1/1 5/5/5
f 6/6/6 4/4/4 5/5/5
f 7/7/7 3/3/3 4/4/4
f 8/8/8 7/7/7 4/4/4
f 11/11/11 10/10/10 9/9/9
f 12/12/12 11/11/11 9/9/9
f 11/11/11 12/12/12 13/13/13
f 14/14/14 11/11/11 13/13/13
f 15/15/15 11/11/11 14/14/14
f 16/16/16 15/15/15 14/14/14
f 19/19/19 18/18/18 17/17/17
f 20/20/20 19/19/19 17/17/17
f 23/23/23 22/22/22 21/21/21
f 24/24/24 23/23/23 21/21/21
f 27/27/27 26/26/26 25/25/25
f 28/28/28 27/27/27 25/25/25
f 31/31/31 30/30/30 29/29/29
f 32/32/32 31/31/31 29/29/29
f 35/35/35 34/34/34 33/33/33
f 36/36/36 35/35/35 33/33/33
f 39/39/39 38/38/38 37/37/37
f 40/40/40 39/39/39 37/37/37
f 41/41/41 39/39/39 40/40/40
f 42/42/42 41/41/41 40/40/40
f 40/40/40 37/37/37 43/43/43
f 44/44/44 40/40/40 43/43/43
f 47/47/47 46/46/46 45/45/45
f 48/48/48 47/47/47 45/45/45
f 49/49/49 48/48/48 45/45/45
f 50/50/50 49/49/49 45/45/45
f 50/50/50 45/45/45 51/51/51
f 52/52/52 50/50/50 51/51/51
f 55/55/55 54/54/54 53/53/53
f 56/56/56 55/55/55 53/53/53
f 59/59/59 58/58/58 57/57/57
f 60/60/60 59/59/59 57/57/57
f 63/63/63 62/62/62 61/61/61
f 64/64/64 63/63/63 61/61/61
f 67/67/67 66/66/66 65/65/65
f 68/68/68 67/67/67 65/65/65
f 71/71/71 70/70/70 69/69/69
f 72/72/72 71/71/71 69/69/69
