g floor
v -1.666667 -0.5 5.000001
v -15 -0.5 5.000001
v -15 1.051951E-14 5.000001
v -1.666667 1.051951E-14 5.000001
v 1.666667 -0.5 5.000001
v 1.666667 1.051951E-14 5.000001
v 15 -0.5 5.000001
v 15 1.051951E-14 5.000001
v -15 0.15 5.000001
v -1.670219 0.15 5.000001
v 1.670219 0.15 5.000001
v 15 0.15 5.000001
v 15 -0.5 -4.999999
v 15 -0.5 5.000001
v 15 1.051951E-14 5.000001
v 15 1.174416E-14 -4.999999
v 15 0.15 5.000001
v 15 0.15 -4.999999
v 1.666667 -0.5 -4.999999
v 15 -0.5 -4.999999
v 15 1.174416E-14 -4.999999
v 1.666667 1.174416E-14 -4.999999
v -1.666667 -0.5 -4.999999
v -1.666667 1.174416E-14 -4.999999
v -15 -0.5 -4.999999
v -15 1.174416E-14 -4.999999
v 15 0.15 -4.999999
v 1.670219 0.15 -4.999999
v -15 -0.5 5.000001
v -15 -0.5 -4.999999
v -15 1.174416E-14 -4.999999
v -15 1.051951E-14 5.000001
v -1.670219 0.15 5.000001
v -15 0.15 5.000001
v -15 0.15 -4.999999
v -1.670219 0.15 -4.999999
v 15 0.15 5.000001
v 1.670219 0.15 5.000001
v 1.670219 0.15 -4.999999
v 15 0.15 -4.999999
v -1.666667 1.051951E-14 5.000001
v -1.670219 0.15 5.000001
v -1.670219 0.15 -4.999999
v -1.666667 1.174416E-14 -4.999999
v -1.666667 1.051951E-14 5.000001
v -1.666667 1.174416E-14 -4.999999
v 1.666667 1.174416E-14 -4.999999
v 1.666667 1.051951E-14 5.000001
v 1.666667 1.174416E-14 -4.999999
v 1.670219 0.15 -4.999999
v 1.670219 0.15 5.000001
v 1.666667 1.051951E-14 5.000001
v -15 1.174416E-14 -4.999999
v -1.666667 1.174416E-14 -4.999999
v -1.670219 0.15 -4.999999
v -15 0.15 -4.999999
v -15 1.051951E-14 5.000001
v -15 1.174416E-14 -4.999999
v -15 0.15 -4.999999
v -15 0.15 5.000001
vt 0.8059616 0.3594539
vt 0.8059616 0.2604736
vt 0.8022376 0.2604736
vt 0.8022376 0.3594539
vt 0.8059616 0.3841989
vt 0.8022376 0.3841989
vt 0.8059616 0.4831791
vt 0.8022376 0.4831791
vt 0.8011204 0.2604736
vt 0.8011204 0.3594276
vt 0.8011204 0.3842252
vt 0.8011204 0.4831791
vt -1.52668 0.0168575
vt -1.742982 0.0168575
vt -1.742982 0.02720368
vt -1.52668 0.02720368
vt -1.742982 0.03030753
vt -1.52668 0.03030753
vt 0.7813703 0.3841994
vt 0.7813703 0.48318
vt 0.7850943 0.48318
vt 0.7850943 0.3841994
vt 0.7813703 0.3594543
vt 0.7850943 0.3594543
vt 0.7813703 0.2604736
vt 0.7850943 0.2604736
vt 0.7862115 0.48318
vt 0.7862115 0.3842257
vt 0.2103971 0.2479738
vt 0.00745449 0.2479738
vt 0.00745449 0.2580875
vt 0.2103971 0.2580875
vt 0.4282486 0.9925455
vt 0.4282486 0.7229165
vt 0.225306 0.7229165
vt 0.225306 0.9925455
vt 0.6461002 0.9925455
vt 0.6461002 0.7229166
vt 0.4431576 0.7229166
vt 0.4431576 0.9925455
vt 0.8478545 0.5730805
vt 0.8448096 0.5730805
vt 0.8448096 0.7753606
vt 0.8478545 0.7753606
vt 0.5874554 0.3560445
vt 0.3845128 0.3560445
vt 0.3845128 0.4234697
vt 0.5874554 0.4234697
vt 0.8627635 0.4230998
vt 0.8638809 0.4230998
vt 0.8638809 0.3488637
vt 0.8627635 0.3488637
vt 0.8627635 0.4380087
vt 0.8627635 0.5369883
vt 0.8638806 0.5369619
vt 0.8638806 0.4380087
vt 0.7241253 0.2067907
vt 0.5211869 0.2067907
vt 0.5211869 0.2098248
vt 0.7241253 0.2098248
vn 0 0 1
vn 0 0 1
vn 0 0 1
vn 0 0 1
vn 0 0 1
vn 0 0 1
vn 0 0 1
vn 0 0 1
vn 0 0 1
vn 0 0 1
vn 0 0 1
vn 0 0 1
vn 1 0 0
vn 1 0 0
vn 1 0 0
vn 1 0 0
vn 1 0 0
vn 1 0 0
vn 0 0 -1
vn 0 0 -1
vn 0 0 -1
vn 0 0 -1
vn 0 0 -1
vn 0 0 -1
vn 0 0 -1
vn 0 0 -1
vn 0 0 -1
vn 0 0 -1
vn -1 0 0
vn -1 0 0
vn -1 0 0
vn -1 0 0
vn 0 1 0
vn 0 1 0
vn 0 1 0
vn 0 1 0
vn 0 1 0
vn 0 1 0
vn 0 1 0
vn 0 1 0
vn 0.9997196 0.02367808 0
vn 0.9997196 0.02367808 0
vn 0.9997196 0.02367808 0
vn 0.9997196 0.02367808 0
vn 0 1 0
vn 0 1 0
vn 0 1 0
vn 0 1 0
vn -0.9997196 0.02367808 0
vn -0.9997196 0.02367808 0
vn -0.9997196 0.02367808 0
vn -0.9997196 0.02367808 0
vn 0 0 -1
vn 0 0 -1
vn 0 0 -1
vn 0 0 -1
vn -1 0 0
vn -1 0 0
vn -1 0 0
vn -1 0 0
g floor_0
f 3/3/3 2/2/2 1/1/1
f 4/4/4 3/3/3 1/1/1
f 4/4/4 1/1/1 5/5/5
f 6/6/6 4/4/4 5/5/5
f 6/6/6 5/5/5 7/7/7
f 8/8/8 6/6/6 7/7/7
f 9/9/9 3/3/3 4/4/4
f 10/10/10 9/9/9 4/4/4
f 11/11/11 6/6/6 8/8/8
f 12/12/12 11/11/11 8/8/8
f 15/15/15 14/14/14 13/13/13
f 16/16/16 15/15/15 13/13/13
f 17/17/17 15/15/15 16/16/16
f 18/18/18 17/17/17 16/16/16
f 21/21/21 20/20/20 19/19/19
f 22/22/22 21/21/21 19/19/19
f 22/22/22 19/19/19 23/23/23
f 24/24/24 22/22/22 23/23/23
f 24/24/24 23/23/23 25/25/25
f 26/26/26 24/24/24 25/25/25
f 27/27/27 21/21/21 22/22/22
f 28/28/28 27/27/27 22/22/22
f 31/31/31 30/30/30 29/29/29
f 32/32/32 31/31/31 29/29/29
f 35/35/35 34/34/34 33/33/33
f 36/36/36 35/35/35 33/33/33
f 39/39/39 38/38/38 37/37/37
f 40/40/40 39/39/39 37/37/37
f 43/43/43 42/42/42 41/41/41
f 44/44/44 43/43/43 41/41/41
f 47/47/47 46/46/46 45/45/45
f 48/48/48 47/47/47 45/45/45
f 51/51/51 50/50/50 49/49/49
f 52/52/52 51/51/51 49/49/49
f 55/55/55 54/54/54 53/53/53
f 56/56/56 55/55/55 53/53/53
f 59/59/59 58/58/58 57/57/57
f 60/60/60 59/59/59 57/57/57
