g floor
v -1.666667 -0.5 4.996666
v -15 -0.5 4.996666
v -15 -3.789561E-16 4.996666
v -1.666667 -3.789561E-16 4.996666
v 6.119151E-16 -0.5 4.996666
v 6.119151E-16 -3.789561E-16 4.996666
v -15 0.15 4.996666
v -1.670219 0.15 4.996666
v -6.127316E-16 -0.5 -5.003333
v -6.127316E-16 7.579123E-16 -5.003333
v -1.666667 7.579123E-16 -5.003333
v -1.666667 -0.5 -5.003333
v -6.127316E-16 7.579123E-16 -5.003333
v 6.119151E-16 -3.789561E-16 4.996666
v -1.666667 -3.789561E-16 4.996666
v -1.666667 7.579123E-16 -5.003333
v -1.666667 -3.789561E-16 4.996666
v -1.670219 0.15 4.996666
v -1.670219 0.15 -5.003333
v -1.666667 7.579123E-16 -5.003333
v -15 -0.5 -5.003333
v -1.666667 -0.5 -5.003333
v -1.666667 7.579123E-16 -5.003333
v -15 7.579123E-16 -5.003333
v -1.670219 0.15 -5.003333
v -15 0.15 -5.003333
v -15 -0.5 4.996666
v -15 -0.5 -5.003333
v -15 7.579123E-16 -5.003333
v -15 -3.789561E-16 4.996666
v -1.670219 0.15 4.996666
v -15 0.15 4.996666
v -15 0.15 -5.003333
v -1.670219 0.15 -5.003333
v -15 -3.789561E-16 4.996666
v -15 7.579123E-16 -5.003333
v -15 0.15 -5.003333
v -15 0.15 4.996666
v 15 -3.789561E-16 4.996666
v 15 -0.5 4.996666
v 1.666667 -0.5 4.996666
v 1.666667 -3.789561E-16 4.996666
v 6.119151E-16 -0.5 4.996666
v 6.119151E-16 -3.789561E-16 4.996666
v 15 0.15 4.996666
v 1.670219 0.15 4.996666
v 1.666667 7.579123E-16 -5.003333
v -6.127316E-16 7.579123E-16 -5.003333
v -6.127316E-16 -0.5 -5.003333
v 1.666667 -0.5 -5.003333
v 1.666667 -3.789561E-16 4.996666
v 6.119151E-16 -3.789561E-16 4.996666
v -6.127316E-16 7.579123E-16 -5.003333
v 1.666667 7.579123E-16 -5.003333
v 1.670219 0.15 -5.003333
v 1.670219 0.15 4.996666
v 1.666667 -3.789561E-16 4.996666
v 1.666667 7.579123E-16 -5.003333
v 1.666667 7.579123E-16 -5.003333
v 1.666667 -0.5 -5.003333
v 15 -0.5 -5.003333
v 15 7.579123E-16 -5.003333
v 1.670219 0.15 -5.003333
v 15 0.15 -5.003333
v 15 7.579123E-16 -5.003333
v 15 -0.5 -5.003333
v 15 -0.5 4.996666
v 15 -3.789561E-16 4.996666
v 15 0.15 -5.003333
v 15 0.15 4.996666
v 1.670219 0.15 4.996666
v 1.670219 0.15 -5.003333
v 15 0.15 -5.003333
v 15 7.579123E-16 -5.003333
v 15 -3.789561E-16 4.996666
v 15 0.15 4.996666
vt 0.6951208 0.6206238
vt 0.6951208 0.6937628
vt 0.6978635 0.6937628
vt 0.6978635 0.6206238
vt 0.6951208 0.6114815
vt 0.6978635 0.6114815
vt 0.6986863 0.6937628
vt 0.6986863 0.6206434
vt 0.8156291 0.983329
vt 0.8128864 0.983329
vt 0.8128864 0.9924714
vt 0.8156291 0.9924714
vt 0.2925619 0.5818505
vt 0.1107224 0.5818515
vt 0.1107224 0.6121646
vt 0.2925619 0.6121636
vt 0.7799996 0.4627674
vt 0.7808226 0.4627674
vt 0.7808226 0.4079132
vt 0.7799996 0.4079132
vt 0.6986864 0.5990724
vt 0.6986864 0.5259335
vt 0.6959437 0.5259335
vt 0.6959437 0.5990724
vt 0.6951208 0.5259529
vt 0.6951208 0.5990724
vt 0.1261919 0.2708367
vt 0.07133774 0.2708367
vt 0.07133774 0.2735795
vt 0.1261919 0.2735795
vt 0.006204568 0.7514117
vt 0.006204568 0.9937955
vt 0.1880409 0.9937955
vt 0.1880409 0.7514117
vt 0.5057768 0.2207804
vt 0.4509226 0.2207804
vt 0.4509226 0.2216032
vt 0.5057768 0.2216032
vt 0.6978635 0.6937628
vt 0.6951208 0.6937628
vt 0.6951208 0.6206238
vt 0.6978635 0.6206238
vt 0.6951208 0.6114815
vt 0.6978635 0.6114815
vt 0.6986863 0.6937628
vt 0.6986863 0.6206434
vt 0.8128864 0.9924714
vt 0.8128864 0.983329
vt 0.8156291 0.983329
vt 0.8156291 0.9924714
vt 0.1107224 0.6121646
vt 0.1107224 0.5818515
vt 0.2925619 0.5818505
vt 0.2925619 0.6121636
vt 0.7808226 0.4079132
vt 0.7808226 0.4627674
vt 0.7799996 0.4627674
vt 0.7799996 0.4079132
vt 0.6959437 0.5259335
vt 0.6986864 0.5259335
vt 0.6986864 0.5990724
vt 0.6959437 0.5990724
vt 0.6951208 0.5259529
vt 0.6951208 0.5990724
vt 0.07133774 0.2735795
vt 0.07133774 0.2708367
vt 0.1261919 0.2708367
vt 0.1261919 0.2735795
vt 0.1880409 0.9937955
vt 0.006204568 0.9937955
vt 0.006204568 0.7514117
vt 0.1880409 0.7514117
vt 0.4509226 0.2216032
vt 0.4509226 0.2207804
vt 0.5057768 0.2207804
vt 0.5057768 0.2216032
vn 0 0 1
vn 0 0 1
vn 0 0 1
vn 0 0 1
vn 0 0 1
vn 0 0 1
vn 0 0 1
vn 0 0 1
vn 0 0 -1
vn 0 0 -1
vn 0 0 -1
vn 0 0 -1
vn 0 1 0
vn 0 1 0
vn 0 1 0
vn 0 1 0
vn 0.9997196 0.02367808 0
vn 0.9997196 0.02367808 0
vn 0.9997196 0.02367808 0
vn 0.9997196 0.02367808 0
vn 0 0 -1
vn 0 0 -1
vn 0 0 -1
vn 0 0 -1
vn 0 0 -1
vn 0 0 -1
vn -1 0 0
vn -1 0 0
vn -1 0 0
vn -1 0 0
vn 0 1 0
vn 0 1 0
vn 0 1 0
vn 0 1 0
vn -1 0 0
vn -1 0 0
vn -1 0 0
vn -1 0 0
vn 0 0 1
vn 0 0 1
vn 0 0 1
vn 0 0 1
vn 0 0 1
vn 0 0 1
vn 0 0 1
vn 0 0 1
vn 0 0 -1
vn 0 0 -1
vn 0 0 -1
vn 0 0 -1
vn 0 1 0
vn 0 1 0
vn 0 1 0
vn 0 1 0
vn -0.9997196 0.02367808 0
vn -0.9997196 0.02367808 0
vn -0.9997196 0.02367808 0
vn -0.9997196 0.02367808 0
vn 0 0 -1
vn 0 0 -1
vn 0 0 -1
vn 0 0 -1
vn 0 0 -1
vn 0 0 -1
vn 1 0 0
vn 1 0 0
vn 1 0 0
vn 1 0 0
vn 0 1 0
vn 0 1 0
vn 0 1 0
vn 0 1 0
vn 1 0 0
vn 1 0 0
vn 1 0 0
vn 1 0 0
g floor_0
f 3/3/3 2/2/2 1/1/1
f 4/4/4 3/3/3 1/1/1
f 4/4/4 1/1/1 5/5/5
f 6/6/6 4/4/4 5/5/5
f 7/7/7 3/3/3 4/4/4
f 8/8/8 7/7/7 4/4/4
f 11/11/11 10/10/10 9/9/9
f 12/12/12 11/11/11 9/9/9
f 15/15/15 14/14/14 13/13/13
f 16/16/16 15/15/15 13/13/13
f 19/19/19 18/18/18 17/17/17
f 20/20/20 19/19/19 17/17/17
f 23/23/23 22/22/22 21/21/21
f 24/24/24 23/23/23 21/21/21
f 25/25/25 23/23/23 24/24/24
f 26/26/26 25/25/25 24/24/24
f 29/29/29 28/28/28 27/27/27
f 30/30/30 29/29/29 27/27/27
f 33/33/33 32/32/32 31/31/31
f 34/34/34 33/33/33 31/31/31
f 37/37/37 36/36/36 35/35/35
f 38/38/38 37/37/37 35/35/35
f 41/41/41 40/40/40 39/39/39
f 42/42/42 41/41/41 39/39/39
f 43/43/43 41/41/41 42/42/42
f 44/44/44 43/43/43 42/42/42
f 42/42/42 39/39/39 45/45/45
f 46/46/46 42/42/42 45/45/45
f 49/49/49 48/48/48 47/47/47
f 50/50/50 49/49/49 47/47/47
f 53/53/53 52/52/52 51/51/51
f 54/54/54 53/53/53 51/51/51
f 57/57/57 56/56/56 55/55/55
f 58/58/58 57/57/57 55/55/55
f 61/61/61 60/60/60 59/59/59
f 62/62/62 61/61/61 59/59/59
f 62/62/62 59/59/59 63/63/63
f 64/64/64 62/62/62 63/63/63
f 67/67/67 66/66/66 65/65/65
f 68/68/68 67/67/67 65/65/65
f 71/71/71 70/70/70 69/69/69
f 72/72/72 71/71/71 69/69/69
f 75/75/75 74/74/74 73/73/73
f 76/76/76 75/75/75 73/73/73
