g ball3
v 0.2957183 0.3199388 0.376971
v 0.4270008 0.3725505 -0.09965621
v 0.5410506 -0.1373341 0.1336364
v -0.1140501 0.509883 -0.2332923
v -0.5410513 0.1373309 -0.1336359
v -0.1392433 0.1212763 -0.5434451
v 0.4270008 0.3725505 -0.09965621
v 0.4018076 -0.01605616 -0.4098089
v 0.5410506 -0.1373341 0.1336364
v 0.4018076 -0.01605616 -0.4098089
v -0.1392433 0.1212763 -0.5434451
v -0.2957189 -0.3199421 -0.3769705
v 0.2453319 -0.4572746 -0.2433344
v 0.2453319 -0.4572746 -0.2433344
v -0.2957189 -0.3199421 -0.3769705
v -0.4270014 -0.3725538 0.09965666
v 0.1140494 -0.5098863 0.2332928
v 0.1140494 -0.5098863 0.2332928
v -0.4270014 -0.3725538 0.09965666
v -0.4018083 0.0160529 0.4098093
v 0.1392426 -0.1212796 0.5434455
v 0.1392426 -0.1212796 0.5434455
v -0.4018083 0.0160529 0.4098093
v -0.2453326 0.4572713 0.2433348
v 0.2957183 0.3199388 0.376971
v 0.2957183 0.3199388 0.376971
v -0.2453326 0.4572713 0.2433348
v -0.1140501 0.509883 -0.2332923
v 0.4270008 0.3725505 -0.09965621
v 0.4270008 0.3725505 -0.09965621
v -0.1140501 0.509883 -0.2332923
v -0.1392433 0.1212763 -0.5434451
v 0.4018076 -0.01605616 -0.4098089
v -0.1392433 0.1212763 -0.5434451
v -0.5410513 0.1373309 -0.1336359
v -0.2957189 -0.3199421 -0.3769705
v 0.4018076 -0.01605616 -0.4098089
v 0.2453319 -0.4572746 -0.2433344
v 0.5410506 -0.1373341 0.1336364
v -0.2957189 -0.3199421 -0.3769705
v -0.5410513 0.1373309 -0.1336359
v -0.4270014 -0.3725538 0.09965666
v 0.2453319 -0.4572746 -0.2433344
v 0.1140494 -0.5098863 0.2332928
v 0.5410506 -0.1373341 0.1336364
v -0.4270014 -0.3725538 0.09965666
v -0.5410513 0.1373309 -0.1336359
v -0.4018083 0.0160529 0.4098093
v 0.1140494 -0.5098863 0.2332928
v 0.1392426 -0.1212796 0.5434455
v 0.5410506 -0.1373341 0.1336364
v -0.4018083 0.0160529 0.4098093
v -0.5410513 0.1373309 -0.1336359
v -0.2453326 0.4572713 0.2433348
v 0.1392426 -0.1212796 0.5434455
v 0.2957183 0.3199388 0.376971
v 0.5410506 -0.1373341 0.1336364
v -0.2453326 0.4572713 0.2433348
v -0.5410513 0.1373309 -0.1336359
v -0.1140501 0.509883 -0.2332923
vt 0.9601128 0.03821433
vt 0.9620767 0.04235756
vt 0.9568191 0.04234207
vt 0.95298 0.2808812
vt 0.9476206 0.2782906
vt 0.9529716 0.2757117
vt 0.5463998 0.03595054
vt 0.5424166 0.03403842
vt 0.5463982 0.03085339
vt 0.9494832 0.3393649
vt 0.9503136 0.3444163
vt 0.9459646 0.3451691
vt 0.9451343 0.3401177
vt 0.07499831 0.04580224
vt 0.069892 0.04624367
vt 0.06951271 0.04180121
vt 0.07461902 0.0413599
vt 0.9597198 0.5998725
vt 0.9597567 0.6052546
vt 0.9551095 0.6052588
vt 0.9550727 0.5998767
vt 0.9652621 0.3146164
vt 0.9652603 0.3197368
vt 0.960848 0.319707
vt 0.9608498 0.3145865
vt 0.9582273 0.3669338
vt 0.963352 0.3669249
vt 0.9633581 0.3713839
vt 0.9582334 0.371393
vt 0.9597567 0.5865767
vt 0.9597198 0.5919588
vt 0.9550727 0.5919546
vt 0.9551095 0.5865725
vt 0.5718657 0.03482234
vt 0.5668078 0.03479815
vt 0.5699818 0.03085339
vt 0.9620767 0.1061255
vt 0.9574696 0.1061233
vt 0.9597985 0.101294
vt 0.8433313 0.03706193
vt 0.8385843 0.03477108
vt 0.8433182 0.03247297
vt 0.3361831 0.03378582
vt 0.3342895 0.02979302
vt 0.3393848 0.02979553
vt 0.5543198 0.03085339
vt 0.5588941 0.03305924
vt 0.5543135 0.0352881
vt 0.02852122 0.04023862
vt 0.03315756 0.0424819
vt 0.02852857 0.04621315
vt 0.9652621 0.2884098
vt 0.9652301 0.2937558
vt 0.9610876 0.2903675
vt 0.3518486 0.02979302
vt 0.3518585 0.03419018
vt 0.3472985 0.03201234
vt 0.3217711 0.02979302
vt 0.3263758 0.03199995
vt 0.3217827 0.03421581
vn 0.8996372 0.3313398 0.284371
vn 0.8996372 0.3313398 0.284371
vn 0.8996372 0.3313398 0.284371
vn -0.5981676 0.5232237 -0.6069865
vn -0.5981676 0.5232237 -0.6069865
vn -0.5981676 0.5232237 -0.6069865
vn 0.9681641 0.1147762 -0.2224515
vn 0.9681641 0.1147762 -0.2224515
vn 0.9681641 0.1147762 -0.2224515
vn 0.1265862 -0.3891593 -0.9124313
vn 0.1265862 -0.3891593 -0.9124313
vn 0.1265862 -0.3891593 -0.9124313
vn 0.1265862 -0.3891593 -0.9124313
vn -0.2047394 -0.9651608 -0.1629312
vn -0.2047394 -0.9651608 -0.1629312
vn -0.2047394 -0.9651608 -0.1629312
vn -0.2047394 -0.9651608 -0.1629312
vn -0.3308043 -0.5754823 0.7479229
vn -0.3308043 -0.5754823 0.7479229
vn -0.3308043 -0.5754823 0.7479229
vn -0.3308043 -0.5754823 0.7479229
vn -0.1265862 0.3891593 0.9124313
vn -0.1265862 0.3891593 0.9124313
vn -0.1265862 0.3891593 0.9124313
vn -0.1265862 0.3891593 0.9124313
vn 0.2047394 0.9651608 0.1629312
vn 0.2047394 0.9651608 0.1629312
vn 0.2047394 0.9651608 0.1629312
vn 0.2047394 0.9651608 0.1629312
vn 0.3308043 0.5754823 -0.7479229
vn 0.3308043 0.5754823 -0.7479229
vn 0.3308043 0.5754823 -0.7479229
vn 0.3308043 0.5754823 -0.7479229
vn -0.7142123 -0.010765 -0.6998463
vn -0.7142123 -0.010765 -0.6998463
vn -0.7142123 -0.010765 -0.6998463
vn 0.8521927 -0.419973 -0.3120743
vn 0.8521927 -0.419973 -0.3120743
vn 0.8521927 -0.419973 -0.3120743
vn -0.8996372 -0.3313398 -0.284371
vn -0.8996372 -0.3313398 -0.284371
vn -0.8996372 -0.3313398 -0.284371
vn 0.6674383 -0.7375877 0.1024222
vn 0.6674383 -0.7375877 0.1024222
vn 0.6674383 -0.7375877 0.1024222
vn -0.9681641 -0.1147762 0.2224515
vn -0.9681641 -0.1147762 0.2224515
vn -0.9681641 -0.1147762 0.2224515
vn 0.5981676 -0.5232237 0.6069865
vn 0.5981676 -0.5232237 0.6069865
vn 0.5981676 -0.5232237 0.6069865
vn -0.8521927 0.419973 0.3120743
vn -0.8521927 0.419973 0.3120743
vn -0.8521927 0.419973 0.3120743
vn 0.7142123 0.010765 0.6998463
vn 0.7142123 0.010765 0.6998463
vn 0.7142123 0.010765 0.6998463
vn -0.6674383 0.7375877 -0.1024222
vn -0.6674383 0.7375877 -0.1024222
vn -0.6674383 0.7375877 -0.1024222
g ball3_0
f 3/3/3 2/2/2 1/1/1
f 6/6/6 5/5/5 4/4/4
f 9/9/9 8/8/8 7/7/7
f 12/12/12 11/11/11 10/10/10
f 13/13/13 12/12/12 10/10/10
f 16/16/16 15/15/15 14/14/14
f 17/17/17 16/16/16 14/14/14
f 20/20/20 19/19/19 18/18/18
f 21/21/21 20/20/20 18/18/18
f 24/24/24 23/23/23 22/22/22
f 25/25/25 24/24/24 22/22/22
f 28/28/28 27/27/27 26/26/26
f 29/29/29 28/28/28 26/26/26
f 32/32/32 31/31/31 30/30/30
f 33/33/33 32/32/32 30/30/30
f 36/36/36 35/35/35 34/34/34
f 39/39/39 38/38/38 37/37/37
f 42/42/42 41/41/41 40/40/40
f 45/45/45 44/44/44 43/43/43
f 48/48/48 47/47/47 46/46/46
f 51/51/51 50/50/50 49/49/49
f 54/54/54 53/53/53 52/52/52
f 57/57/57 56/56/56 55/55/55
f 60/60/60 59/59/59 58/58/58
