g ball6
v 1.411428 0.001853254 -0.00644515
v 1.526768 -0.01225371 0.4798651
v 0.7653006 1.359633 0.2941415
v 0.7704461 1.15667 -0.1627822
v 0.9324263 0.004500499 -0.1497995
v 1.411428 0.001853254 -0.00644515
v 0.7704461 1.15667 -0.1627822
v 0.5324152 0.7251754 -0.2473632
v -0.5036981 1.163711 -0.5441046
v -0.2627275 0.7295699 -0.4853313
v -1.13686 0.01593659 -0.7690902
v -0.6578588 0.01328935 -0.6257358
v -0.4958786 -1.13888 -0.6127532
v -0.2578477 -0.7073855 -0.5281721
v 0.7782656 -1.145921 -0.2314306
v 0.537295 -0.71178 -0.290204
v 0.5687646 -0.006959217 0.1931565
v 0.9324263 0.004500499 -0.1497995
v 0.5324152 0.7251754 -0.2473632
v 0.2892387 0.4966449 0.1249795
v 0.6841044 -0.02106618 0.6794668
v 0.5687646 -0.006959217 0.1931565
v 0.2892387 0.4966449 0.1249795
v 0.2840933 0.6996087 0.5819031
v 1.163106 -0.02371342 0.8228211
v 0.6841044 -0.02106618 0.6794668
v 0.2840933 0.6996087 0.5819031
v 0.5221242 1.131103 0.6664841
v -0.5110494 0.7040032 0.3439349
v -0.75202 1.138145 0.2851616
v -0.9061808 -0.01227733 0.2035304
v -1.385182 -0.009630082 0.06017613
v -0.5061696 -0.7329522 0.3010941
v -0.7442005 -1.164446 0.2165131
v 0.2889731 -0.7373466 0.5390623
v 0.5299437 -1.171488 0.5978357
v 1.526768 -0.01225371 0.4798651
v 1.163106 -0.02371342 0.8228211
v 0.5221242 1.131103 0.6664841
v 0.7653006 1.359633 0.2941415
v 0.7704461 1.15667 -0.1627822
v 0.7653006 1.359633 0.2941415
v -0.7483443 1.367999 -0.1588582
v -0.5036981 1.163711 -0.5441046
v 0.2892387 0.4966449 0.1249795
v 0.5324152 0.7251754 -0.2473632
v -0.2627275 0.7295699 -0.4853313
v -0.2664031 0.4997157 -0.04131155
v 0.2840933 0.6996087 0.5819031
v 0.2892387 0.4966449 0.1249795
v -0.2664031 0.4997157 -0.04131155
v -0.5110494 0.7040032 0.3439349
v 0.7653006 1.359633 0.2941415
v 0.5221242 1.131103 0.6664841
v -0.75202 1.138145 0.2851616
v -0.7483443 1.367999 -0.1588582
v -0.5036981 1.163711 -0.5441046
v -0.7483443 1.367999 -0.1588582
v -1.500522 0.004476878 -0.4261342
v -1.13686 0.01593659 -0.7690902
v -0.2664031 0.4997157 -0.04131155
v -0.2627275 0.7295699 -0.4853313
v -0.6578588 0.01328935 -0.6257358
v -0.542519 -0.0008176104 -0.1394255
v -0.5110494 0.7040032 0.3439349
v -0.2664031 0.4997157 -0.04131155
v -0.542519 -0.0008176104 -0.1394255
v -0.9061808 -0.01227733 0.2035304
v -0.7483443 1.367999 -0.1588582
v -0.75202 1.138145 0.2851616
v -1.385182 -0.009630082 0.06017613
v -1.500522 0.004476878 -0.4261342
v -1.13686 0.01593659 -0.7690902
v -1.500522 0.004476878 -0.4261342
v -0.7390551 -1.36741 -0.2404105
v -0.4958786 -1.13888 -0.6127532
v -0.542519 -0.0008176104 -0.1394255
v -0.6578588 0.01328935 -0.6257358
v -0.2578477 -0.7073855 -0.5281721
v -0.2629931 -0.5044218 -0.07124848
v -0.9061808 -0.01227733 0.2035304
v -0.542519 -0.0008176104 -0.1394255
v -0.2629931 -0.5044218 -0.07124848
v -0.5061696 -0.7329522 0.3010941
v -1.500522 0.004476878 -0.4261342
v -1.385182 -0.009630082 0.06017613
v -0.7442005 -1.164446 0.2165131
v -0.7390551 -1.36741 -0.2404105
v -0.4958786 -1.13888 -0.6127532
v -0.7390551 -1.36741 -0.2404105
v 0.77459 -1.375776 0.2125892
v 0.7782656 -1.145921 -0.2314306
v -0.2629931 -0.5044218 -0.07124848
v -0.2578477 -0.7073855 -0.5281721
v 0.537295 -0.71178 -0.290204
v 0.2926487 -0.5074925 0.09504253
v -0.5061696 -0.7329522 0.3010941
v -0.2629931 -0.5044218 -0.07124848
v 0.2926487 -0.5074925 0.09504253
v 0.2889731 -0.7373466 0.5390623
v -0.7390551 -1.36741 -0.2404105
v -0.7442005 -1.164446 0.2165131
v 0.5299437 -1.171488 0.5978357
v 0.77459 -1.375776 0.2125892
v 0.7782656 -1.145921 -0.2314306
v 0.77459 -1.375776 0.2125892
v 1.526768 -0.01225371 0.4798651
v 1.411428 0.001853254 -0.00644515
v 0.2926487 -0.5074925 0.09504253
v 0.537295 -0.71178 -0.290204
v 0.9324263 0.004500499 -0.1497995
v 0.5687646 -0.006959217 0.1931565
v 0.2889731 -0.7373466 0.5390623
v 0.2926487 -0.5074925 0.09504253
v 0.5687646 -0.006959217 0.1931565
v 0.6841044 -0.02106618 0.6794668
v 0.77459 -1.375776 0.2125892
v 0.5299437 -1.171488 0.5978357
v 1.163106 -0.02371342 0.8228211
v 1.526768 -0.01225371 0.4798651
vt 0.8854044 0.4760783
vt 0.8842826 0.4717122
vt 0.8984672 0.4717134
vt 0.8973445 0.4760793
vt 0.547072 0.3390137
vt 0.5514784 0.3389903
vt 0.5456716 0.3492184
vt 0.5434482 0.3453966
vt 0.5339506 0.3492807
vt 0.5361336 0.3454356
vt 0.5280364 0.339115
vt 0.5324427 0.3390915
vt 0.5338431 0.328887
vt 0.5360665 0.3327086
vt 0.5455641 0.3288246
vt 0.5433811 0.3326699
vt 0.9278566 0.5272645
vt 0.932586 0.5260649
vt 0.9325426 0.5341988
vt 0.9278262 0.5329484
vt 0.7619665 0.0555073
vt 0.7608439 0.05987358
vt 0.7556368 0.05987513
vt 0.7545151 0.05550945
vt 0.6553808 0.4874443
vt 0.6592086 0.4852613
vt 0.6655383 0.4889772
vt 0.6655236 0.4933985
vt 0.6718925 0.4853536
vt 0.6757056 0.4875921
vt 0.6719168 0.4780141
vt 0.6757446 0.4758312
vt 0.6655871 0.4742982
vt 0.6656018 0.4698769
vt 0.659233 0.4779218
vt 0.6554199 0.4756833
vt 0.6127342 0.666766
vt 0.6175725 0.6673867
vt 0.6191902 0.6803175
vt 0.6146561 0.6821276
vt 0.8434981 0.7182604
vt 0.8477979 0.7171509
vt 0.8477803 0.7312434
vt 0.8434833 0.730123
vt 0.9319966 0.3684988
vt 0.9361554 0.3669249
vt 0.9369432 0.3742906
vt 0.9325472 0.373646
vt 0.9305777 0.4157561
vt 0.9349721 0.4163872
vt 0.9355375 0.4215286
vt 0.9313866 0.4231136
vt 0.6148663 0.7260271
vt 0.6191701 0.7271356
vt 0.6191902 0.7390076
vt 0.6148902 0.7401308
vt 0.2960982 0.2992101
vt 0.2913876 0.3008152
vt 0.2902298 0.2850728
vt 0.2951236 0.2859586
vt 0.849969 0.99096
vt 0.8511901 0.9953251
vt 0.8436974 0.9954898
vt 0.8447331 0.9910751
vt 0.8220109 0.07643723
vt 0.8171928 0.07519925
vt 0.8171797 0.06940413
vt 0.821992 0.06814432
vt 0.6856903 0.6035168
vt 0.6868178 0.5991254
vt 0.6988267 0.5991222
vt 0.6999565 0.6035131
vt 0.8596847 0.6539986
vt 0.8549553 0.6551982
vt 0.8550379 0.6397143
vt 0.8597542 0.6409646
vt 0.7762098 0.05550766
vt 0.7773316 0.05987382
vt 0.7698802 0.05987322
vt 0.7710028 0.0555073
vt 0.8100473 0.6375601
vt 0.805209 0.6369396
vt 0.8045035 0.6313006
vt 0.8090377 0.6294904
vt 0.6837311 0.3550333
vt 0.6848538 0.3506671
vt 0.6967941 0.3506635
vt 0.6979158 0.3550292
vt 0.892435 0.3695154
vt 0.8882763 0.3710893
vt 0.8867764 0.3570677
vt 0.8911725 0.3577124
vt 0.9453651 0.6432727
vt 0.9410652 0.6443822
vt 0.9410744 0.6369792
vt 0.9453716 0.6380995
vt 0.9453716 0.6597048
vt 0.9410678 0.6585963
vt 0.941059 0.6534191
vt 0.9453589 0.6522959
vt 0.3199595 0.2409958
vt 0.315565 0.2403647
vt 0.3142688 0.2285749
vt 0.3184196 0.2269899
vt 0.8825374 0.9953841
vt 0.8813162 0.991019
vt 0.8955796 0.9907053
vt 0.8945439 0.99512
vt 0.3964804 0.07920158
vt 0.4011911 0.07759643
vt 0.4017992 0.08586621
vt 0.3969054 0.08498049
vt 0.7466013 0.0555073
vt 0.7454738 0.05989861
vt 0.7402369 0.05990016
vt 0.7391071 0.05550933
vt 0.8051991 0.6454738
vt 0.8100172 0.6467118
vt 0.8100473 0.6600004
vt 0.8052349 0.6612604
vn 0.8687809 0.4561139 -0.1928207
vn 0.8687809 0.4561139 -0.1928207
vn 0.8687809 0.4561139 -0.1928207
vn 0.8687809 0.4561139 -0.1928207
vn 0.2867374 0.02952186 -0.9575542
vn 0.2867374 0.02952186 -0.9575542
vn 0.2867374 0.02952186 -0.9575542
vn 0.2867374 0.02952186 -0.9575542
vn 0.2867374 0.02952186 -0.9575542
vn 0.2867374 0.02952186 -0.9575542
vn 0.2867374 0.02952186 -0.9575542
vn 0.2867374 0.02952186 -0.9575542
vn 0.2867374 0.02952186 -0.9575542
vn 0.2867374 0.02952186 -0.9575542
vn 0.2867374 0.02952186 -0.9575542
vn 0.2867374 0.02952186 -0.9575542
vn -0.6123152 -0.4297087 -0.6636419
vn -0.6123152 -0.4297087 -0.6636419
vn -0.6123152 -0.4297087 -0.6636419
vn -0.6123152 -0.4297087 -0.6636419
vn -0.8687809 -0.4561139 0.1928207
vn -0.8687809 -0.4561139 0.1928207
vn -0.8687809 -0.4561139 0.1928207
vn -0.8687809 -0.4561139 0.1928207
vn -0.2867374 -0.02952186 0.9575542
vn -0.2867374 -0.02952186 0.9575542
vn -0.2867374 -0.02952186 0.9575542
vn -0.2867374 -0.02952186 0.9575542
vn -0.2867374 -0.02952186 0.9575542
vn -0.2867374 -0.02952186 0.9575542
vn -0.2867374 -0.02952186 0.9575542
vn -0.2867374 -0.02952186 0.9575542
vn -0.2867374 -0.02952186 0.9575542
vn -0.2867374 -0.02952186 0.9575542
vn -0.2867374 -0.02952186 0.9575542
vn -0.2867374 -0.02952186 0.9575542
vn 0.6123152 0.4297087 0.6636419
vn 0.6123152 0.4297087 0.6636419
vn 0.6123152 0.4297087 0.6636419
vn 0.6123152 0.4297087 0.6636419
vn 0.1251968 0.9072274 -0.4015772
vn 0.1251968 0.9072274 -0.4015772
vn 0.1251968 0.9072274 -0.4015772
vn 0.1251968 0.9072274 -0.4015772
vn 0.1312689 -0.8808222 -0.4548853
vn 0.1312689 -0.8808222 -0.4548853
vn 0.1312689 -0.8808222 -0.4548853
vn 0.1312689 -0.8808222 -0.4548853
vn -0.1251968 -0.9072274 0.4015772
vn -0.1251968 -0.9072274 0.4015772
vn -0.1251968 -0.9072274 0.4015772
vn -0.1251968 -0.9072274 0.4015772
vn -0.1312689 0.8808222 0.4548853
vn -0.1312689 0.8808222 0.4548853
vn -0.1312689 0.8808222 0.4548853
vn -0.1312689 0.8808222 0.4548853
vn -0.6153512 0.4643161 -0.6369878
vn -0.6153512 0.4643161 -0.6369878
vn -0.6153512 0.4643161 -0.6369878
vn -0.6153512 0.4643161 -0.6369878
vn 0.871817 -0.4379109 -0.2194747
vn 0.871817 -0.4379109 -0.2194747
vn 0.871817 -0.4379109 -0.2194747
vn 0.871817 -0.4379109 -0.2194747
vn 0.6153512 -0.4643161 0.6369878
vn 0.6153512 -0.4643161 0.6369878
vn 0.6153512 -0.4643161 0.6369878
vn 0.6153512 -0.4643161 0.6369878
vn -0.871817 0.4379109 0.2194747
vn -0.871817 0.4379109 0.2194747
vn -0.871817 0.4379109 0.2194747
vn -0.871817 0.4379109 0.2194747
vn -0.6123152 -0.4297087 -0.6636419
vn -0.6123152 -0.4297087 -0.6636419
vn -0.6123152 -0.4297087 -0.6636419
vn -0.6123152 -0.4297087 -0.6636419
vn 0.8687809 0.4561139 -0.1928207
vn 0.8687809 0.4561139 -0.1928207
vn 0.8687809 0.4561139 -0.1928207
vn 0.8687809 0.4561139 -0.1928207
vn 0.6123152 0.4297087 0.6636419
vn 0.6123152 0.4297087 0.6636419
vn 0.6123152 0.4297087 0.6636419
vn 0.6123152 0.4297087 0.6636419
vn -0.8687809 -0.4561139 0.1928207
vn -0.8687809 -0.4561139 0.1928207
vn -0.8687809 -0.4561139 0.1928207
vn -0.8687809 -0.4561139 0.1928207
vn 0.1312689 -0.8808222 -0.4548853
vn 0.1312689 -0.8808222 -0.4548853
vn 0.1312689 -0.8808222 -0.4548853
vn 0.1312689 -0.8808222 -0.4548853
vn 0.1251968 0.9072274 -0.4015772
vn 0.1251968 0.9072274 -0.4015772
vn 0.1251968 0.9072274 -0.4015772
vn 0.1251968 0.9072274 -0.4015772
vn -0.1312689 0.8808222 0.4548853
vn -0.1312689 0.8808222 0.4548853
vn -0.1312689 0.8808222 0.4548853
vn -0.1312689 0.8808222 0.4548853
vn -0.1251968 -0.9072274 0.4015772
vn -0.1251968 -0.9072274 0.4015772
vn -0.1251968 -0.9072274 0.4015772
vn -0.1251968 -0.9072274 0.4015772
vn 0.871817 -0.4379109 -0.2194747
vn 0.871817 -0.4379109 -0.2194747
vn 0.871817 -0.4379109 -0.2194747
vn 0.871817 -0.4379109 -0.2194747
vn -0.6153512 0.4643161 -0.6369878
vn -0.6153512 0.4643161 -0.6369878
vn -0.6153512 0.4643161 -0.6369878
vn -0.6153512 0.4643161 -0.6369878
vn -0.871817 0.4379109 0.2194747
vn -0.871817 0.4379109 0.2194747
vn -0.871817 0.4379109 0.2194747
vn -0.871817 0.4379109 0.2194747
vn 0.6153512 -0.4643161 0.6369878
vn 0.6153512 -0.4643161 0.6369878
vn 0.6153512 -0.4643161 0.6369878
vn 0.6153512 -0.4643161 0.6369878
g ball6_0
f 3/3/3 2/2/2 1/1/1
f 4/4/4 3/3/3 1/1/1
f 7/7/7 6/6/6 5/5/5
f 8/8/8 7/7/7 5/5/5
f 9/9/9 7/7/7 8/8/8
f 10/10/10 9/9/9 8/8/8
f 11/11/11 9/9/9 10/10/10
f 12/12/12 11/11/11 10/10/10
f 13/13/13 11/11/11 12/12/12
f 14/14/14 13/13/13 12/12/12
f 15/15/15 13/13/13 14/14/14
f 16/16/16 15/15/15 14/14/14
f 6/6/6 15/15/15 16/16/16
f 5/5/5 6/6/6 16/16/16
f 19/19/19 18/18/18 17/17/17
f 20/20/20 19/19/19 17/17/17
f 23/23/23 22/22/22 21/21/21
f 24/24/24 23/23/23 21/21/21
f 27/27/27 26/26/26 25/25/25
f 28/28/28 27/27/27 25/25/25
f 29/29/29 27/27/27 28/28/28
f 30/30/30 29/29/29 28/28/28
f 31/31/31 29/29/29 30/30/30
f 32/32/32 31/31/31 30/30/30
f 33/33/33 31/31/31 32/32/32
f 34/34/34 33/33/33 32/32/32
f 35/35/35 33/33/33 34/34/34
f 36/36/36 35/35/35 34/34/34
f 26/26/26 35/35/35 36/36/36
f 25/25/25 26/26/26 36/36/36
f 39/39/39 38/38/38 37/37/37
f 40/40/40 39/39/39 37/37/37
f 43/43/43 42/42/42 41/41/41
f 44/44/44 43/43/43 41/41/41
f 47/47/47 46/46/46 45/45/45
f 48/48/48 47/47/47 45/45/45
f 51/51/51 50/50/50 49/49/49
f 52/52/52 51/51/51 49/49/49
f 55/55/55 54/54/54 53/53/53
f 56/56/56 55/55/55 53/53/53
f 59/59/59 58/58/58 57/57/57
f 60/60/60 59/59/59 57/57/57
f 63/63/63 62/62/62 61/61/61
f 64/64/64 63/63/63 61/61/61
f 67/67/67 66/66/66 65/65/65
f 68/68/68 67/67/67 65/65/65
f 71/71/71 70/70/70 69/69/69
f 72/72/72 71/71/71 69/69/69
f 75/75/75 74/74/74 73/73/73
f 76/76/76 75/75/75 73/73/73
f 79/79/79 78/78/78 77/77/77
f 80/80/80 79/79/79 77/77/77
f 83/83/83 82/82/82 81/81/81
f 84/84/84 83/83/83 81/81/81
f 87/87/87 86/86/86 85/85/85
f 88/88/88 87/87/87 85/85/85
f 91/91/91 90/90/90 89/89/89
f 92/92/92 91/91/91 89/89/89
f 95/95/95 94/94/94 93/93/93
f 96/96/96 95/95/95 93/93/93
f 99/99/99 98/98/98 97/97/97
f 100/100/100 99/99/99 97/97/97
f 103/103/103 102/102/102 101/101/101
f 104/104/104 103/103/103 101/101/101
f 107/107/107 106/106/106 105/105/105
f 108/108/108 107/107/107 105/105/105
f 111/111/111 110/110/110 109/109/109
f 112/112/112 111/111/111 109/109/109
f 115/115/115 114/114/114 113/113/113
f 116/116/116 115/115/115 113/113/113
f 119/119/119 118/118/118 117/117/117
f 120/120/120 119/119/119 117/117/117
