g ball5
v -0.4138747 0.2343002 -0.3450663
v -0.5421914 -0.1839854 -0.1012133
v -0.1324703 -0.2450798 -0.5048457
v -0.5421914 -0.1839854 -0.1012133
v -0.4162523 0.07099125 0.4024228
v -0.07187829 -0.2809004 0.4944614
v -0.1978175 -0.535877 -0.009174685
v -0.1978175 -0.535877 -0.009174685
v -0.07187829 -0.2809004 0.4944614
v 0.4008125 -0.2145065 0.3426471
v 0.2748733 -0.4694831 -0.160989
v 0.2748733 -0.4694831 -0.160989
v 0.4008125 -0.2145065 0.3426471
v 0.5291293 0.2037791 0.09879413
v 0.4031901 -0.0511975 -0.404842
v 0.4031901 -0.0511975 -0.404842
v 0.5291293 0.2037791 0.09879413
v 0.1847553 0.5556708 0.006755495
v 0.05881608 0.3006942 -0.4968806
v 0.05881608 0.3006942 -0.4968806
v 0.1847553 0.5556708 0.006755495
v -0.2879355 0.4892769 0.1585698
v -0.4138747 0.2343002 -0.3450663
v -0.4138747 0.2343002 -0.3450663
v -0.2879355 0.4892769 0.1585698
v -0.4162523 0.07099125 0.4024228
v -0.5421914 -0.1839854 -0.1012133
v -0.4162523 0.07099125 0.4024228
v 0.1194081 0.2648735 0.5024265
v -0.07187829 -0.2809004 0.4944614
v -0.5421914 -0.1839854 -0.1012133
v -0.1978175 -0.535877 -0.009174685
v -0.1324703 -0.2450798 -0.5048457
v -0.07187829 -0.2809004 0.4944614
v 0.1194081 0.2648735 0.5024265
v 0.4008125 -0.2145065 0.3426471
v -0.1978175 -0.535877 -0.009174685
v 0.2748733 -0.4694831 -0.160989
v -0.1324703 -0.2450798 -0.5048457
v 0.4008125 -0.2145065 0.3426471
v 0.1194081 0.2648735 0.5024265
v 0.5291293 0.2037791 0.09879413
v 0.2748733 -0.4694831 -0.160989
v 0.4031901 -0.0511975 -0.404842
v -0.1324703 -0.2450798 -0.5048457
v 0.5291293 0.2037791 0.09879413
v 0.1194081 0.2648735 0.5024265
v 0.1847553 0.5556708 0.006755495
v 0.4031901 -0.0511975 -0.404842
v 0.05881608 0.3006942 -0.4968806
v -0.1324703 -0.2450798 -0.5048457
v 0.1847553 0.5556708 0.006755495
v 0.1194081 0.2648735 0.5024265
v -0.2879355 0.4892769 0.1585698
v 0.05881608 0.3006942 -0.4968806
v -0.4138747 0.2343002 -0.3450663
v -0.1324703 -0.2450798 -0.5048457
v -0.2879355 0.4892769 0.1585698
v 0.1194081 0.2648735 0.5024265
v -0.4162523 0.07099125 0.4024228
vt 0.4371369 0.0367744
vt 0.4330908 0.0348208
vt 0.437138 0.0315671
vt 0.9410508 0.5766028
vt 0.9407366 0.5708607
vt 0.9456873 0.5705841
vt 0.9460015 0.576326
vt 0.7466031 0.5360063
vt 0.7413423 0.5360184
vt 0.7413318 0.5314419
vt 0.7465925 0.5314296
vt 0.9608392 0.3327938
vt 0.9608244 0.3276634
vt 0.9652473 0.3276505
vt 0.9652621 0.3327808
vt 0.4070646 0.05043912
vt 0.4070687 0.04468811
vt 0.4120267 0.04469156
vt 0.4120227 0.0504427
vt 0.447553 0.04476643
vt 0.4527996 0.04437363
vt 0.4531351 0.04893744
vt 0.4478885 0.04933023
vt 0.9652532 0.3451691
vt 0.9601451 0.3451498
vt 0.9601541 0.3407074
vt 0.9652621 0.3407269
vt 0.2819909 0.03091764
vt 0.2798034 0.03554928
vt 0.2775714 0.0309391
vt 0.6126968 0.04251647
vt 0.6172025 0.04033077
vt 0.6172143 0.04613471
vt 0.9692484 0.8471444
vt 0.9692613 0.8523034
vt 0.9652442 0.8490892
vt 0.2918291 0.03492641
vt 0.2899046 0.03093326
vt 0.2950043 0.03091764
vt 0.4205028 0.03226471
vt 0.4251771 0.03451586
vt 0.4205064 0.0367744
vt 0.9578362 0.1413188
vt 0.9620619 0.1392654
vt 0.9620767 0.1447104
vt 0.7569629 0.04758024
vt 0.7594784 0.04235542
vt 0.7619665 0.04759359
vt 0.1017454 0.02859414
vt 0.101724 0.03303373
vt 0.09713472 0.03079152
vt 0.3031602 0.03228247
vt 0.307151 0.02909291
vt 0.3071353 0.03421581
vt 0.05972434 0.03232491
vt 0.05527673 0.03231096
vt 0.05751495 0.02766764
vt 0.9573825 0.1313361
vt 0.9597458 0.126436
vt 0.9620767 0.1313517
vn -0.7035834 -0.184267 -0.686306
vn -0.7035834 -0.184267 -0.686306
vn -0.7035834 -0.184267 -0.686306
vn -0.6927485 -0.5586635 0.4560641
vn -0.6927485 -0.5586635 0.4560641
vn -0.6927485 -0.5586635 0.4560641
vn -0.6927485 -0.5586635 0.4560641
vn 0.2490374 -0.8877413 0.3871639
vn 0.2490374 -0.8877413 0.3871639
vn 0.2490374 -0.8877413 0.3871639
vn 0.2490374 -0.8877413 0.3871639
vn 0.9417859 -0.3290777 -0.06890019
vn 0.9417859 -0.3290777 -0.06890019
vn 0.9417859 -0.3290777 -0.06890019
vn 0.9417859 -0.3290777 -0.06890019
vn 0.6927485 0.5586635 -0.4560641
vn 0.6927485 0.5586635 -0.4560641
vn 0.6927485 0.5586635 -0.4560641
vn 0.6927485 0.5586635 -0.4560641
vn -0.2490374 0.8877413 -0.3871639
vn -0.2490374 0.8877413 -0.3871639
vn -0.2490374 0.8877413 -0.3871639
vn -0.2490374 0.8877413 -0.3871639
vn -0.9417859 0.3290777 0.06890019
vn -0.9417859 0.3290777 0.06890019
vn -0.9417859 0.3290777 0.06890019
vn -0.9417859 0.3290777 0.06890019
vn -0.2030931 0.05691558 0.9775038
vn -0.2030931 0.05691558 0.9775038
vn -0.2030931 0.05691558 0.9775038
vn -0.5654423 -0.6766972 -0.4715462
vn -0.5654423 -0.6766972 -0.4715462
vn -0.5654423 -0.6766972 -0.4715462
vn 0.3193157 -0.1256238 0.9392849
vn 0.3193157 -0.1256238 0.9392849
vn 0.3193157 -0.1256238 0.9392849
vn -0.04303352 -0.8592367 -0.5097651
vn -0.04303352 -0.8592367 -0.5097651
vn -0.04303352 -0.8592367 -0.5097651
vn 0.7035834 0.184267 0.686306
vn 0.7035834 0.184267 0.686306
vn 0.7035834 0.184267 0.686306
vn 0.3412342 -0.5493459 -0.762744
vn 0.3412342 -0.5493459 -0.762744
vn 0.3412342 -0.5493459 -0.762744
vn 0.5654423 0.6766972 0.4715462
vn 0.5654423 0.6766972 0.4715462
vn 0.5654423 0.6766972 0.4715462
vn 0.2030931 -0.05691558 -0.9775038
vn 0.2030931 -0.05691558 -0.9775038
vn 0.2030931 -0.05691558 -0.9775038
vn 0.04303352 0.8592367 0.5097651
vn 0.04303352 0.8592367 0.5097651
vn 0.04303352 0.8592367 0.5097651
vn -0.3193157 0.1256238 -0.9392849
vn -0.3193157 0.1256238 -0.9392849
vn -0.3193157 0.1256238 -0.9392849
vn -0.3412342 0.5493459 0.762744
vn -0.3412342 0.5493459 0.762744
vn -0.3412342 0.5493459 0.762744
g ball5_0
f 3/3/3 2/2/2 1/1/1
f 6/6/6 5/5/5 4/4/4
f 7/7/7 6/6/6 4/4/4
f 10/10/10 9/9/9 8/8/8
f 11/11/11 10/10/10 8/8/8
f 14/14/14 13/13/13 12/12/12
f 15/15/15 14/14/14 12/12/12
f 18/18/18 17/17/17 16/16/16
f 19/19/19 18/18/18 16/16/16
f 22/22/22 21/21/21 20/20/20
f 23/23/23 22/22/22 20/20/20
f 26/26/26 25/25/25 24/24/24
f 27/27/27 26/26/26 24/24/24
f 30/30/30 29/29/29 28/28/28
f 33/33/33 32/32/32 31/31/31
f 36/36/36 35/35/35 34/34/34
f 39/39/39 38/38/38 37/37/37
f 42/42/42 41/41/41 40/40/40
f 45/45/45 44/44/44 43/43/43
f 48/48/48 47/47/47 46/46/46
f 51/51/51 50/50/50 49/49/49
f 54/54/54 53/53/53 52/52/52
f 57/57/57 56/56/56 55/55/55
f 60/60/60 59/59/59 58/58/58
