g ball4
v 0.1363619 0.5967428 -0.5096244
v -0.4665441 0.1219739 -0.6443937
v -0.04601068 -0.4051473 -0.6687418
v 0.5568954 0.06962159 -0.5339725
v 0.5568954 0.06962159 -0.5339725
v -0.04601068 -0.4051473 -0.6687418
v 0.09814334 -0.7480193 -0.105753
v 0.7010493 -0.2732504 0.02901633
v 0.7010493 -0.2732504 0.02901633
v 0.09814334 -0.7480193 -0.105753
v -0.1782361 -0.5637701 0.4815839
v 0.42467 -0.08900116 0.6163532
v 0.42467 -0.08900116 0.6163532
v -0.1782361 -0.5637701 0.4815839
v -0.5987695 -0.03664886 0.5059319
v 0.004136502 0.4381201 0.6407013
v 0.004136502 0.4381201 0.6407013
v -0.5987695 -0.03664886 0.5059319
v -0.7429236 0.3062231 -0.05705688
v -0.1400175 0.780992 0.07771247
v -0.1400175 0.780992 0.07771247
v -0.7429236 0.3062231 -0.05705688
v -0.4665441 0.1219739 -0.6443937
v 0.1363619 0.5967428 -0.5096244
v -0.4665441 0.1219739 -0.6443937
v -0.6238431 -0.4582825 -0.1487896
v -0.04601068 -0.4051473 -0.6687418
v 0.1363619 0.5967428 -0.5096244
v 0.5568954 0.06962159 -0.5339725
v 0.581969 0.4912553 0.1207491
v -0.04601068 -0.4051473 -0.6687418
v -0.6238431 -0.4582825 -0.1487896
v 0.09814334 -0.7480193 -0.105753
v 0.5568954 0.06962159 -0.5339725
v 0.7010493 -0.2732504 0.02901633
v 0.581969 0.4912553 0.1207491
v 0.09814334 -0.7480193 -0.105753
v -0.6238431 -0.4582825 -0.1487896
v -0.1782361 -0.5637701 0.4815839
v 0.7010493 -0.2732504 0.02901633
v 0.42467 -0.08900116 0.6163532
v 0.581969 0.4912553 0.1207491
v -0.1782361 -0.5637701 0.4815839
v -0.6238431 -0.4582825 -0.1487896
v -0.5987695 -0.03664886 0.5059319
v 0.42467 -0.08900116 0.6163532
v 0.004136502 0.4381201 0.6407013
v 0.581969 0.4912553 0.1207491
v -0.5987695 -0.03664886 0.5059319
v -0.6238431 -0.4582825 -0.1487896
v -0.7429236 0.3062231 -0.05705688
v 0.004136502 0.4381201 0.6407013
v -0.1400175 0.780992 0.07771247
v 0.581969 0.4912553 0.1207491
v -0.7429236 0.3062231 -0.05705688
v -0.6238431 -0.4582825 -0.1487896
v -0.4665441 0.1219739 -0.6443937
v -0.1400175 0.780992 0.07771247
v 0.1363619 0.5967428 -0.5096244
v 0.581969 0.4912553 0.1207491
vt 0.9309808 0.7598506
vt 0.9309689 0.7667899
vt 0.9249865 0.7667795
vt 0.9249985 0.7598403
vt 0.9007636 0.9296688
vt 0.8927191 0.9300897
vt 0.8923611 0.9230919
vt 0.9004055 0.922671
vt 0.6547309 0.1022148
vt 0.6470039 0.1025549
vt 0.6467154 0.09583342
vt 0.6544423 0.09549332
vt 0.9240617 0.745917
vt 0.9309697 0.7459061
vt 0.9309808 0.7519156
vt 0.9240729 0.7519265
vt 0.6083553 0.09554756
vt 0.6164103 0.09552455
vt 0.6164301 0.1025319
vt 0.6083752 0.1025549
vt 0.4453999 0.08688164
vt 0.4531339 0.08688009
vt 0.4531351 0.09360838
vt 0.4454012 0.09360981
vt 0.6854762 0.08655548
vt 0.6786171 0.08324623
vt 0.6854756 0.07993591
vt 0.9193754 0.1085451
vt 0.9128836 0.1085176
vt 0.916158 0.1017438
vt 0.9250962 0.2757117
vt 0.9219811 0.2822623
vt 0.9188375 0.2757255
vt 0.9291181 0.2429843
vt 0.9237006 0.2403733
vt 0.9291147 0.2360145
vt 0.9338519 0.4971002
vt 0.92847 0.5014488
vt 0.9284545 0.4945107
vt 0.9338787 0.9891261
vt 0.939849 0.989157
vt 0.936832 0.9953841
vt 0.9193754 0.08702886
vt 0.916158 0.09383011
vt 0.9128836 0.08705628
vt 0.664762 0.07993591
vt 0.6707034 0.08279932
vt 0.6647658 0.08757961
vt 0.627562 0.06733835
vt 0.6338164 0.07035577
vt 0.6275626 0.07337439
vt 0.009787772 0.1717631
vt 0.004138852 0.1744697
vt 0.004158884 0.16721
vt 0.9298788 0.4450135
vt 0.9299227 0.4380882
vt 0.9352769 0.442451
vt 0.9352769 0.4529272
vt 0.9352669 0.4589357
vt 0.9290463 0.4559211
vn 0.1131375 0.1357241 -0.9842657
vn 0.1131375 0.1357241 -0.9842657
vn 0.1131375 0.1357241 -0.9842657
vn 0.1131375 0.1357241 -0.9842657
vn 0.5963072 -0.6086777 -0.5233827
vn 0.5963072 -0.6086777 -0.5233827
vn 0.5963072 -0.6086777 -0.5233827
vn 0.5963072 -0.6086777 -0.5233827
vn 0.4831696 -0.7444018 0.460883
vn 0.4831696 -0.7444018 0.460883
vn 0.4831696 -0.7444018 0.460883
vn 0.4831696 -0.7444018 0.460883
vn -0.1131375 -0.1357241 0.9842657
vn -0.1131375 -0.1357241 0.9842657
vn -0.1131375 -0.1357241 0.9842657
vn -0.1131375 -0.1357241 0.9842657
vn -0.5963072 0.6086777 0.5233827
vn -0.5963072 0.6086777 0.5233827
vn -0.5963072 0.6086777 0.5233827
vn -0.5963072 0.6086777 0.5233827
vn -0.4831696 0.7444018 -0.460883
vn -0.4831696 0.7444018 -0.460883
vn -0.4831696 0.7444018 -0.460883
vn -0.4831696 0.7444018 -0.460883
vn -0.5810886 -0.4317216 -0.6898931
vn -0.5810886 -0.4317216 -0.6898931
vn -0.5810886 -0.4317216 -0.6898931
vn 0.7066033 0.582294 -0.4020515
vn 0.7066033 0.582294 -0.4020515
vn 0.7066033 0.582294 -0.4020515
vn -0.3130743 -0.8446413 -0.4342412
vn -0.3130743 -0.8446413 -0.4342412
vn -0.3130743 -0.8446413 -0.4342412
vn 0.9746176 0.1693742 -0.1463997
vn 0.9746176 0.1693742 -0.1463997
vn 0.9746176 0.1693742 -0.1463997
vn -0.3758317 -0.9199276 0.1117311
vn -0.3758317 -0.9199276 0.1117311
vn -0.3758317 -0.9199276 0.1117311
vn 0.9118602 0.094088 0.3995727
vn 0.9118602 0.094088 0.3995727
vn 0.9118602 0.094088 0.3995727
vn -0.7066033 -0.582294 0.4020515
vn -0.7066033 -0.582294 0.4020515
vn -0.7066033 -0.582294 0.4020515
vn 0.5810886 0.4317216 0.6898931
vn 0.5810886 0.4317216 0.6898931
vn 0.5810886 0.4317216 0.6898931
vn -0.9746176 -0.1693742 0.1463997
vn -0.9746176 -0.1693742 0.1463997
vn -0.9746176 -0.1693742 0.1463997
vn 0.3130743 0.8446413 0.4342412
vn 0.3130743 0.8446413 0.4342412
vn 0.3130743 0.8446413 0.4342412
vn -0.9118602 -0.094088 -0.3995727
vn -0.9118602 -0.094088 -0.3995727
vn -0.9118602 -0.094088 -0.3995727
vn 0.3758317 0.9199276 -0.1117311
vn 0.3758317 0.9199276 -0.1117311
vn 0.3758317 0.9199276 -0.1117311
g ball4_0
f 3/3/3 2/2/2 1/1/1
f 4/4/4 3/3/3 1/1/1
f 7/7/7 6/6/6 5/5/5
f 8/8/8 7/7/7 5/5/5
f 11/11/11 10/10/10 9/9/9
f 12/12/12 11/11/11 9/9/9
f 15/15/15 14/14/14 13/13/13
f 16/16/16 15/15/15 13/13/13
f 19/19/19 18/18/18 17/17/17
f 20/20/20 19/19/19 17/17/17
f 23/23/23 22/22/22 21/21/21
f 24/24/24 23/23/23 21/21/21
f 27/27/27 26/26/26 25/25/25
f 30/30/30 29/29/29 28/28/28
f 33/33/33 32/32/32 31/31/31
f 36/36/36 35/35/35 34/34/34
f 39/39/39 38/38/38 37/37/37
f 42/42/42 41/41/41 40/40/40
f 45/45/45 44/44/44 43/43/43
f 48/48/48 47/47/47 46/46/46
f 51/51/51 50/50/50 49/49/49
f 54/54/54 53/53/53 52/52/52
f 57/57/57 56/56/56 55/55/55
f 60/60/60 59/59/59 58/58/58
