g ball11
v -0.17316 -0.2188403 0.871265
v -0.7617286 0.1283079 0.4913498
v -0.2268879 0.8313783 0.3052007
v 0.3616808 0.4842301 0.6851159
v 0.3153662 -0.6924365 0.4861555
v -0.17316 -0.2188403 0.871265
v 0.3616808 0.4842301 0.6851159
v 0.8502069 0.01063388 0.3000063
v 0.2153236 -0.8188846 -0.2788693
v 0.3153662 -0.6924365 0.4861555
v 0.8502069 0.01063388 0.3000063
v 0.7501643 -0.1158142 -0.4650185
v -0.3732451 -0.4717364 -0.6587846
v 0.2153236 -0.8188846 -0.2788693
v 0.7501643 -0.1158142 -0.4650185
v 0.1615956 0.231334 -0.8449337
v -0.8617713 0.001859885 -0.2736749
v -0.3732451 -0.4717364 -0.6587846
v 0.1615956 0.231334 -0.8449337
v -0.3269305 0.7049302 -0.4598241
v -0.7617286 0.1283079 0.4913498
v -0.8617713 0.001859885 -0.2736749
v -0.3269305 0.7049302 -0.4598241
v -0.2268879 0.8313783 0.3052007
v -0.17316 -0.2188403 0.871265
v -0.5406229 -0.6968235 0.1993148
v -0.7617286 0.1283079 0.4913498
v 0.5290585 0.7093172 -0.1729835
v 0.3616808 0.4842301 0.6851159
v -0.2268879 0.8313783 0.3052007
v 0.3153662 -0.6924365 0.4861555
v -0.5406229 -0.6968235 0.1993148
v -0.17316 -0.2188403 0.871265
v 0.5290585 0.7093172 -0.1729835
v 0.8502069 0.01063388 0.3000063
v 0.3616808 0.4842301 0.6851159
v 0.2153236 -0.8188846 -0.2788693
v -0.5406229 -0.6968235 0.1993148
v 0.3153662 -0.6924365 0.4861555
v 0.5290585 0.7093172 -0.1729835
v 0.7501643 -0.1158142 -0.4650185
v 0.8502069 0.01063388 0.3000063
v -0.3732451 -0.4717364 -0.6587846
v -0.5406229 -0.6968235 0.1993148
v 0.2153236 -0.8188846 -0.2788693
v 0.5290585 0.7093172 -0.1729835
v 0.1615956 0.231334 -0.8449337
v 0.7501643 -0.1158142 -0.4650185
v -0.8617713 0.001859885 -0.2736749
v -0.5406229 -0.6968235 0.1993148
v -0.3732451 -0.4717364 -0.6587846
v 0.5290585 0.7093172 -0.1729835
v -0.3269305 0.7049302 -0.4598241
v 0.1615956 0.231334 -0.8449337
v -0.7617286 0.1283079 0.4913498
v -0.5406229 -0.6968235 0.1993148
v -0.8617713 0.001859885 -0.2736749
v 0.5290585 0.7093172 -0.1729835
v -0.2268879 0.8313783 0.3052007
v -0.3269305 0.7049302 -0.4598241
vt 0.8988332 0.7166424
vt 0.8916437 0.7166505
vt 0.8916564 0.7249898
vt 0.8988459 0.7249816
vt 0.4797213 0.09532738
vt 0.4796924 0.1023395
vt 0.4877529 0.1023763
vt 0.4877818 0.09536409
vt 0.8987957 0.8198854
vt 0.8984197 0.8129776
vt 0.8904786 0.8134192
vt 0.8908547 0.820327
vt 0.8916533 0.7014954
vt 0.8916437 0.7087175
vt 0.8999453 0.7087287
vt 0.8999549 0.7015066
vt 0.9017114 0.562604
vt 0.8947309 0.5626343
vt 0.8947659 0.5707314
vt 0.9017463 0.570701
vt 0.895917 0.2040915
vt 0.895914 0.2110101
vt 0.9038668 0.2110136
vt 0.9038697 0.2040949
vt 0.5395683 0.09500468
vt 0.531715 0.09871614
vt 0.5395336 0.1025549
vt 0.1493911 0.09828186
vt 0.1441784 0.09174788
vt 0.1410557 0.09828579
vt 0.9157229 0.8995441
vt 0.9121661 0.8921942
vt 0.9086773 0.8995771
vt 0.8973879 0.1200494
vt 0.9038697 0.114794
vt 0.8973551 0.1116818
vt 0.7607404 0.08754647
vt 0.754539 0.08252811
vt 0.7545151 0.09052753
vt 0.03563504 0.09148836
vt 0.04371043 0.09146035
vt 0.04066031 0.08513832
vt 0.9038697 0.1037681
vt 0.9038638 0.09539485
vt 0.8973606 0.1006328
vt 0.8979466 0.6511762
vt 0.9017435 0.6433282
vt 0.8942211 0.6432937
vt 0.9038697 0.1279861
vt 0.8955401 0.1279631
vt 0.9007283 0.1345093
vt 0.4347036 0.09355426
vt 0.4295751 0.08720946
vt 0.4265682 0.09360981
vt 0.07412426 0.08446229
vt 0.06683101 0.08794522
vt 0.07409585 0.09148753
vt 0.7721196 0.08974719
vt 0.7755505 0.08252811
vt 0.7686541 0.0825448
vn -0.286879 0.4431079 0.8493267
vn -0.286879 0.4431079 0.8493267
vn -0.286879 0.4431079 0.8493267
vn -0.286879 0.4431079 0.8493267
vn 0.508511 -0.1629779 0.8454909
vn 0.508511 -0.1629779 0.8454909
vn 0.508511 -0.1629779 0.8454909
vn 0.508511 -0.1629779 0.8454909
vn 0.79539 -0.6060858 -0.003835841
vn 0.79539 -0.6060858 -0.003835841
vn 0.79539 -0.6060858 -0.003835841
vn 0.79539 -0.6060858 -0.003835841
vn 0.286879 -0.4431079 -0.8493267
vn 0.286879 -0.4431079 -0.8493267
vn 0.286879 -0.4431079 -0.8493267
vn 0.286879 -0.4431079 -0.8493267
vn -0.508511 0.1629779 -0.8454909
vn -0.508511 0.1629779 -0.8454909
vn -0.508511 0.1629779 -0.8454909
vn -0.508511 0.1629779 -0.8454909
vn -0.79539 0.6060858 0.003835841
vn -0.79539 0.6060858 0.003835841
vn -0.79539 0.6060858 0.003835841
vn -0.79539 0.6060858 0.003835841
vn -0.6520689 -0.4021942 0.6426864
vn -0.6520689 -0.4021942 0.6426864
vn -0.6520689 -0.4021942 0.6426864
vn 0.3338053 0.8937784 0.2995569
vn 0.3338053 0.8937784 0.2995569
vn 0.3338053 0.8937784 0.2995569
vn -0.2108659 -0.7383902 0.6405587
vn -0.2108659 -0.7383902 0.6405587
vn -0.2108659 -0.7383902 0.6405587
vn 0.7750082 0.5575824 0.2974291
vn 0.7750082 0.5575824 0.2974291
vn 0.7750082 0.5575824 0.2974291
vn -0.05173409 -0.9841822 0.169437
vn -0.05173409 -0.9841822 0.169437
vn -0.05173409 -0.9841822 0.169437
vn 0.9341401 0.3117904 -0.1736925
vn 0.9341401 0.3117904 -0.1736925
vn 0.9341401 0.3117904 -0.1736925
vn -0.3338053 -0.8937784 -0.2995569
vn -0.3338053 -0.8937784 -0.2995569
vn -0.3338053 -0.8937784 -0.2995569
vn 0.6520689 0.4021942 -0.6426864
vn 0.6520689 0.4021942 -0.6426864
vn 0.6520689 0.4021942 -0.6426864
vn -0.7750082 -0.5575824 -0.2974291
vn -0.7750082 -0.5575824 -0.2974291
vn -0.7750082 -0.5575824 -0.2974291
vn 0.2108659 0.7383902 -0.6405587
vn 0.2108659 0.7383902 -0.6405587
vn 0.2108659 0.7383902 -0.6405587
vn -0.9341401 -0.3117904 0.1736925
vn -0.9341401 -0.3117904 0.1736925
vn -0.9341401 -0.3117904 0.1736925
vn 0.05173409 0.9841822 -0.169437
vn 0.05173409 0.9841822 -0.169437
vn 0.05173409 0.9841822 -0.169437
g ball11_0
f 3/3/3 2/2/2 1/1/1
f 4/4/4 3/3/3 1/1/1
f 7/7/7 6/6/6 5/5/5
f 8/8/8 7/7/7 5/5/5
f 11/11/11 10/10/10 9/9/9
f 12/12/12 11/11/11 9/9/9
f 15/15/15 14/14/14 13/13/13
f 16/16/16 15/15/15 13/13/13
f 19/19/19 18/18/18 17/17/17
f 20/20/20 19/19/19 17/17/17
f 23/23/23 22/22/22 21/21/21
f 24/24/24 23/23/23 21/21/21
f 27/27/27 26/26/26 25/25/25
f 30/30/30 29/29/29 28/28/28
f 33/33/33 32/32/32 31/31/31
f 36/36/36 35/35/35 34/34/34
f 39/39/39 38/38/38 37/37/37
f 42/42/42 41/41/41 40/40/40
f 45/45/45 44/44/44 43/43/43
f 48/48/48 47/47/47 46/46/46
f 51/51/51 50/50/50 49/49/49
f 54/54/54 53/53/53 52/52/52
f 57/57/57 56/56/56 55/55/55
f 60/60/60 59/59/59 58/58/58
