g board
v 2.138893 3.651459 3.403061
v 2.558893 3.651459 3.403061
v 2.558893 3.231459 3.403061
v 2.138893 3.231459 3.403061
v 2.335275 3.766715 -3.003636
v 2.335275 2.506715 -3.003636
v 1.915275 2.506715 -3.003636
v 1.915275 3.766715 -3.003636
v -2.558893 1.962311 3.403061
v -2.558893 2.382311 3.403061
v -2.138893 2.382311 3.403061
v -2.138893 1.962311 3.403061
v -2.558893 2.597007 3.403061
v -2.558893 3.017007 3.403061
v -2.138893 3.017007 3.403061
v -2.138893 2.597007 3.403061
v -2.558893 3.231459 3.403061
v -2.558893 3.651459 3.403061
v -2.138893 3.651459 3.403061
v -2.138893 3.231459 3.403061
v 2.138893 2.382311 3.403061
v 2.558893 2.382311 3.403061
v 2.558893 1.962311 3.403061
v 2.138893 1.962311 3.403061
v -0.9658949 5.229012 0.08952103
v -2.575895 5.229012 0.08952103
v -2.575895 5.649012 0.08952103
v -0.9658949 5.649012 0.08952103
v 2.392681 5.369675 2.428491
v 2.70445 5.189674 2.428491
v 2.70445 4.829674 2.428491
v 2.392681 4.649674 2.428491
v 2.080912 5.189674 2.428491
v 2.080912 4.829674 2.428491
v 2.138893 3.017007 3.403061
v 2.558893 3.017007 3.403061
v 2.558893 2.597007 3.403061
v 2.138893 2.597007 3.403061
v 2.616596 4.808122 0.1426248
v 2.616596 4.388122 0.1426248
v 1.966438 4.388122 0.1426248
v 1.966438 4.808122 0.1426248
v -2.336482 4.531118 -2.965715
v -2.336482 4.891118 -2.965715
v -2.024713 5.071118 -2.965715
v -2.024713 4.351118 -2.965715
v -1.712944 4.891118 -2.965715
v -1.712944 4.531118 -2.965715
v -2.8455 2.666652 0.8190155
v -2.8455 3.556652 0.8190155
v -2.0655 3.556652 0.8190155
v -2.0655 2.666652 0.8190155
v 2.0655 4.796203 -0.9420698
v 2.8455 4.796203 -0.9420698
v 2.8455 3.906203 -0.9420698
v 2.0655 3.906203 -0.9420698
v -2.500888 3.87179 2.894273
v -2.500888 4.50179 2.894273
v -0.6508883 4.50179 2.894273
v -0.6508883 3.87179 2.894273
v 1.317436 5.061697 -2.221534
v 2.331124 5.061697 -2.221534
v 2.331124 4.431696 -2.221534
v 1.317436 4.431696 -2.221534
v -1.915275 2.506715 -2.991936
v -2.335275 2.506715 -2.991936
v -2.335275 3.766715 -2.991936
v -1.915275 3.766715 -2.991936
v -2.729669 3.791423 0.05883658
v -2.729669 4.561423 0.05883658
v -2.549669 4.741423 0.05883658
v -2.549669 3.611423 0.05883658
v -0.7596692 4.741423 0.05883658
v -0.7596692 3.611423 0.05883658
v -0.5796692 4.561423 0.05883658
v -0.5796692 3.791423 0.05883658
v 2.414284 4.098068 2.56537
v 2.594284 3.918068 2.56537
v 2.594284 3.148068 2.56537
v 2.414284 2.968068 2.56537
v 1.584126 4.098068 2.56537
v 1.584126 2.968068 2.56537
v 1.404126 3.918068 2.56537
v 1.404126 3.148068 2.56537
vt 0.444539 0.9392847
vt 0.4974169 0.9392847
vt 0.4974169 0.8850508
vt 0.444539 0.8850508
vt 0.4362142 0.7680443
vt 0.4362142 0.6053424
vt 0.3833363 0.6053424
vt 0.3833363 0.7680443
vt 0.444539 0.8222783
vt 0.444539 0.8765124
vt 0.4974169 0.8765124
vt 0.4974169 0.8222783
vt 0.2171727 0.54257
vt 0.2171727 0.5968041
vt 0.2700505 0.5968041
vt 0.2700505 0.54257
vt 0.444539 0.6967334
vt 0.444539 0.7509674
vt 0.4974169 0.7509674
vt 0.4974169 0.6967334
vt 0.444539 0.688195
vt 0.4974169 0.688195
vt 0.4974169 0.6339611
vt 0.444539 0.6339611
vt 0.2088477 0.54257
vt 0.006149579 0.54257
vt 0.006149579 0.5968041
vt 0.2088477 0.5968041
vt 0.3357598 0.5968041
vt 0.3750114 0.5735608
vt 0.3750114 0.5270745
vt 0.3352765 0.5038834
vt 0.2965082 0.5735608
vt 0.2965082 0.5270745
vt 0.444539 0.8137399
vt 0.4974169 0.8137399
vt 0.4974169 0.7595059
vt 0.444539 0.7595059
vt 0.4651909 0.5968041
vt 0.4651909 0.54257
vt 0.3833363 0.54257
vt 0.3833363 0.5968041
vt 0.2851585 0.9258714
vt 0.2851585 0.9723576
vt 0.3244101 0.9956008
vt 0.3244101 0.9026283
vt 0.3636616 0.9723576
vt 0.3636616 0.9258714
vt 0.2708413 0.7262229
vt 0.2708413 0.8411469
vt 0.369043 0.8411469
vt 0.369043 0.7262229
vt 0.1643148 0.8411469
vt 0.2625164 0.8411469
vt 0.2625164 0.7262229
vt 0.1643148 0.7262229
vt 0.006149579 0.6053424
vt 0.006149579 0.6866933
vt 0.2390636 0.6866933
vt 0.2390636 0.6053424
vt 0.2473885 0.6866933
vt 0.3750114 0.6866933
vt 0.3750114 0.6053424
vt 0.2473885 0.6053424
vt 0.4362142 0.7765828
vt 0.3833363 0.7765828
vt 0.3833363 0.9392847
vt 0.4362142 0.9392847
vt 0.006149579 0.8729287
vt 0.006149579 0.9723576
vt 0.02881145 0.9956008
vt 0.02881145 0.8496855
vt 0.2541716 0.9956008
vt 0.2541716 0.8496855
vt 0.2768335 0.9723576
vt 0.2768335 0.8729287
vt 0.133328 0.8411469
vt 0.1559899 0.8179039
vt 0.1559899 0.7184751
vt 0.133328 0.695232
vt 0.02881145 0.8411469
vt 0.02881145 0.695232
vt 0.006149579 0.8179039
vt 0.006149579 0.7184751
vn 0 0 1
vn 0 0 1
vn 0 0 1
vn 0 0 1
vn 0 0 1
vn 0 0 1
vn 0 0 1
vn 0 0 1
vn 0 0 1
vn 0 0 1
vn 0 0 1
vn 0 0 1
vn 0 0 1
vn 0 0 1
vn 0 0 1
vn 0 0 1
vn 0 0 1
vn 0 0 1
vn 0 0 1
vn 0 0 1
vn 0 0 1
vn 0 0 1
vn 0 0 1
vn 0 0 1
vn 0 0 1
vn 0 0 1
vn 0 0 1
vn 0 0 1
vn 0 0 1
vn 0 0 1
vn 0 0 1
vn 0 0 1
vn 0 0 1
vn 0 0 1
vn 0 0 1
vn 0 0 1
vn 0 0 1
vn 0 0 1
vn 0 0 1
vn 0 0 1
vn 0 0 1
vn 0 0 1
vn 0 0 1
vn 0 0 1
vn 0 0 1
vn 0 0 1
vn 0 0 1
vn 0 0 1
vn 0 0 1
vn 0 0 1
vn 0 0 1
vn 0 0 1
vn 0 0 1
vn 0 0 1
vn 0 0 1
vn 0 0 1
vn 0 0 1
vn 0 0 1
vn 0 0 1
vn 0 0 1
vn 0 0 1
vn 0 0 1
vn 0 0 1
vn 0 0 1
vn 0 0 1
vn 0 0 1
vn 0 0 1
vn 0 0 1
vn 0 0 1
vn 0 0 1
vn 0 0 1
vn 0 0 1
vn 0 0 1
vn 0 0 1
vn 0 0 1
vn 0 0 1
vn 0 0 1
vn 0 0 1
vn 0 0 1
vn 0 0 1
vn 0 0 1
vn 0 0 1
vn 0 0 1
vn 0 0 1
g board_0
f 3/3/3 2/2/2 1/1/1
f 4/4/4 3/3/3 1/1/1
f 7/7/7 6/6/6 5/5/5
f 8/8/8 7/7/7 5/5/5
f 11/11/11 10/10/10 9/9/9
f 12/12/12 11/11/11 9/9/9
f 15/15/15 14/14/14 13/13/13
f 16/16/16 15/15/15 13/13/13
f 19/19/19 18/18/18 17/17/17
f 20/20/20 19/19/19 17/17/17
f 23/23/23 22/22/22 21/21/21
f 24/24/24 23/23/23 21/21/21
f 27/27/27 26/26/26 25/25/25
f 28/28/28 27/27/27 25/25/25
f 31/31/31 30/30/30 29/29/29
f 32/32/32 31/31/31 29/29/29
f 32/32/32 29/29/29 33/33/33
f 34/34/34 32/32/32 33/33/33
f 37/37/37 36/36/36 35/35/35
f 38/38/38 37/37/37 35/35/35
f 41/41/41 40/40/40 39/39/39
f 42/42/42 41/41/41 39/39/39
f 45/45/45 44/44/44 43/43/43
f 46/46/46 45/45/45 43/43/43
f 47/47/47 45/45/45 46/46/46
f 48/48/48 47/47/47 46/46/46
f 51/51/51 50/50/50 49/49/49
f 52/52/52 51/51/51 49/49/49
f 55/55/55 54/54/54 53/53/53
f 56/56/56 55/55/55 53/53/53
f 59/59/59 58/58/58 57/57/57
f 60/60/60 59/59/59 57/57/57
f 63/63/63 62/62/62 61/61/61
f 64/64/64 63/63/63 61/61/61
f 67/67/67 66/66/66 65/65/65
f 68/68/68 67/67/67 65/65/65
f 71/71/71 70/70/70 69/69/69
f 72/72/72 71/71/71 69/69/69
f 73/73/73 71/71/71 72/72/72
f 74/74/74 73/73/73 72/72/72
f 75/75/75 73/73/73 74/74/74
f 76/76/76 75/75/75 74/74/74
f 79/79/79 78/78/78 77/77/77
f 80/80/80 79/79/79 77/77/77
f 80/80/80 77/77/77 81/81/81
f 82/82/82 80/80/80 81/81/81
f 82/82/82 81/81/81 83/83/83
f 84/84/84 82/82/82 83/83/83
