g flag3
v -3.311311 -0.3384163 4.670223E-07
v -3.311311 0.3385131 4.670223E-07
v -4.139138 0.1692558 0.5095665
v -4.139138 -0.1691605 0.5095665
v -0.8278283 -0.8461835 0.5095665
v -0.8278285 0.846285 0.5095665
v -1.655656 0.6770277 4.670223E-07
v -1.655656 -0.6769278 4.670223E-07
v -8.21516E-07 -1.015545 4.670223E-07
v -9.97993E-07 1.015542 4.670223E-07
v -0.8278285 0.846285 0.5095665
v -0.8278283 -0.8461835 0.5095665
v -2.483483 -0.507672 0.5095665
v -2.483484 0.5077704 0.5095665
v -3.311311 0.3385131 4.670223E-07
v -3.311311 -0.3384163 4.670223E-07
v -1.655656 -0.6769278 4.670223E-07
v -1.655656 0.6770277 4.670223E-07
v -2.483484 0.5077704 0.5095665
v -2.483483 -0.507672 0.5095665
v -4.139138 -0.1691605 0.5095665
v -4.139138 0.1692558 0.5095665
v -4.966966 -1.541548E-06 4.670223E-07
vt 0.7608959 0.07911873
vt 0.7608959 0.07786322
vt 0.7626988 0.07817709
vt 0.7626988 0.07880473
vt 0.8793473 0.2206964
vt 0.8793473 0.2175575
vt 0.8811502 0.2178715
vt 0.8811502 0.2203826
vt 0.8807794 0.6704729
vt 0.8807794 0.6667061
vt 0.8825822 0.66702
vt 0.8825822 0.6701588
vt 0.7732482 0.0915513
vt 0.7732482 0.08966815
vt 0.775051 0.08998203
vt 0.775051 0.09123743
vt 0.8984166 0.9780804
vt 0.8984166 0.9755694
vt 0.9002193 0.9758832
vt 0.9002193 0.9777666
vt 0.9552122 0.3031416
vt 0.9552122 0.3025138
vt 0.957015 0.3028278
vn -0.5241972 0 -0.851597
vn -0.5241972 0 -0.851597
vn -0.5241972 0 -0.851597
vn -0.5241972 0 -0.851597
vn 0.5241972 0 -0.851597
vn 0.5241972 0 -0.851597
vn 0.5241972 0 -0.851597
vn 0.5241972 0 -0.851597
vn -0.5241972 0 -0.851597
vn -0.5241972 0 -0.851597
vn -0.5241972 0 -0.851597
vn -0.5241972 0 -0.851597
vn 0.5241972 0 -0.851597
vn 0.5241972 0 -0.851597
vn 0.5241972 0 -0.851597
vn 0.5241972 0 -0.851597
vn -0.5241972 0 -0.851597
vn -0.5241972 0 -0.851597
vn -0.5241972 0 -0.851597
vn -0.5241972 0 -0.851597
vn 0.5241972 0 -0.851597
vn 0.5241972 0 -0.851597
vn 0.5241972 0 -0.851597
g flag3_0
f 3/3/3 2/2/2 1/1/1
f 4/4/4 3/3/3 1/1/1
f 7/7/7 6/6/6 5/5/5
f 8/8/8 7/7/7 5/5/5
f 11/11/11 10/10/10 9/9/9
f 12/12/12 11/11/11 9/9/9
f 15/15/15 14/14/14 13/13/13
f 16/16/16 15/15/15 13/13/13
f 19/19/19 18/18/18 17/17/17
f 20/20/20 19/19/19 17/17/17
f 23/23/23 22/22/22 21/21/21
