g floor
v -1.666667 -0.5 5
v -15 -0.5 5
v -15 -1.21266E-14 5
v -1.666667 -1.21266E-14 5
v 6.123233E-16 -0.5 5
v 6.123233E-16 -3.637979E-14 5
v -15 0.15 5
v -1.670219 0.15 5
v -6.123233E-16 -0.5 -5
v -6.123233E-16 -3.637979E-14 -5
v -1.666667 -1.21266E-14 -5
v -1.666667 -0.5 -5
v -6.123233E-16 -3.637979E-14 -5
v 6.123233E-16 -3.637979E-14 5
v -1.666667 -1.21266E-14 5
v -1.666667 -1.21266E-14 -5
v -1.666667 -1.21266E-14 5
v -1.670219 0.15 5
v -1.670219 0.15 -5
v -1.666667 -1.21266E-14 -5
v -15 -0.5 -5
v -1.666667 -0.5 -5
v -1.666667 -1.21266E-14 -5
v -15 -1.21266E-14 -5
v -1.670219 0.15 -5
v -15 0.15 -5
v -15 -0.5 5
v -15 -0.5 -5
v -15 -1.21266E-14 -5
v -15 -1.21266E-14 5
v -15 0.15 -5
v -15 0.15 5
v -1.670219 0.15 5
v -15 0.15 5
v -15 0.15 -5
v -1.670219 0.15 -5
v 15 -2.425319E-14 5
v 15 -0.5 5
v 1.666667 -0.5 5
v 1.666667 -2.425319E-14 5
v 6.123233E-16 -0.5 5
v 6.123233E-16 -3.637979E-14 5
v 15 0.15 5
v 1.670219 0.15 5
v 1.666667 -2.425319E-14 -5
v -6.123233E-16 -3.637979E-14 -5
v -6.123233E-16 -0.5 -5
v 1.666667 -0.5 -5
v 1.666667 -2.425319E-14 5
v 6.123233E-16 -3.637979E-14 5
v -6.123233E-16 -3.637979E-14 -5
v 1.666667 -2.425319E-14 -5
v 1.670219 0.15 -5
v 1.670219 0.15 5
v 1.666667 -2.425319E-14 5
v 1.666667 -2.425319E-14 -5
v 1.666667 -2.425319E-14 -5
v 1.666667 -0.5 -5
v 15 -0.5 -5
v 15 -2.425319E-14 -5
v 1.670219 0.15 -5
v 15 0.15 -5
v 15 -2.425319E-14 -5
v 15 -0.5 -5
v 15 -0.5 5
v 15 -2.425319E-14 5
v 15 0.15 -5
v 15 0.15 5
v 15 0.15 -5
v 15 0.15 5
v 1.670219 0.15 5
v 1.670219 0.15 -5
vt 0.8333305 0.7731698
vt 0.8333305 0.842159
vt 0.8359175 0.842159
vt 0.8359175 0.7731698
vt 0.8333305 0.7645462
vt 0.8359175 0.7645462
vt 0.8366937 0.842159
vt 0.8366937 0.7731881
vt 0.9373955 0.380574
vt 0.9348084 0.380574
vt 0.9348084 0.3891976
vt 0.9373955 0.3891976
vt 0.2341646 0.6356505
vt 0.008788472 0.6356505
vt 0.008788472 0.6732132
vt 0.2341646 0.6732132
vt 0.9035236 0.9174217
vt 0.9042999 0.9174217
vt 0.9042999 0.8656799
vt 0.9035236 0.8656799
vt 0.8391274 0.2735549
vt 0.8391274 0.2045658
vt 0.8365404 0.2045658
vt 0.8365404 0.2735549
vt 0.8357642 0.2045841
vt 0.8357642 0.2735549
vt 0.1617427 0.1495849
vt 0.1100008 0.1495849
vt 0.1100008 0.1521721
vt 0.1617427 0.1521721
vt 0.1100008 0.1529481
vt 0.1617427 0.1529481
vt 0.2517415 0.6907901
vt 0.2517415 0.9912115
vt 0.4771177 0.9912115
vt 0.4771177 0.6907901
vt 0.8359175 0.842159
vt 0.8333305 0.842159
vt 0.8333305 0.7731698
vt 0.8359175 0.7731698
vt 0.8333305 0.7645462
vt 0.8359175 0.7645462
vt 0.8366937 0.842159
vt 0.8366937 0.7731881
vt 0.9348084 0.3891976
vt 0.9348084 0.380574
vt 0.9373955 0.380574
vt 0.9373955 0.3891976
vt 0.008788472 0.6732132
vt 0.008788472 0.6356505
vt 0.2341646 0.6356505
vt 0.2341646 0.6732132
vt 0.9042999 0.8656799
vt 0.9042999 0.9174217
vt 0.9035236 0.9174217
vt 0.9035236 0.8656799
vt 0.8365404 0.2045658
vt 0.8391274 0.2045658
vt 0.8391274 0.2735549
vt 0.8365404 0.2735549
vt 0.8357642 0.2045841
vt 0.8357642 0.2735549
vt 0.1100008 0.1521721
vt 0.1100008 0.1495849
vt 0.1617427 0.1495849
vt 0.1617427 0.1521721
vt 0.1100008 0.1529481
vt 0.1617427 0.1529481
vt 0.4771177 0.9912115
vt 0.2517415 0.9912115
vt 0.2517415 0.6907901
vt 0.4771177 0.6907901
vn 0 0 1
vn 0 0 1
vn 0 0 1
vn 0 0 1
vn 0 0 1
vn 0 0 1
vn 0 0 1
vn 0 0 1
vn 0 0 -1
vn 0 0 -1
vn 0 0 -1
vn 0 0 -1
vn 0 1 0
vn 0 1 0
vn 0 1 0
vn 0 1 0
vn 0.9997196 0.02367808 0
vn 0.9997196 0.02367808 0
vn 0.9997196 0.02367808 0
vn 0.9997196 0.02367808 0
vn 0 0 -1
vn 0 0 -1
vn 0 0 -1
vn 0 0 -1
vn 0 0 -1
vn 0 0 -1
vn -1 0 0
vn -1 0 0
vn -1 0 0
vn -1 0 0
vn -1 0 0
vn -1 0 0
vn 0 1 0
vn 0 1 0
vn 0 1 0
vn 0 1 0
vn 0 0 1
vn 0 0 1
vn 0 0 1
vn 0 0 1
vn 0 0 1
vn 0 0 1
vn 0 0 1
vn 0 0 1
vn 0 0 -1
vn 0 0 -1
vn 0 0 -1
vn 0 0 -1
vn 0 1 0
vn 0 1 0
vn 0 1 0
vn 0 1 0
vn -0.9997196 0.02367808 0
vn -0.9997196 0.02367808 0
vn -0.9997196 0.02367808 0
vn -0.9997196 0.02367808 0
vn 0 0 -1
vn 0 0 -1
vn 0 0 -1
vn 0 0 -1
vn 0 0 -1
vn 0 0 -1
vn 1 0 0
vn 1 0 0
vn 1 0 0
vn 1 0 0
vn 1 0 0
vn 1 0 0
vn 0 1 0
vn 0 1 0
vn 0 1 0
vn 0 1 0
g floor_0
f 3/3/3 2/2/2 1/1/1
f 4/4/4 3/3/3 1/1/1
f 4/4/4 1/1/1 5/5/5
f 6/6/6 4/4/4 5/5/5
f 7/7/7 3/3/3 4/4/4
f 8/8/8 7/7/7 4/4/4
f 11/11/11 10/10/10 9/9/9
f 12/12/12 11/11/11 9/9/9
f 15/15/15 14/14/14 13/13/13
f 16/16/16 15/15/15 13/13/13
f 19/19/19 18/18/18 17/17/17
f 20/20/20 19/19/19 17/17/17
f 23/23/23 22/22/22 21/21/21
f 24/24/24 23/23/23 21/21/21
f 25/25/25 23/23/23 24/24/24
f 26/26/26 25/25/25 24/24/24
f 29/29/29 28/28/28 27/27/27
f 30/30/30 29/29/29 27/27/27
f 31/31/31 29/29/29 30/30/30
f 32/32/32 31/31/31 30/30/30
f 35/35/35 34/34/34 33/33/33
f 36/36/36 35/35/35 33/33/33
f 39/39/39 38/38/38 37/37/37
f 40/40/40 39/39/39 37/37/37
f 41/41/41 39/39/39 40/40/40
f 42/42/42 41/41/41 40/40/40
f 40/40/40 37/37/37 43/43/43
f 44/44/44 40/40/40 43/43/43
f 47/47/47 46/46/46 45/45/45
f 48/48/48 47/47/47 45/45/45
f 51/51/51 50/50/50 49/49/49
f 52/52/52 51/51/51 49/49/49
f 55/55/55 54/54/54 53/53/53
f 56/56/56 55/55/55 53/53/53
f 59/59/59 58/58/58 57/57/57
f 60/60/60 59/59/59 57/57/57
f 60/60/60 57/57/57 61/61/61
f 62/62/62 60/60/60 61/61/61
f 65/65/65 64/64/64 63/63/63
f 66/66/66 65/65/65 63/63/63
f 66/66/66 63/63/63 67/67/67
f 68/68/68 66/66/66 67/67/67
f 71/71/71 70/70/70 69/69/69
f 72/72/72 71/71/71 69/69/69
