g floor
v -1.666667 -0.5 5
v -15 -0.5 5
v -15 3.055334E-15 5
v -1.666667 3.055334E-15 5
v 6.831924E-16 -0.5 5
v 6.831924E-16 3.055334E-15 5
v -15 0.15 5
v -1.670219 0.15 5
v -1.670219 0.15 5
v -15 0.15 5
v -15 0.15 -5
v -1.670219 0.15 -5
v -15 -0.5 5
v -15 -0.5 -5
v -15 4.286941E-15 -5
v -15 3.055334E-15 5
v -15 0.15 -5
v -15 0.15 5
v -1.666667 3.055334E-15 5
v -1.670219 0.15 5
v -1.670219 0.15 -5
v -1.666667 4.286941E-15 -5
v -1.666667 -0.5 -5
v -5.038484E-16 -0.5 -5
v -5.038484E-16 4.286941E-15 -5
v -1.666667 4.286941E-15 -5
v -15 -0.5 -5
v -15 4.286941E-15 -5
v -1.670219 0.15 -5
v -15 0.15 -5
v -1.666667 3.055334E-15 5
v -1.666667 4.286941E-15 -5
v -5.038484E-16 4.286941E-15 -5
v 6.831924E-16 3.055334E-15 5
v 15 3.055334E-15 5
v 15 -0.5 5
v 1.666667 -0.5 5
v 1.666667 3.055334E-15 5
v 6.831924E-16 -0.5 5
v 6.831924E-16 3.055334E-15 5
v 15 0.15 5
v 1.670219 0.15 5
v 15 0.15 -5
v 15 0.15 5
v 1.670219 0.15 5
v 1.670219 0.15 -5
v 15 4.286941E-15 -5
v 15 -0.5 -5
v 15 -0.5 5
v 15 3.055334E-15 5
v 15 0.15 -5
v 15 0.15 5
v 1.670219 0.15 -5
v 1.670219 0.15 5
v 1.666667 3.055334E-15 5
v 1.666667 4.286941E-15 -5
v -5.038484E-16 4.286941E-15 -5
v -5.038484E-16 -0.5 -5
v 1.666667 -0.5 -5
v 1.666667 4.286941E-15 -5
v 15 -0.5 -5
v 15 4.286941E-15 -5
v 1.670219 0.15 -5
v 15 0.15 -5
v -5.038484E-16 4.286941E-15 -5
v 1.666667 4.286941E-15 -5
v 1.666667 3.055334E-15 5
v 6.831924E-16 3.055334E-15 5
vt 0.2648148 0.3390485
vt 0.2648148 0.3866714
vt 0.2657259 0.3866714
vt 0.2657259 0.3390485
vt 0.2648148 0.3330957
vt 0.2657259 0.3330957
vt 0.2659993 0.3866714
vt 0.2659993 0.3390613
vt 0.004156177 0.9958438
vt 0.3165264 0.9958438
vt 0.3165264 0.7615037
vt 0.004156177 0.7615037
vt 0.6520308 0.97613
vt 0.6163136 0.97613
vt 0.6163136 0.9770411
vt 0.6520308 0.9770411
vt 0.6163136 0.9773145
vt 0.6520308 0.9773145
vt 0.8630412 0.1726691
vt 0.8633148 0.1726691
vt 0.8633148 0.1369519
vt 0.8630412 0.1369519
vt 0.771482 0.867664
vt 0.771482 0.8617112
vt 0.7705708 0.8617112
vt 0.7705708 0.867664
vt 0.771482 0.915287
vt 0.7705708 0.915287
vt 0.7702975 0.8676767
vt 0.7702975 0.915287
vt 0.3638954 0.9958438
vt 0.3638954 0.7615037
vt 0.3248388 0.7615037
vt 0.3248388 0.9958438
vt 0.2657259 0.3866714
vt 0.2648148 0.3866714
vt 0.2648148 0.3390485
vt 0.2657259 0.3390485
vt 0.2648148 0.3330957
vt 0.2657259 0.3330957
vt 0.2659993 0.3866714
vt 0.2659993 0.3390613
vt 0.3165264 0.7615037
vt 0.3165264 0.9958438
vt 0.004156177 0.9958438
vt 0.004156177 0.7615037
vt 0.6163136 0.9770411
vt 0.6163136 0.97613
vt 0.6520308 0.97613
vt 0.6520308 0.9770411
vt 0.6163136 0.9773145
vt 0.6520308 0.9773145
vt 0.8633148 0.1369519
vt 0.8633148 0.1726691
vt 0.8630412 0.1726691
vt 0.8630412 0.1369519
vt 0.7705708 0.8617112
vt 0.771482 0.8617112
vt 0.771482 0.867664
vt 0.7705708 0.867664
vt 0.771482 0.915287
vt 0.7705708 0.915287
vt 0.7702975 0.8676767
vt 0.7702975 0.915287
vt 0.3248388 0.7615037
vt 0.3638954 0.7615037
vt 0.3638954 0.9958438
vt 0.3248388 0.9958438
vn 0 0 1
vn 0 0 1
vn 0 0 1
vn 0 0 1
vn 0 0 1
vn 0 0 1
vn 0 0 1
vn 0 0 1
vn 0 1 0
vn 0 1 0
vn 0 1 0
vn 0 1 0
vn -1 0 0
vn -1 0 0
vn -1 0 0
vn -1 0 0
vn -1 0 0
vn -1 0 0
vn 0.9997196 0.02367808 0
vn 0.9997196 0.02367808 0
vn 0.9997196 0.02367808 0
vn 0.9997196 0.02367808 0
vn 0 0 -1
vn 0 0 -1
vn 0 0 -1
vn 0 0 -1
vn 0 0 -1
vn 0 0 -1
vn 0 0 -1
vn 0 0 -1
vn 0 1 0
vn 0 1 0
vn 0 1 0
vn 0 1 0
vn 0 0 1
vn 0 0 1
vn 0 0 1
vn 0 0 1
vn 0 0 1
vn 0 0 1
vn 0 0 1
vn 0 0 1
vn 0 1 0
vn 0 1 0
vn 0 1 0
vn 0 1 0
vn 1 0 0
vn 1 0 0
vn 1 0 0
vn 1 0 0
vn 1 0 0
vn 1 0 0
vn -0.9997196 0.02367808 0
vn -0.9997196 0.02367808 0
vn -0.9997196 0.02367808 0
vn -0.9997196 0.02367808 0
vn 0 0 -1
vn 0 0 -1
vn 0 0 -1
vn 0 0 -1
vn 0 0 -1
vn 0 0 -1
vn 0 0 -1
vn 0 0 -1
vn 0 1 0
vn 0 1 0
vn 0 1 0
vn 0 1 0
g floor_0
f 3/3/3 2/2/2 1/1/1
f 4/4/4 3/3/3 1/1/1
f 4/4/4 1/1/1 5/5/5
f 6/6/6 4/4/4 5/5/5
f 7/7/7 3/3/3 4/4/4
f 8/8/8 7/7/7 4/4/4
f 11/11/11 10/10/10 9/9/9
f 12/12/12 11/11/11 9/9/9
f 15/15/15 14/14/14 13/13/13
f 16/16/16 15/15/15 13/13/13
f 17/17/17 15/15/15 16/16/16
f 18/18/18 17/17/17 16/16/16
f 21/21/21 20/20/20 19/19/19
f 22/22/22 21/21/21 19/19/19
f 25/25/25 24/24/24 23/23/23
f 26/26/26 25/25/25 23/23/23
f 26/26/26 23/23/23 27/27/27
f 28/28/28 26/26/26 27/27/27
f 29/29/29 26/26/26 28/28/28
f 30/30/30 29/29/29 28/28/28
f 33/33/33 32/32/32 31/31/31
f 34/34/34 33/33/33 31/31/31
f 37/37/37 36/36/36 35/35/35
f 38/38/38 37/37/37 35/35/35
f 39/39/39 37/37/37 38/38/38
f 40/40/40 39/39/39 38/38/38
f 38/38/38 35/35/35 41/41/41
f 42/42/42 38/38/38 41/41/41
f 45/45/45 44/44/44 43/43/43
f 46/46/46 45/45/45 43/43/43
f 49/49/49 48/48/48 47/47/47
f 50/50/50 49/49/49 47/47/47
f 50/50/50 47/47/47 51/51/51
f 52/52/52 50/50/50 51/51/51
f 55/55/55 54/54/54 53/53/53
f 56/56/56 55/55/55 53/53/53
f 59/59/59 58/58/58 57/57/57
f 60/60/60 59/59/59 57/57/57
f 61/61/61 59/59/59 60/60/60
f 62/62/62 61/61/61 60/60/60
f 62/62/62 60/60/60 63/63/63
f 64/64/64 62/62/62 63/63/63
f 67/67/67 66/66/66 65/65/65
f 68/68/68 67/67/67 65/65/65
