g floor
v 15 8.922564E-17 4.999997
v 15 -0.5 4.999997
v 1.666667 -0.5 4.999997
v 1.666667 8.922564E-17 4.999997
v 3.061209E-15 -0.5 4.999997
v 3.061209E-15 8.922564E-17 4.999997
v 1.666667 2.313342E-16 -5.000003
v 1.836562E-15 2.490978E-16 -5.000003
v 1.836562E-15 -0.5 -5.000003
v 1.666667 -0.5 -5.000003
v 15 -0.5 -5.000003
v 15 2.313342E-16 -5.000003
v 1.666667 8.922564E-17 4.999997
v 3.061209E-15 8.922564E-17 4.999997
v 1.836562E-15 2.490978E-16 -5.000003
v 1.666667 2.313342E-16 -5.000003
v 1.670219 0.15 -5.000003
v 1.670219 0.15 4.999997
v 1.666667 8.922564E-17 4.999997
v 1.666667 2.313342E-16 -5.000003
v 15 0.15 4.999997
v 15 8.922564E-17 4.999997
v 1.666667 8.922564E-17 4.999997
v 1.670219 0.15 4.999997
v 15 2.313342E-16 -5.000003
v 15 -0.5 -5.000003
v 15 -0.5 4.999997
v 15 8.922564E-17 4.999997
v 15 0.15 -5.000003
v 15 0.15 4.999997
v 15 0.15 -5.000003
v 15 0.15 4.999997
v 1.670219 0.15 4.999997
v 1.670219 0.15 -5.000003
v 1.670219 0.15 -5.000003
v 1.666667 2.313342E-16 -5.000003
v 15 2.313342E-16 -5.000003
v 15 0.15 -5.000003
v -1.666667 -0.5 4.999997
v -15 -0.5 4.999997
v -15 8.922564E-17 4.999997
v -1.666667 8.922564E-17 4.999997
v 3.061209E-15 -0.5 4.999997
v 3.061209E-15 8.922564E-17 4.999997
v 1.836562E-15 -0.5 -5.000003
v 1.836562E-15 2.490978E-16 -5.000003
v -1.666667 2.135706E-16 -5.000003
v -1.666667 -0.5 -5.000003
v -15 -0.5 -5.000003
v -15 2.135706E-16 -5.000003
v 1.836562E-15 2.490978E-16 -5.000003
v 3.061209E-15 8.922564E-17 4.999997
v -1.666667 8.922564E-17 4.999997
v -1.666667 2.135706E-16 -5.000003
v -1.666667 8.922564E-17 4.999997
v -1.670219 0.15 4.999997
v -1.670219 0.15 -5.000003
v -1.666667 2.135706E-16 -5.000003
v -1.666667 8.922564E-17 4.999997
v -15 8.922564E-17 4.999997
v -15 0.15 4.999997
v -1.670219 0.15 4.999997
v -15 -0.5 4.999997
v -15 -0.5 -5.000003
v -15 2.135706E-16 -5.000003
v -15 8.922564E-17 4.999997
v -15 0.15 -5.000003
v -15 0.15 4.999997
v -1.670219 0.15 4.999997
v -15 0.15 4.999997
v -15 0.15 -5.000003
v -1.670219 0.15 -5.000003
v -15 2.135706E-16 -5.000003
v -1.666667 2.135706E-16 -5.000003
v -1.670219 0.15 -5.000003
v -15 0.15 -5.000003
vt 0.7057201 0.6573868
vt 0.709353 0.6573868
vt 0.709353 0.7541233
vt 0.7057201 0.7541233
vt 0.709353 0.7662154
vt 0.7057201 0.7662154
vt 0.7034357 0.9794304
vt 0.7034357 0.9915223
vt 0.6998028 0.9915223
vt 0.6998028 0.9794304
vt 0.6998028 0.8826937
vt 0.7034357 0.8826937
vt 0.2811416 0.5805348
vt 0.2811416 0.6112148
vt 0.09679221 0.6112148
vt 0.09679221 0.5805348
vt 0.2404787 0.3075229
vt 0.4245601 0.3075229
vt 0.4245601 0.310289
vt 0.2404787 0.310289
vt 0.6945962 0.6573868
vt 0.6969993 0.6573868
vt 0.6969993 0.8706872
vt 0.6945962 0.8706305
vt 0.7132448 0.9188643
vt 0.7168722 0.9188643
vt 0.7168722 0.9915223
vt 0.7132448 0.9915223
vt 0.7121565 0.9188643
vt 0.7121565 0.9915223
vt 0.00436044 0.750263
vt 0.1887098 0.750263
vt 0.1887098 0.9956396
vt 0.00436044 0.9956396
vt 0.6858753 0.6112094
vt 0.6834723 0.6112661
vt 0.6834723 0.3979658
vt 0.6858753 0.3979658
vt 0.709353 0.7541233
vt 0.709353 0.6573868
vt 0.7057201 0.6573868
vt 0.7057201 0.7541233
vt 0.709353 0.7662154
vt 0.7057201 0.7662154
vt 0.6998028 0.9915223
vt 0.7034357 0.9915223
vt 0.7034357 0.9794304
vt 0.6998028 0.9794304
vt 0.6998028 0.8826937
vt 0.7034357 0.8826937
vt 0.09679221 0.6112148
vt 0.2811416 0.6112148
vt 0.2811416 0.5805348
vt 0.09679221 0.5805348
vt 0.4245601 0.310289
vt 0.4245601 0.3075229
vt 0.2404787 0.3075229
vt 0.2404787 0.310289
vt 0.6969993 0.8706872
vt 0.6969993 0.6573868
vt 0.6945962 0.6573868
vt 0.6945962 0.8706305
vt 0.7168722 0.9915223
vt 0.7168722 0.9188643
vt 0.7132448 0.9188643
vt 0.7132448 0.9915223
vt 0.7121565 0.9188643
vt 0.7121565 0.9915223
vt 0.1887098 0.9956396
vt 0.1887098 0.750263
vt 0.00436044 0.750263
vt 0.00436044 0.9956396
vt 0.6834723 0.3979658
vt 0.6834723 0.6112661
vt 0.6858753 0.6112094
vt 0.6858753 0.3979658
vn 0 0 1
vn 0 0 1
vn 0 0 1
vn 0 0 1
vn 0 0 1
vn 0 0 1
vn 0 0 -1
vn 0 0 -1
vn 0 0 -1
vn 0 0 -1
vn 0 0 -1
vn 0 0 -1
vn 0 1 0
vn 0 1 0
vn 0 1 0
vn 0 1 0
vn -0.9997196 0.02367808 0
vn -0.9997196 0.02367808 0
vn -0.9997196 0.02367808 0
vn -0.9997196 0.02367808 0
vn 0 0 1
vn 0 0 1
vn 0 0 1
vn 0 0 1
vn 1 0 0
vn 1 0 0
vn 1 0 0
vn 1 0 0
vn 1 0 0
vn 1 0 0
vn 0 1 0
vn 0 1 0
vn 0 1 0
vn 0 1 0
vn 0 0 -1
vn 0 0 -1
vn 0 0 -1
vn 0 0 -1
vn 0 0 1
vn 0 0 1
vn 0 0 1
vn 0 0 1
vn 0 0 1
vn 0 0 1
vn 0 0 -1
vn 0 0 -1
vn 0 0 -1
vn 0 0 -1
vn 0 0 -1
vn 0 0 -1
vn 0 1 0
vn 0 1 0
vn 0 1 0
vn 0 1 0
vn 0.9997196 0.02367808 0
vn 0.9997196 0.02367808 0
vn 0.9997196 0.02367808 0
vn 0.9997196 0.02367808 0
vn 0 0 1
vn 0 0 1
vn 0 0 1
vn 0 0 1
vn -1 0 0
vn -1 0 0
vn -1 0 0
vn -1 0 0
vn -1 0 0
vn -1 0 0
vn 0 1 0
vn 0 1 0
vn 0 1 0
vn 0 1 0
vn 0 0 -1
vn 0 0 -1
vn 0 0 -1
vn 0 0 -1
g floor_0
f 3/3/3 2/2/2 1/1/1
f 4/4/4 3/3/3 1/1/1
f 5/5/5 3/3/3 4/4/4
f 6/6/6 5/5/5 4/4/4
f 9/9/9 8/8/8 7/7/7
f 10/10/10 9/9/9 7/7/7
f 11/11/11 10/10/10 7/7/7
f 12/12/12 11/11/11 7/7/7
f 15/15/15 14/14/14 13/13/13
f 16/16/16 15/15/15 13/13/13
f 19/19/19 18/18/18 17/17/17
f 20/20/20 19/19/19 17/17/17
f 23/23/23 22/22/22 21/21/21
f 24/24/24 23/23/23 21/21/21
f 27/27/27 26/26/26 25/25/25
f 28/28/28 27/27/27 25/25/25
f 28/28/28 25/25/25 29/29/29
f 30/30/30 28/28/28 29/29/29
f 33/33/33 32/32/32 31/31/31
f 34/34/34 33/33/33 31/31/31
f 37/37/37 36/36/36 35/35/35
f 38/38/38 37/37/37 35/35/35
f 41/41/41 40/40/40 39/39/39
f 42/42/42 41/41/41 39/39/39
f 42/42/42 39/39/39 43/43/43
f 44/44/44 42/42/42 43/43/43
f 47/47/47 46/46/46 45/45/45
f 48/48/48 47/47/47 45/45/45
f 47/47/47 48/48/48 49/49/49
f 50/50/50 47/47/47 49/49/49
f 53/53/53 52/52/52 51/51/51
f 54/54/54 53/53/53 51/51/51
f 57/57/57 56/56/56 55/55/55
f 58/58/58 57/57/57 55/55/55
f 61/61/61 60/60/60 59/59/59
f 62/62/62 61/61/61 59/59/59
f 65/65/65 64/64/64 63/63/63
f 66/66/66 65/65/65 63/63/63
f 67/67/67 65/65/65 66/66/66
f 68/68/68 67/67/67 66/66/66
f 71/71/71 70/70/70 69/69/69
f 72/72/72 71/71/71 69/69/69
f 75/75/75 74/74/74 73/73/73
f 76/76/76 75/75/75 73/73/73
