g floor
v -15 0.15 -5
v -15 -6.123233E-16 -5
v -1.666667 -6.123233E-16 -5
v -1.670219 0.15 -5
v 6.123233E-16 -1.83697E-15 5
v 6.123233E-16 -0.5 5
v -1.666667 -0.5 5
v -1.666667 -1.83697E-15 5
v -15 -0.5 5
v -15 -1.83697E-15 5
v -1.670219 0.15 5
v -15 0.15 5
v -15 -1.83697E-15 5
v -15 -0.5 5
v -15 -0.5 -5
v -15 -6.123233E-16 -5
v -15 0.15 5
v -15 0.15 -5
v -15 -6.123233E-16 -5
v -15 -0.5 -5
v -1.666667 -0.5 -5
v -1.666667 -6.123233E-16 -5
v -1.666667 -6.123233E-16 -5
v -1.666667 -0.5 -5
v -6.123233E-16 -0.5 -5
v -6.123233E-16 -6.123233E-16 -5
v -1.666667 -6.123233E-16 -5
v -6.123233E-16 -6.123233E-16 -5
v 6.123233E-16 -1.83697E-15 5
v -1.666667 -1.83697E-15 5
v -1.670219 0.15 5
v -1.670219 0.15 -5
v -1.666667 -6.123233E-16 -5
v -1.666667 -1.83697E-15 5
v -1.670219 0.15 -5
v -1.670219 0.15 5
v -15 0.15 5
v -15 0.15 -5
v 1.666667 -6.123233E-16 -5
v 15 -6.123233E-16 -5
v 15 0.15 -5
v 1.670219 0.15 -5
v 1.666667 -0.5 5
v 6.123233E-16 -0.5 5
v 6.123233E-16 -1.83697E-15 5
v 1.666667 -1.83697E-15 5
v 15 -0.5 5
v 15 -1.83697E-15 5
v 1.670219 0.15 5
v 15 0.15 5
v 15 -0.5 -5
v 15 -0.5 5
v 15 -1.83697E-15 5
v 15 -6.123233E-16 -5
v 15 0.15 5
v 15 0.15 -5
v 1.666667 -0.5 -5
v 15 -0.5 -5
v 15 -6.123233E-16 -5
v 1.666667 -6.123233E-16 -5
v -6.123233E-16 -0.5 -5
v 1.666667 -0.5 -5
v 1.666667 -6.123233E-16 -5
v -6.123233E-16 -6.123233E-16 -5
v 6.123233E-16 -1.83697E-15 5
v -6.123233E-16 -6.123233E-16 -5
v 1.666667 -6.123233E-16 -5
v 1.666667 -1.83697E-15 5
v 1.666667 -6.123233E-16 -5
v 1.670219 0.15 -5
v 1.670219 0.15 5
v 1.666667 -1.83697E-15 5
v 15 0.15 5
v 1.670219 0.15 5
v 1.670219 0.15 -5
v 15 0.15 -5
vt 0.8851904 0.7695911
vt 0.884393 0.7695911
vt 0.884393 0.8404723
vt 0.8851904 0.8404534
vt 0.8524006 0.8337473
vt 0.8550586 0.8337473
vt 0.8550586 0.824887
vt 0.8524006 0.824887
vt 0.8550586 0.7540057
vt 0.8524006 0.7540057
vt 0.8516032 0.8248681
vt 0.8516032 0.7540057
vt 0.6021306 0.6319892
vt 0.6021306 0.6293312
vt 0.5489696 0.6293312
vt 0.5489696 0.6319892
vt 0.6021306 0.6327866
vt 0.5489696 0.6327866
vt 0.8577099 0.1956809
vt 0.8550519 0.1956809
vt 0.8550519 0.2665621
vt 0.8577099 0.2665621
vt 0.7282408 0.1182463
vt 0.7255827 0.1182463
vt 0.7255827 0.1271064
vt 0.7282408 0.1271064
vt 0.3545727 0.8805624
vt 0.3964432 0.8805429
vt 0.3964597 0.6293141
vt 0.3545892 0.6293336
vt 0.8843928 0.703307
vt 0.8843928 0.756468
vt 0.8851904 0.756468
vt 0.8851904 0.703307
vt 0.3414489 0.7290831
vt 0.3414489 0.4778509
vt 0.006561528 0.4778509
vt 0.006561528 0.7290831
vt 0.884393 0.8404723
vt 0.884393 0.7695911
vt 0.8851904 0.7695911
vt 0.8851904 0.8404534
vt 0.8550586 0.824887
vt 0.8550586 0.8337473
vt 0.8524006 0.8337473
vt 0.8524006 0.824887
vt 0.8550586 0.7540057
vt 0.8524006 0.7540057
vt 0.8516032 0.8248681
vt 0.8516032 0.7540057
vt 0.5489696 0.6293312
vt 0.6021306 0.6293312
vt 0.6021306 0.6319892
vt 0.5489696 0.6319892
vt 0.6021306 0.6327866
vt 0.5489696 0.6327866
vt 0.8550519 0.2665621
vt 0.8550519 0.1956809
vt 0.8577099 0.1956809
vt 0.8577099 0.2665621
vt 0.7255827 0.1271064
vt 0.7255827 0.1182463
vt 0.7282408 0.1182463
vt 0.7282408 0.1271064
vt 0.3964597 0.6293141
vt 0.3964432 0.8805429
vt 0.3545727 0.8805624
vt 0.3545892 0.6293336
vt 0.8851904 0.756468
vt 0.8843928 0.756468
vt 0.8843928 0.703307
vt 0.8851904 0.703307
vt 0.006561528 0.4778509
vt 0.3414489 0.4778509
vt 0.3414489 0.7290831
vt 0.006561528 0.7290831
vn 0 0 -1
vn 0 0 -1
vn 0 0 -1
vn 0 0 -1
vn 0 0 1
vn 0 0 1
vn 0 0 1
vn 0 0 1
vn 0 0 1
vn 0 0 1
vn 0 0 1
vn 0 0 1
vn -1 0 0
vn -1 0 0
vn -1 0 0
vn -1 0 0
vn -1 0 0
vn -1 0 0
vn 0 0 -1
vn 0 0 -1
vn 0 0 -1
vn 0 0 -1
vn 0 0 -1
vn 0 0 -1
vn 0 0 -1
vn 0 0 -1
vn 0 1 0
vn 0 1 0
vn 0 1 0
vn 0 1 0
vn 0.9997196 0.02367808 0
vn 0.9997196 0.02367808 0
vn 0.9997196 0.02367808 0
vn 0.9997196 0.02367808 0
vn 0 1 0
vn 0 1 0
vn 0 1 0
vn 0 1 0
vn 0 0 -1
vn 0 0 -1
vn 0 0 -1
vn 0 0 -1
vn 0 0 1
vn 0 0 1
vn 0 0 1
vn 0 0 1
vn 0 0 1
vn 0 0 1
vn 0 0 1
vn 0 0 1
vn 1 0 0
vn 1 0 0
vn 1 0 0
vn 1 0 0
vn 1 0 0
vn 1 0 0
vn 0 0 -1
vn 0 0 -1
vn 0 0 -1
vn 0 0 -1
vn 0 0 -1
vn 0 0 -1
vn 0 0 -1
vn 0 0 -1
vn 0 1 0
vn 0 1 0
vn 0 1 0
vn 0 1 0
vn -0.9997196 0.02367808 0
vn -0.9997196 0.02367808 0
vn -0.9997196 0.02367808 0
vn -0.9997196 0.02367808 0
vn 0 1 0
vn 0 1 0
vn 0 1 0
vn 0 1 0
g floor_0
f 3/3/3 2/2/2 1/1/1
f 4/4/4 3/3/3 1/1/1
f 7/7/7 6/6/6 5/5/5
f 8/8/8 7/7/7 5/5/5
f 9/9/9 7/7/7 8/8/8
f 10/10/10 9/9/9 8/8/8
f 10/10/10 8/8/8 11/11/11
f 12/12/12 10/10/10 11/11/11
f 15/15/15 14/14/14 13/13/13
f 16/16/16 15/15/15 13/13/13
f 16/16/16 13/13/13 17/17/17
f 18/18/18 16/16/16 17/17/17
f 21/21/21 20/20/20 19/19/19
f 22/22/22 21/21/21 19/19/19
f 25/25/25 24/24/24 23/23/23
f 26/26/26 25/25/25 23/23/23
f 29/29/29 28/28/28 27/27/27
f 30/30/30 29/29/29 27/27/27
f 33/33/33 32/32/32 31/31/31
f 34/34/34 33/33/33 31/31/31
f 37/37/37 36/36/36 35/35/35
f 38/38/38 37/37/37 35/35/35
f 41/41/41 40/40/40 39/39/39
f 42/42/42 41/41/41 39/39/39
f 45/45/45 44/44/44 43/43/43
f 46/46/46 45/45/45 43/43/43
f 46/46/46 43/43/43 47/47/47
f 48/48/48 46/46/46 47/47/47
f 49/49/49 46/46/46 48/48/48
f 50/50/50 49/49/49 48/48/48
f 53/53/53 52/52/52 51/51/51
f 54/54/54 53/53/53 51/51/51
f 55/55/55 53/53/53 54/54/54
f 56/56/56 55/55/55 54/54/54
f 59/59/59 58/58/58 57/57/57
f 60/60/60 59/59/59 57/57/57
f 63/63/63 62/62/62 61/61/61
f 64/64/64 63/63/63 61/61/61
f 67/67/67 66/66/66 65/65/65
f 68/68/68 67/67/67 65/65/65
f 71/71/71 70/70/70 69/69/69
f 72/72/72 71/71/71 69/69/69
f 75/75/75 74/74/74 73/73/73
f 76/76/76 75/75/75 73/73/73
