g floor
v -1.666667 -6.158037E-16 5
v -1.670219 0.15 5
v -1.670219 0.15 -5
v -1.666667 5.921189E-16 -5
v -1.666667 -6.158037E-16 5
v -1.666667 5.921189E-16 -5
v -6.166664E-16 5.921189E-16 -5
v 5.703744E-16 -6.631732E-16 5
v -1.666667 -6.158037E-16 5
v -15 -6.158037E-16 5
v -15 0.15 5
v -1.670219 0.15 5
v -15 5.921189E-16 -5
v -1.666667 5.921189E-16 -5
v -1.670219 0.15 -5
v -15 0.15 -5
v -15 -0.5 -5
v -1.666667 -0.5 -5
v -6.166664E-16 5.921189E-16 -5
v -6.166664E-16 -0.5 -5
v -1.670219 0.15 5
v -15 0.15 5
v -15 0.15 -5
v -1.670219 0.15 -5
v -15 -6.158037E-16 5
v -15 5.921189E-16 -5
v -15 0.15 -5
v -15 0.15 5
v 5.703744E-16 -0.5 5
v -1.666667 -0.5 5
v -1.666667 -6.158037E-16 5
v 5.703744E-16 -6.631732E-16 5
v -15 -6.158037E-16 5
v -15 -0.5 5
v -15 5.921189E-16 -5
v -15 -6.158037E-16 5
v -15 -0.5 5
v -15 -0.5 -5
v 1.670219 0.15 -5
v 1.670219 0.15 5
v 1.666667 -6.394884E-16 5
v 1.666667 5.921189E-16 -5
v -6.166664E-16 5.921189E-16 -5
v 1.666667 5.921189E-16 -5
v 1.666667 -6.394884E-16 5
v 5.703744E-16 -6.631732E-16 5
v 15 0.15 5
v 15 -6.394884E-16 5
v 1.666667 -6.394884E-16 5
v 1.670219 0.15 5
v 1.670219 0.15 -5
v 1.666667 5.921189E-16 -5
v 15 5.921189E-16 -5
v 15 0.15 -5
v 15 -0.5 -5
v 1.666667 -0.5 -5
v -6.166664E-16 5.921189E-16 -5
v -6.166664E-16 -0.5 -5
v 15 0.15 -5
v 15 0.15 5
v 1.670219 0.15 5
v 1.670219 0.15 -5
v 15 0.15 -5
v 15 5.921189E-16 -5
v 15 -6.394884E-16 5
v 15 0.15 5
v 1.666667 -6.394884E-16 5
v 1.666667 -0.5 5
v 5.703744E-16 -0.5 5
v 5.703744E-16 -6.631732E-16 5
v 15 -6.394884E-16 5
v 15 -0.5 5
v 15 -0.5 5
v 15 -6.394884E-16 5
v 15 5.921189E-16 -5
v 15 -0.5 -5
vt 0.8644421 0.3271872
vt 0.8647157 0.3271872
vt 0.8647157 0.2914701
vt 0.8644421 0.2914701
vt 0.3639001 0.9958429
vt 0.3639001 0.7614968
vt 0.3248472 0.7615066
vt 0.3248472 0.9958429
vt 0.8434777 0.2876446
vt 0.8434777 0.3352675
vt 0.843751 0.3352675
vt 0.843751 0.2876574
vt 0.2653193 0.4640409
vt 0.2653193 0.416418
vt 0.265046 0.4164306
vt 0.265046 0.4640409
vt 0.2662305 0.4640409
vt 0.2662305 0.416418
vt 0.2653193 0.410465
vt 0.2662305 0.410465
vt 0.004156177 0.7531914
vt 0.3165264 0.7531914
vt 0.3165264 0.5188513
vt 0.004156177 0.5188513
vt 0.5127658 0.1292003
vt 0.4770486 0.1292003
vt 0.4770486 0.1294737
vt 0.5127658 0.1294737
vt 0.6390655 0.2658122
vt 0.6390655 0.271765
vt 0.6399766 0.271765
vt 0.6399766 0.2658122
vt 0.6399766 0.3193878
vt 0.6390655 0.3193878
vt 0.7215181 0.9771183
vt 0.7572353 0.9771183
vt 0.7572353 0.9762071
vt 0.7215181 0.9762071
vt 0.8647157 0.2914701
vt 0.8647157 0.3271872
vt 0.8644421 0.3271872
vt 0.8644421 0.2914701
vt 0.3248472 0.7615066
vt 0.3639001 0.7614968
vt 0.3639001 0.9958429
vt 0.3248472 0.9958429
vt 0.843751 0.3352675
vt 0.8434777 0.3352675
vt 0.8434777 0.2876446
vt 0.843751 0.2876574
vt 0.265046 0.4164306
vt 0.2653193 0.416418
vt 0.2653193 0.4640409
vt 0.265046 0.4640409
vt 0.2662305 0.4640409
vt 0.2662305 0.416418
vt 0.2653193 0.410465
vt 0.2662305 0.410465
vt 0.3165264 0.5188513
vt 0.3165264 0.7531914
vt 0.004156177 0.7531914
vt 0.004156177 0.5188513
vt 0.4770486 0.1294737
vt 0.4770486 0.1292003
vt 0.5127658 0.1292003
vt 0.5127658 0.1294737
vt 0.6399766 0.271765
vt 0.6390655 0.271765
vt 0.6390655 0.2658122
vt 0.6399766 0.2658122
vt 0.6399766 0.3193878
vt 0.6390655 0.3193878
vt 0.7572353 0.9762071
vt 0.7572353 0.9771183
vt 0.7215181 0.9771183
vt 0.7215181 0.9762071
vn 0.9997196 0.02367808 0
vn 0.9997196 0.02367808 0
vn 0.9997196 0.02367808 0
vn 0.9997196 0.02367808 0
vn 0 1 0
vn 0 1 0
vn 0 1 0
vn 0 1 0
vn 0 0 1
vn 0 0 1
vn 0 0 1
vn 0 0 1
vn 0 0 -1
vn 0 0 -1
vn 0 0 -1
vn 0 0 -1
vn 0 0 -1
vn 0 0 -1
vn 0 0 -1
vn 0 0 -1
vn 0 1 0
vn 0 1 0
vn 0 1 0
vn 0 1 0
vn -1 0 0
vn -1 0 0
vn -1 0 0
vn -1 0 0
vn 0 0 1
vn 0 0 1
vn 0 0 1
vn 0 0 1
vn 0 0 1
vn 0 0 1
vn -1 0 0
vn -1 0 0
vn -1 0 0
vn -1 0 0
vn -0.9997196 0.02367808 0
vn -0.9997196 0.02367808 0
vn -0.9997196 0.02367808 0
vn -0.9997196 0.02367808 0
vn 0 1 0
vn 0 1 0
vn 0 1 0
vn 0 1 0
vn 0 0 1
vn 0 0 1
vn 0 0 1
vn 0 0 1
vn 0 0 -1
vn 0 0 -1
vn 0 0 -1
vn 0 0 -1
vn 0 0 -1
vn 0 0 -1
vn 0 0 -1
vn 0 0 -1
vn 0 1 0
vn 0 1 0
vn 0 1 0
vn 0 1 0
vn 1 0 0
vn 1 0 0
vn 1 0 0
vn 1 0 0
vn 0 0 1
vn 0 0 1
vn 0 0 1
vn 0 0 1
vn 0 0 1
vn 0 0 1
vn 1 0 0
vn 1 0 0
vn 1 0 0
vn 1 0 0
g floor_0
f 3/3/3 2/2/2 1/1/1
f 4/4/4 3/3/3 1/1/1
f 7/7/7 6/6/6 5/5/5
f 8/8/8 7/7/7 5/5/5
f 11/11/11 10/10/10 9/9/9
f 12/12/12 11/11/11 9/9/9
f 15/15/15 14/14/14 13/13/13
f 16/16/16 15/15/15 13/13/13
f 13/13/13 14/14/14 17/17/17
f 14/14/14 18/18/18 17/17/17
f 14/14/14 19/19/19 18/18/18
f 19/19/19 20/20/20 18/18/18
f 23/23/23 22/22/22 21/21/21
f 24/24/24 23/23/23 21/21/21
f 27/27/27 26/26/26 25/25/25
f 28/28/28 27/27/27 25/25/25
f 31/31/31 30/30/30 29/29/29
f 32/32/32 31/31/31 29/29/29
f 30/30/30 31/31/31 33/33/33
f 34/34/34 30/30/30 33/33/33
f 37/37/37 36/36/36 35/35/35
f 38/38/38 37/37/37 35/35/35
f 41/41/41 40/40/40 39/39/39
f 42/42/42 41/41/41 39/39/39
f 45/45/45 44/44/44 43/43/43
f 46/46/46 45/45/45 43/43/43
f 49/49/49 48/48/48 47/47/47
f 50/50/50 49/49/49 47/47/47
f 53/53/53 52/52/52 51/51/51
f 54/54/54 53/53/53 51/51/51
f 53/53/53 55/55/55 52/52/52
f 55/55/55 56/56/56 52/52/52
f 52/52/52 56/56/56 57/57/57
f 56/56/56 58/58/58 57/57/57
f 61/61/61 60/60/60 59/59/59
f 62/62/62 61/61/61 59/59/59
f 65/65/65 64/64/64 63/63/63
f 66/66/66 65/65/65 63/63/63
f 69/69/69 68/68/68 67/67/67
f 70/70/70 69/69/69 67/67/67
f 71/71/71 67/67/67 68/68/68
f 72/72/72 71/71/71 68/68/68
f 75/75/75 74/74/74 73/73/73
f 76/76/76 75/75/75 73/73/73
