g floor
v -1.666667 -0.5 5
v -15 -0.5 5
v -15 -1.21266E-14 5
v -1.666667 -1.21266E-14 5
v 6.119151E-16 -0.5 5
v 6.119151E-16 -4.244308E-14 5
v -15 0.15 5
v -1.670219 0.15 5
v -6.127316E-16 -0.5 -5
v -6.127316E-16 -4.244308E-14 -5
v -1.666667 -1.21266E-14 -5
v -1.666667 -0.5 -5
v -15 -0.5 -5
v -15 -1.21266E-14 -5
v -1.670219 0.15 -5
v -15 0.15 -5
v -6.127316E-16 -4.244308E-14 -5
v 6.119151E-16 -4.244308E-14 5
v -1.666667 -1.21266E-14 5
v -1.666667 -1.21266E-14 -5
v -1.666667 -1.21266E-14 5
v -1.670219 0.15 5
v -1.670219 0.15 -5
v -1.666667 -1.21266E-14 -5
v -15 -0.5 5
v -15 -0.5 -5
v -15 -1.21266E-14 -5
v -15 -1.21266E-14 5
v -15 0.15 -5
v -15 0.15 5
v -1.670219 0.15 5
v -15 0.15 5
v -15 0.15 -5
v -1.670219 0.15 -5
v 15 -3.031649E-14 5
v 15 -0.5 5
v 1.666667 -0.5 5
v 1.666667 -3.031649E-14 5
v 6.119151E-16 -0.5 5
v 6.119151E-16 -4.244308E-14 5
v 15 0.15 5
v 1.670219 0.15 5
v 1.666667 -3.031649E-14 -5
v -6.127316E-16 -4.244308E-14 -5
v -6.127316E-16 -0.5 -5
v 1.666667 -0.5 -5
v 15 -0.5 -5
v 15 -3.031649E-14 -5
v 1.670219 0.15 -5
v 15 0.15 -5
v 1.666667 -3.031649E-14 5
v 6.119151E-16 -4.244308E-14 5
v -6.127316E-16 -4.244308E-14 -5
v 1.666667 -3.031649E-14 -5
v 1.670219 0.15 -5
v 1.670219 0.15 5
v 1.666667 -3.031649E-14 5
v 1.666667 -3.031649E-14 -5
v 15 -3.031649E-14 -5
v 15 -0.5 -5
v 15 -0.5 5
v 15 -3.031649E-14 5
v 15 0.15 -5
v 15 0.15 5
v 15 0.15 -5
v 15 0.15 5
v 1.670219 0.15 5
v 1.670219 0.15 -5
vt 0.1173345 0.5036365
vt 0.02692617 0.5036365
vt 0.02692617 0.5070383
vt 0.1173345 0.5070383
vt 0.1286355 0.5036365
vt 0.1286355 0.5070383
vt 0.02692617 0.508059
vt 0.1173104 0.508059
vt 0.0269263 0.4929409
vt 0.0269263 0.4963428
vt 0.03822723 0.4963428
vt 0.03822723 0.4929409
vt 0.1286355 0.4929409
vt 0.1286355 0.4963428
vt 0.03825134 0.4973634
vt 0.1286355 0.4973634
vt 0.325833 0.7587343
vt 0.325833 0.9968632
vt 0.3653859 0.9968632
vt 0.3653859 0.7587343
vt 0.003136573 0.7524612
vt 0.003220813 0.7524612
vt 0.003220813 0.5143321
vt 0.003136573 0.5143321
vt 0.2847717 0.4465621
vt 0.2169654 0.4465621
vt 0.2169654 0.449964
vt 0.2847717 0.449964
vt 0.2169654 0.4509845
vt 0.2847717 0.4509845
vt 0.003220813 0.7524612
vt 0.3195599 0.7524612
vt 0.3195599 0.5143321
vt 0.003220813 0.5143321
vt 0.02692617 0.5070383
vt 0.02692617 0.5036365
vt 0.1173345 0.5036365
vt 0.1173345 0.5070383
vt 0.1286355 0.5036365
vt 0.1286355 0.5070383
vt 0.02692617 0.508059
vt 0.1173104 0.508059
vt 0.03822723 0.4963428
vt 0.0269263 0.4963428
vt 0.0269263 0.4929409
vt 0.03822723 0.4929409
vt 0.1286355 0.4929409
vt 0.1286355 0.4963428
vt 0.03825134 0.4973634
vt 0.1286355 0.4973634
vt 0.3653859 0.9968632
vt 0.325833 0.9968632
vt 0.325833 0.7587343
vt 0.3653859 0.7587343
vt 0.003220813 0.5143321
vt 0.003220813 0.7524612
vt 0.003136573 0.7524612
vt 0.003136573 0.5143321
vt 0.2169654 0.449964
vt 0.2169654 0.4465621
vt 0.2847717 0.4465621
vt 0.2847717 0.449964
vt 0.2169654 0.4509845
vt 0.2847717 0.4509845
vt 0.3195599 0.5143321
vt 0.3195599 0.7524612
vt 0.003220813 0.7524612
vt 0.003220813 0.5143321
vn 0 0 1
vn 0 0 1
vn 0 0 1
vn 0 0 1
vn 0 0 1
vn 0 0 1
vn 0 0 1
vn 0 0 1
vn 0 0 -1
vn 0 0 -1
vn 0 0 -1
vn 0 0 -1
vn 0 0 -1
vn 0 0 -1
vn 0 0 -1
vn 0 0 -1
vn 0 1 0
vn 0 1 0
vn 0 1 0
vn 0 1 0
vn 0.9997196 0.02367808 0
vn 0.9997196 0.02367808 0
vn 0.9997196 0.02367808 0
vn 0.9997196 0.02367808 0
vn -1 0 0
vn -1 0 0
vn -1 0 0
vn -1 0 0
vn -1 0 0
vn -1 0 0
vn 0 1 0
vn 0 1 0
vn 0 1 0
vn 0 1 0
vn 0 0 1
vn 0 0 1
vn 0 0 1
vn 0 0 1
vn 0 0 1
vn 0 0 1
vn 0 0 1
vn 0 0 1
vn 0 0 -1
vn 0 0 -1
vn 0 0 -1
vn 0 0 -1
vn 0 0 -1
vn 0 0 -1
vn 0 0 -1
vn 0 0 -1
vn 0 1 0
vn 0 1 0
vn 0 1 0
vn 0 1 0
vn -0.9997196 0.02367808 0
vn -0.9997196 0.02367808 0
vn -0.9997196 0.02367808 0
vn -0.9997196 0.02367808 0
vn 1 0 0
vn 1 0 0
vn 1 0 0
vn 1 0 0
vn 1 0 0
vn 1 0 0
vn 0 1 0
vn 0 1 0
vn 0 1 0
vn 0 1 0
g floor_0
f 3/3/3 2/2/2 1/1/1
f 4/4/4 3/3/3 1/1/1
f 4/4/4 1/1/1 5/5/5
f 6/6/6 4/4/4 5/5/5
f 7/7/7 3/3/3 4/4/4
f 8/8/8 7/7/7 4/4/4
f 11/11/11 10/10/10 9/9/9
f 12/12/12 11/11/11 9/9/9
f 11/11/11 12/12/12 13/13/13
f 14/14/14 11/11/11 13/13/13
f 15/15/15 11/11/11 14/14/14
f 16/16/16 15/15/15 14/14/14
f 19/19/19 18/18/18 17/17/17
f 20/20/20 19/19/19 17/17/17
f 23/23/23 22/22/22 21/21/21
f 24/24/24 23/23/23 21/21/21
f 27/27/27 26/26/26 25/25/25
f 28/28/28 27/27/27 25/25/25
f 29/29/29 27/27/27 28/28/28
f 30/30/30 29/29/29 28/28/28
f 33/33/33 32/32/32 31/31/31
f 34/34/34 33/33/33 31/31/31
f 37/37/37 36/36/36 35/35/35
f 38/38/38 37/37/37 35/35/35
f 39/39/39 37/37/37 38/38/38
f 40/40/40 39/39/39 38/38/38
f 38/38/38 35/35/35 41/41/41
f 42/42/42 38/38/38 41/41/41
f 45/45/45 44/44/44 43/43/43
f 46/46/46 45/45/45 43/43/43
f 47/47/47 46/46/46 43/43/43
f 48/48/48 47/47/47 43/43/43
f 48/48/48 43/43/43 49/49/49
f 50/50/50 48/48/48 49/49/49
f 53/53/53 52/52/52 51/51/51
f 54/54/54 53/53/53 51/51/51
f 57/57/57 56/56/56 55/55/55
f 58/58/58 57/57/57 55/55/55
f 61/61/61 60/60/60 59/59/59
f 62/62/62 61/61/61 59/59/59
f 62/62/62 59/59/59 63/63/63
f 64/64/64 62/62/62 63/63/63
f 67/67/67 66/66/66 65/65/65
f 68/68/68 67/67/67 65/65/65
