g mgr_left
v 0.07386497 2.15512 -0.1783246
v 0.1783261 2.15512 -0.07386348
v -1.716482E-07 2.521286 1.700067E-06
v 1.365233 1.28407 0.5654995
v 0.5654978 1.28407 1.365234
v 0.6581771 1.652476 1.588982
v 1.58898 1.652476 0.6581787
v 1.273514 1.652476 0.5275083
v 0.5275065 1.652476 1.273515
v 0.07386498 2.15512 0.1783279
v 0.1783261 2.15512 0.07386683
v -0.07386535 2.15512 -0.1783246
v 0.07386497 2.15512 -0.1783246
v -1.716482E-07 2.521286 1.700067E-06
v 1.365233 1.28407 -0.5654964
v 1.365233 1.28407 0.5654995
v 1.58898 1.652476 0.6581787
v 1.58898 1.652476 -0.6581756
v 1.273513 1.652476 -0.527505
v 1.273514 1.652476 0.5275083
v 0.1783261 2.15512 0.07386683
v 0.1783261 2.15512 -0.07386348
v -0.1783264 2.15512 -0.07386347
v -0.07386535 2.15512 -0.1783246
v -1.716482E-07 2.521286 1.700067E-06
v 0.5654977 1.28407 -1.365231
v 1.365233 1.28407 -0.5654964
v 1.58898 1.652476 -0.6581756
v 0.658177 1.652476 -1.588979
v 0.5275064 1.652476 -1.273512
v 1.273513 1.652476 -0.527505
v 0.1783261 2.15512 -0.07386348
v 0.07386497 2.15512 -0.1783246
v -0.1783264 2.15512 0.07386684
v -0.1783264 2.15512 -0.07386347
v -1.716482E-07 2.521286 1.700067E-06
v -0.5654982 1.28407 -1.365231
v 0.5654977 1.28407 -1.365231
v 0.658177 1.652476 -1.588979
v -0.6581775 1.652476 -1.588979
v -0.5275069 1.652476 -1.273512
v 0.5275064 1.652476 -1.273512
v 0.07386497 2.15512 -0.1783246
v -0.07386535 2.15512 -0.1783246
v -0.07386533 2.15512 0.178328
v -0.1783264 2.15512 0.07386684
v -1.716482E-07 2.521286 1.700067E-06
v -1.365233 1.28407 -0.5654963
v -0.5654982 1.28407 -1.365231
v -0.6581775 1.652476 -1.588979
v -1.588981 1.652476 -0.6581755
v -1.273514 1.652476 -0.5275049
v -0.5275069 1.652476 -1.273512
v -0.07386535 2.15512 -0.1783246
v -0.1783264 2.15512 -0.07386347
v 0.07386498 2.15512 0.1783279
v -0.07386533 2.15512 0.178328
v -1.716482E-07 2.521286 1.700067E-06
v -1.365233 1.28407 0.5654997
v -1.365233 1.28407 -0.5654963
v -1.588981 1.652476 -0.6581755
v -1.588981 1.652476 0.6581789
v -1.273514 1.652476 0.5275084
v -1.273514 1.652476 -0.5275049
v -0.1783264 2.15512 -0.07386347
v -0.1783264 2.15512 0.07386684
v 0.1783261 2.15512 0.07386683
v 0.07386498 2.15512 0.1783279
v -1.716482E-07 2.521286 1.700067E-06
v -0.5654981 1.28407 1.365234
v -1.365233 1.28407 0.5654997
v -1.588981 1.652476 0.6581789
v -0.6581773 1.652476 1.588982
v -0.5275068 1.652476 1.273515
v -1.273514 1.652476 0.5275084
v -0.1783264 2.15512 0.07386684
v -0.07386533 2.15512 0.178328
v 0.1783261 2.15512 -0.07386348
v 0.1783261 2.15512 0.07386683
v -1.716482E-07 2.521286 1.700067E-06
v 0.5654978 1.28407 1.365234
v -0.5654981 1.28407 1.365234
v -0.6581773 1.652476 1.588982
v 0.6581771 1.652476 1.588982
v 0.5275065 1.652476 1.273515
v -0.5275068 1.652476 1.273515
v -0.07386533 2.15512 0.178328
v 0.07386498 2.15512 0.1783279
v -0.5677131 1.652476 1.370582
v 0.5677128 1.652476 1.370582
v 0.5932077 1.756476 1.432132
v -0.592842 1.756476 1.431249
v -0.617971 1.652476 1.491915
v -1.491914 1.652476 0.6179726
v -1.431247 1.756476 0.5928437
v -0.592842 1.756476 1.431249
v -1.370581 1.652476 -0.5677112
v -1.370581 1.652476 0.5677147
v -1.431247 1.756476 0.5928437
v -1.431247 1.756476 -0.5928402
v -1.491914 1.652476 0.6179726
v -1.491914 1.652476 -0.6179692
v -1.431247 1.756476 -0.5928402
v -1.431247 1.756476 0.5928437
v -1.491914 1.652476 -0.6179692
v -0.6179711 1.652476 -1.491912
v -0.5928422 1.756476 -1.431245
v -1.431247 1.756476 -0.5928402
v -0.5677132 1.652476 -1.370579
v -1.370581 1.652476 -0.5677112
v -1.431247 1.756476 -0.5928402
v -0.5928422 1.756476 -1.431245
v -1.370581 1.652476 0.5677147
v -0.5677131 1.652476 1.370582
v -0.592842 1.756476 1.431249
v -1.431247 1.756476 0.5928437
v 0.6179708 1.652476 1.491915
v -0.617971 1.652476 1.491915
v -0.592842 1.756476 1.431249
v 0.5932077 1.756476 1.432132
v 1.58898 1.652476 0.6581787
v 0.6581771 1.652476 1.588982
v 0.6179708 1.652476 1.491915
v 1.491914 1.652476 0.6179725
v 1.58898 1.652476 -0.6581756
v 1.491913 1.652476 -0.6179693
v 0.658177 1.652476 -1.588979
v 0.6179706 1.652476 -1.491912
v -0.6581775 1.652476 -1.588979
v -0.6179711 1.652476 -1.491912
v -1.588981 1.652476 -0.6581755
v -1.491914 1.652476 -0.6179692
v -1.588981 1.652476 0.6581789
v -1.491914 1.652476 0.6179726
v -0.6581773 1.652476 1.588982
v -0.617971 1.652476 1.491915
v 0.5275065 1.652476 1.273515
v 1.273514 1.652476 0.5275083
v 1.37058 1.652476 0.5677146
v 0.5677128 1.652476 1.370582
v 1.37058 1.652476 -0.5677114
v 1.273513 1.652476 -0.527505
v 0.5677127 1.652476 -1.370579
v 0.5275064 1.652476 -1.273512
v -0.5677132 1.652476 -1.370579
v -0.5275069 1.652476 -1.273512
v -1.370581 1.652476 -0.5677112
v -1.273514 1.652476 -0.5275049
v -1.370581 1.652476 0.5677147
v -1.273514 1.652476 0.5275084
v -0.5677131 1.652476 1.370582
v -0.5275068 1.652476 1.273515
v 1.491914 1.652476 0.6179725
v 0.6179708 1.652476 1.491915
v 0.5932077 1.756476 1.432132
v 1.431247 1.756476 0.5928435
v 0.5677128 1.652476 1.370582
v 1.37058 1.652476 0.5677146
v 1.431247 1.756476 0.5928435
v 0.5932077 1.756476 1.432132
v 1.491913 1.652476 -0.6179693
v 1.491914 1.652476 0.6179725
v 1.431247 1.756476 0.5928435
v 1.431247 1.756476 -0.5928403
v 1.37058 1.652476 0.5677146
v 1.37058 1.652476 -0.5677114
v 1.431247 1.756476 -0.5928403
v 1.431247 1.756476 0.5928435
v 0.6179706 1.652476 -1.491912
v 1.491913 1.652476 -0.6179693
v 1.431247 1.756476 -0.5928403
v 0.5928417 1.756476 -1.431245
v 1.37058 1.652476 -0.5677114
v 0.5677127 1.652476 -1.370579
v 0.5928417 1.756476 -1.431245
v 1.431247 1.756476 -0.5928403
v -0.6179711 1.652476 -1.491912
v 0.6179706 1.652476 -1.491912
v 0.5928417 1.756476 -1.431245
v -0.5928422 1.756476 -1.431245
v 0.5677127 1.652476 -1.370579
v -0.5677132 1.652476 -1.370579
v -0.5928422 1.756476 -1.431245
v 0.5928417 1.756476 -1.431245
vt 0.1885935 0.05882013
vt 0.185961 0.05882013
vt 0.1872773 0.0660671
vt 0.2068617 0.218616
vt 0.1856621 0.218616
vt 0.183925 0.2266837
vt 0.2085988 0.2266837
vt 0.01458854 0.3236576
vt 0.02648582 0.3105861
vt 0.006418361 0.3026375
vt 0.004752438 0.3044678
vt 0.02894261 0.2913014
vt 0.02894261 0.2936647
vt 0.03546753 0.2924829
vt 0.8016613 0.6959262
vt 0.8016613 0.677833
vt 0.7947559 0.6763506
vt 0.7947559 0.6974089
vt 0.7139016 0.3941342
vt 0.7139016 0.3772565
vt 0.6945962 0.3845137
vt 0.6945962 0.3868771
vt 0.8851188 0.06390405
vt 0.8824863 0.06390405
vt 0.8838025 0.07115102
vt 0.1489578 0.2240357
vt 0.1277583 0.2240357
vt 0.1260211 0.2321033
vt 0.150695 0.2321033
vt 0.2198605 0.3285431
vt 0.2317578 0.3154716
vt 0.2116903 0.3075229
vt 0.2100244 0.3093534
vt 0.2382972 0.05231667
vt 0.2382972 0.05467987
vt 0.2448222 0.05349815
vt 0.7979392 0.8452545
vt 0.7979392 0.8633476
vt 0.8048446 0.8648303
vt 0.8048446 0.8437719
vt 0.1430472 0.2599803
vt 0.1430472 0.2768581
vt 0.1623526 0.2696009
vt 0.1623526 0.2672377
vt 0.6896747 0.05901897
vt 0.6870422 0.05901897
vt 0.6883585 0.06626606
vt 0.2402564 0.218616
vt 0.2190569 0.218616
vt 0.2173197 0.2266836
vt 0.2419937 0.2266836
vt 0.6753758 0.3545959
vt 0.687273 0.3676672
vt 0.6971092 0.3484775
vt 0.6954433 0.3466471
vt 0.9436276 0.2131289
vt 0.9436276 0.2107657
vt 0.9371027 0.2119473
vt 0.7947559 0.648054
vt 0.7947559 0.6661472
vt 0.8016613 0.6676297
vt 0.8016613 0.6465714
vt 0.1150209 0.2599803
vt 0.1150209 0.2768579
vt 0.1343263 0.2696009
vt 0.1343263 0.2672375
vt 0.6770066 0.05901885
vt 0.6743742 0.05901885
vt 0.6756905 0.06626606
vt 0.2736512 0.218616
vt 0.2524518 0.218616
vt 0.2507145 0.2266835
vt 0.2753884 0.2266835
vt 0.2013035 0.3205943
vt 0.1894062 0.3075229
vt 0.1795701 0.3267127
vt 0.1812361 0.3285432
vt 0.260068 0.05467987
vt 0.260068 0.05231667
vt 0.253543 0.05349815
vt 0.6400111 0.2948326
vt 0.6400111 0.2767395
vt 0.6331057 0.2752568
vt 0.6331057 0.2963152
vt 0.4400801 0.5224009
vt 0.4400801 0.505523
vt 0.4207748 0.5127803
vt 0.4207748 0.5151439
vt 0.4794862 0.08913934
vt 0.4794862 0.1073033
vt 0.4814223 0.1077112
vt 0.4814152 0.08873737
vt 0.8126427 0.3828882
vt 0.7897193 0.3828882
vt 0.7901853 0.3851182
vt 0.8121766 0.3851182
vt 0.4920722 0.1073034
vt 0.4920722 0.08913934
vt 0.4901432 0.08873737
vt 0.4901432 0.1077052
vt 0.8878202 0.09084594
vt 0.8878202 0.110618
vt 0.8897493 0.1102158
vt 0.8897493 0.09124792
vt 0.1421025 0.1275905
vt 0.119179 0.1275905
vt 0.1196451 0.1298205
vt 0.1416364 0.1298205
vt 0.6175582 0.1232783
vt 0.596499 0.1232783
vt 0.596033 0.1255082
vt 0.6180243 0.1255082
vt 0.6482704 0.1232783
vt 0.6272113 0.1232783
vt 0.6267453 0.1255082
vt 0.6487365 0.1255082
vt 0.8428801 0.6454915
vt 0.8428801 0.6257195
vt 0.840951 0.6261215
vt 0.8409581 0.6450954
vt 0.2662295 0.5654809
vt 0.2811416 0.5505902
vt 0.2795865 0.5499471
vt 0.2655853 0.5639279
vt 0.2451403 0.5654809
vt 0.2457845 0.5639279
vt 0.2302281 0.5505902
vt 0.2317832 0.5499471
vt 0.2302281 0.5295317
vt 0.2317832 0.5301751
vt 0.2451403 0.5146412
vt 0.2457845 0.516194
vt 0.2662295 0.5146412
vt 0.2655853 0.516194
vt 0.2811416 0.5295317
vt 0.2795865 0.5301751
vt 0.04672106 0.5408117
vt 0.03476937 0.5527461
vt 0.03541355 0.5542988
vt 0.04827612 0.541455
vt 0.01722303 0.5542988
vt 0.01786721 0.5527461
vt 0.00436044 0.541455
vt 0.00591556 0.5408117
vt 0.00436044 0.5232909
vt 0.00591556 0.5239341
vt 0.01722303 0.5104471
vt 0.01786721 0.5119997
vt 0.03541355 0.5104471
vt 0.03476937 0.5119997
vt 0.04827612 0.5232911
vt 0.04672106 0.5239341
vt 0.1736607 0.1275905
vt 0.1508234 0.1275989
vt 0.1512817 0.129812
vt 0.1731972 0.129812
vt 0.8531972 0.1278565
vt 0.8321364 0.1278647
vt 0.8316712 0.1300949
vt 0.853671 0.1300949
vt 0.9011402 0.110618
vt 0.9011402 0.09084582
vt 0.8992112 0.09124756
vt 0.8992112 0.1102158
vt 0.9071047 0.4132572
vt 0.9071047 0.4314213
vt 0.9090337 0.4318233
vt 0.9090337 0.4128554
vt 0.08618635 0.1275905
vt 0.06326285 0.1275905
vt 0.06372907 0.1298205
vt 0.08572036 0.1298205
vt 0.5868462 0.1232783
vt 0.565787 0.1232783
vt 0.5653208 0.1255082
vt 0.5873122 0.1255082
vt 0.4688362 0.08873737
vt 0.4688362 0.1085093
vt 0.4707654 0.1081073
vt 0.4707654 0.08913934
vt 0.502722 0.1073033
vt 0.502722 0.08913934
vt 0.5007931 0.08873737
vt 0.5007931 0.1077054
vn 0.6357246 0.4378451 -0.6357247
vn 0.6357246 0.4378451 -0.6357247
vn 0.6357246 0.4378451 -0.6357247
vn 0.6043733 -0.5191011 0.6043732
vn 0.6043733 -0.5191011 0.6043732
vn 0.6043733 -0.5191011 0.6043732
vn 0.6043733 -0.5191011 0.6043732
vn 0.2949505 0.90885 0.2949505
vn 0.2949505 0.90885 0.2949505
vn 0.2949505 0.90885 0.2949505
vn 0.2949505 0.90885 0.2949505
vn 0 0.4378452 -0.8990504
vn 0 0.4378452 -0.8990504
vn 0 0.4378452 -0.8990504
vn 0.8547128 -0.5191011 0
vn 0.8547128 -0.5191011 0
vn 0.8547128 -0.5191011 0
vn 0.8547128 -0.5191011 0
vn 0.417123 0.90885 0
vn 0.417123 0.90885 0
vn 0.417123 0.90885 0
vn 0.417123 0.90885 0
vn -0.6357247 0.4378452 -0.6357246
vn -0.6357247 0.4378452 -0.6357246
vn -0.6357247 0.4378452 -0.6357246
vn 0.6043732 -0.5191011 -0.6043733
vn 0.6043732 -0.5191011 -0.6043733
vn 0.6043732 -0.5191011 -0.6043733
vn 0.6043732 -0.5191011 -0.6043733
vn 0.2949505 0.9088501 -0.2949505
vn 0.2949505 0.9088501 -0.2949505
vn 0.2949505 0.9088501 -0.2949505
vn 0.2949505 0.9088501 -0.2949505
vn -0.8990504 0.4378451 0
vn -0.8990504 0.4378451 0
vn -0.8990504 0.4378451 0
vn 0 -0.519101 -0.8547129
vn 0 -0.519101 -0.8547129
vn 0 -0.519101 -0.8547129
vn 0 -0.519101 -0.8547129
vn 0 0.9088501 -0.4171229
vn 0 0.9088501 -0.4171229
vn 0 0.9088501 -0.4171229
vn 0 0.9088501 -0.4171229
vn -0.6357246 0.4378451 0.6357247
vn -0.6357246 0.4378451 0.6357247
vn -0.6357246 0.4378451 0.6357247
vn -0.6043733 -0.519101 -0.6043733
vn -0.6043733 -0.519101 -0.6043733
vn -0.6043733 -0.519101 -0.6043733
vn -0.6043733 -0.519101 -0.6043733
vn -0.2949505 0.9088501 -0.2949504
vn -0.2949505 0.9088501 -0.2949504
vn -0.2949505 0.9088501 -0.2949504
vn -0.2949505 0.9088501 -0.2949504
vn 0 0.4378451 0.8990504
vn 0 0.4378451 0.8990504
vn 0 0.4378451 0.8990504
vn -0.8547128 -0.5191011 0
vn -0.8547128 -0.5191011 0
vn -0.8547128 -0.5191011 0
vn -0.8547128 -0.5191011 0
vn -0.417123 0.9088501 0
vn -0.417123 0.9088501 0
vn -0.417123 0.9088501 0
vn -0.417123 0.9088501 0
vn 0.6357247 0.4378451 0.6357246
vn 0.6357247 0.4378451 0.6357246
vn 0.6357247 0.4378451 0.6357246
vn -0.6043732 -0.5191011 0.6043733
vn -0.6043732 -0.5191011 0.6043733
vn -0.6043732 -0.5191011 0.6043733
vn -0.6043732 -0.5191011 0.6043733
vn -0.2949505 0.9088501 0.2949505
vn -0.2949505 0.9088501 0.2949505
vn -0.2949505 0.9088501 0.2949505
vn -0.2949505 0.9088501 0.2949505
vn 0.8990504 0.4378451 0
vn 0.8990504 0.4378451 0
vn 0.8990504 0.4378451 0
vn 0 -0.5191011 0.8547128
vn 0 -0.5191011 0.8547128
vn 0 -0.5191011 0.8547128
vn 0 -0.5191011 0.8547128
vn 0 0.90885 0.417123
vn 0 0.90885 0.417123
vn 0 0.90885 0.417123
vn 0 0.90885 0.417123
vn 0.0003279911 0.5065996 -0.8621814
vn 0.0003279911 0.5065996 -0.8621814
vn 0.0003279911 0.5065996 -0.8621814
vn 0.0003279911 0.5065996 -0.8621814
vn -0.6107839 0.503871 0.610784
vn -0.6107839 0.503871 0.610784
vn -0.6107839 0.503871 0.610784
vn -0.6107839 0.503871 0.610784
vn 0.8637789 0.503871 0
vn 0.8637789 0.503871 0
vn 0.8637789 0.503871 0
vn 0.8637789 0.503871 0
vn -0.8637789 0.503871 0
vn -0.8637789 0.503871 0
vn -0.8637789 0.503871 0
vn -0.8637789 0.503871 0
vn -0.6107839 0.503871 -0.6107838
vn -0.6107839 0.503871 -0.6107838
vn -0.6107839 0.503871 -0.6107838
vn -0.6107839 0.503871 -0.6107838
vn 0.6107839 0.503871 0.6107839
vn 0.6107839 0.503871 0.6107839
vn 0.6107839 0.503871 0.6107839
vn 0.6107839 0.503871 0.6107839
vn 0.6107839 0.503871 -0.6107839
vn 0.6107839 0.503871 -0.6107839
vn 0.6107839 0.503871 -0.6107839
vn 0.6107839 0.503871 -0.6107839
vn -0.0003155246 0.5011272 0.8653736
vn -0.0003155246 0.5011272 0.8653736
vn -0.0003155246 0.5011272 0.8653736
vn -0.0003155246 0.5011272 0.8653736
vn 0 1 0
vn 0 1 0
vn 0 1 0
vn 0 1 0
vn 0 1 0
vn 0 1 0
vn 0 1 0
vn 0 1 0
vn 0 1 0
vn 0 1 0
vn 0 1 0
vn 0 1 0
vn 0 1 0
vn 0 1 0
vn 0 1 0
vn 0 1 0
vn 0 1 0
vn 0 1 0
vn 0 1 0
vn 0 1 0
vn 0 1 0
vn 0 1 0
vn 0 1 0
vn 0 1 0
vn 0 1 0
vn 0 1 0
vn 0 1 0
vn 0 1 0
vn 0 1 0
vn 0 1 0
vn 0 1 0
vn 0 1 0
vn 0.6121347 0.5011272 0.6116884
vn 0.6121347 0.5011272 0.6116884
vn 0.6121347 0.5011272 0.6116884
vn 0.6121347 0.5011272 0.6116884
vn -0.6098863 0.5065997 -0.6094223
vn -0.6098863 0.5065997 -0.6094223
vn -0.6098863 0.5065997 -0.6094223
vn -0.6098863 0.5065997 -0.6094223
vn 0.8637789 0.503871 0
vn 0.8637789 0.503871 0
vn 0.8637789 0.503871 0
vn 0.8637789 0.503871 0
vn -0.8637789 0.503871 0
vn -0.8637789 0.503871 0
vn -0.8637789 0.503871 0
vn -0.8637789 0.503871 0
vn 0.6107839 0.503871 -0.6107839
vn 0.6107839 0.503871 -0.6107839
vn 0.6107839 0.503871 -0.6107839
vn 0.6107839 0.503871 -0.6107839
vn -0.6107839 0.503871 0.610784
vn -0.6107839 0.503871 0.610784
vn -0.6107839 0.503871 0.610784
vn -0.6107839 0.503871 0.610784
vn 0 0.5038711 -0.8637789
vn 0 0.5038711 -0.8637789
vn 0 0.5038711 -0.8637789
vn 0 0.5038711 -0.8637789
vn 0 0.503871 0.8637789
vn 0 0.503871 0.8637789
vn 0 0.503871 0.8637789
vn 0 0.503871 0.8637789
g mgr_left_0
f 3/3/3 2/2/2 1/1/1
f 6/6/6 5/5/5 4/4/4
f 7/7/7 6/6/6 4/4/4
f 10/10/10 9/9/9 8/8/8
f 11/11/11 10/10/10 8/8/8
f 14/14/14 13/13/13 12/12/12
f 17/17/17 16/16/16 15/15/15
f 18/18/18 17/17/17 15/15/15
f 21/21/21 20/20/20 19/19/19
f 22/22/22 21/21/21 19/19/19
f 25/25/25 24/24/24 23/23/23
f 28/28/28 27/27/27 26/26/26
f 29/29/29 28/28/28 26/26/26
f 32/32/32 31/31/31 30/30/30
f 33/33/33 32/32/32 30/30/30
f 36/36/36 35/35/35 34/34/34
f 39/39/39 38/38/38 37/37/37
f 40/40/40 39/39/39 37/37/37
f 43/43/43 42/42/42 41/41/41
f 44/44/44 43/43/43 41/41/41
f 47/47/47 46/46/46 45/45/45
f 50/50/50 49/49/49 48/48/48
f 51/51/51 50/50/50 48/48/48
f 54/54/54 53/53/53 52/52/52
f 55/55/55 54/54/54 52/52/52
f 58/58/58 57/57/57 56/56/56
f 61/61/61 60/60/60 59/59/59
f 62/62/62 61/61/61 59/59/59
f 65/65/65 64/64/64 63/63/63
f 66/66/66 65/65/65 63/63/63
f 69/69/69 68/68/68 67/67/67
f 72/72/72 71/71/71 70/70/70
f 73/73/73 72/72/72 70/70/70
f 76/76/76 75/75/75 74/74/74
f 77/77/77 76/76/76 74/74/74
f 80/80/80 79/79/79 78/78/78
f 83/83/83 82/82/82 81/81/81
f 84/84/84 83/83/83 81/81/81
f 87/87/87 86/86/86 85/85/85
f 88/88/88 87/87/87 85/85/85
f 91/91/91 90/90/90 89/89/89
f 92/92/92 91/91/91 89/89/89
f 95/95/95 94/94/94 93/93/93
f 96/96/96 95/95/95 93/93/93
f 99/99/99 98/98/98 97/97/97
f 100/100/100 99/99/99 97/97/97
f 103/103/103 102/102/102 101/101/101
f 104/104/104 103/103/103 101/101/101
f 107/107/107 106/106/106 105/105/105
f 108/108/108 107/107/107 105/105/105
f 111/111/111 110/110/110 109/109/109
f 112/112/112 111/111/111 109/109/109
f 115/115/115 114/114/114 113/113/113
f 116/116/116 115/115/115 113/113/113
f 119/119/119 118/118/118 117/117/117
f 120/120/120 119/119/119 117/117/117
f 123/123/123 122/122/122 121/121/121
f 124/124/124 123/123/123 121/121/121
f 124/124/124 121/121/121 125/125/125
f 126/126/126 124/124/124 125/125/125
f 126/126/126 125/125/125 127/127/127
f 128/128/128 126/126/126 127/127/127
f 128/128/128 127/127/127 129/129/129
f 130/130/130 128/128/128 129/129/129
f 130/130/130 129/129/129 131/131/131
f 132/132/132 130/130/130 131/131/131
f 132/132/132 131/131/131 133/133/133
f 134/134/134 132/132/132 133/133/133
f 134/134/134 133/133/133 135/135/135
f 136/136/136 134/134/134 135/135/135
f 136/136/136 135/135/135 122/122/122
f 123/123/123 136/136/136 122/122/122
f 139/139/139 138/138/138 137/137/137
f 140/140/140 139/139/139 137/137/137
f 139/139/139 141/141/141 138/138/138
f 141/141/141 142/142/142 138/138/138
f 141/141/141 143/143/143 142/142/142
f 143/143/143 144/144/144 142/142/142
f 143/143/143 145/145/145 144/144/144
f 145/145/145 146/146/146 144/144/144
f 145/145/145 147/147/147 146/146/146
f 147/147/147 148/148/148 146/146/146
f 147/147/147 149/149/149 148/148/148
f 149/149/149 150/150/150 148/148/148
f 149/149/149 151/151/151 150/150/150
f 151/151/151 152/152/152 150/150/150
f 140/140/140 137/137/137 152/152/152
f 151/151/151 140/140/140 152/152/152
f 155/155/155 154/154/154 153/153/153
f 156/156/156 155/155/155 153/153/153
f 159/159/159 158/158/158 157/157/157
f 160/160/160 159/159/159 157/157/157
f 163/163/163 162/162/162 161/161/161
f 164/164/164 163/163/163 161/161/161
f 167/167/167 166/166/166 165/165/165
f 168/168/168 167/167/167 165/165/165
f 171/171/171 170/170/170 169/169/169
f 172/172/172 171/171/171 169/169/169
f 175/175/175 174/174/174 173/173/173
f 176/176/176 175/175/175 173/173/173
f 179/179/179 178/178/178 177/177/177
f 180/180/180 179/179/179 177/177/177
f 183/183/183 182/182/182 181/181/181
f 184/184/184 183/183/183 181/181/181
