g ParticleMesh_Pulse_Facing
v 0.05462646 0.1448074 -0.01897987
v 0.03145973 0.6656462 0.02004814
v 0.1350839 0.6522804 0.01985124
v 0.235464 0.6229401 0.01959043
v 0.3301546 0.5785481 0.01927255
v 0.4167117 0.5200301 0.018905
v 0.00775052 0.15342 -0.01888001
v -0.07296303 0.6621121 0.02017269
v -0.04031944 0.1474185 -0.01884124
v -0.175663 0.6423678 0.02022571
v -0.2741187 0.6071035 0.02020568
v -0.08475406 0.1281235 -0.01886478
v -0.3658088 0.5570081 0.02011344
v -0.1207243 0.09685575 -0.01895101
v -0.4482117 0.4927715 0.01994728
v -0.5196926 0.4164331 0.01971473
v -0.5786172 0.3300334 0.01942184
v -0.6233507 0.2356122 0.01907546
v -0.1434011 0.05493574 -0.01910108
v -0.6522586 0.1352087 0.0186827
v -0.1525479 0.00736433 -0.01929345
v -0.6652173 0.03143482 0.01825294
v -0.6621035 -0.07309811 0.01779914
v -0.1479284 -0.04085746 -0.01950729
v -0.6427941 -0.1757801 0.01733097
v -0.1293064 -0.08472912 -0.01972109
v -0.607165 -0.2739988 0.01686077
v -0.5566518 -0.3655707 0.0163985
v -0.492689 -0.4483091 0.01595663
v -0.4167118 -0.5200303 0.01554623
v -0.09644546 -0.1192496 -0.01991368
v -0.3301551 -0.5785487 0.01517828
v -0.05402862 -0.1426488 -0.02007137
v -0.2354642 -0.6229402 0.01486015
v -0.135084 -0.6522807 0.0145993
v -0.006739015 -0.1531565 -0.02018001
v -0.03145958 -0.6656462 0.01440288
v 0.04074034 -0.1490029 -0.02022571
v 0.07296284 -0.6621119 0.01427776
v 0.175663 -0.6423683 0.01422523
v 0.2741186 -0.6071038 0.01424514
v 0.3658086 -0.5570086 0.01433738
v 0.08372621 -0.1284176 -0.02019491
v 0.4482117 -0.4927715 0.01450332
v 0.1190881 -0.09530779 -0.02009974
v 0.5196927 -0.4164337 0.01473617
v 0.5786171 -0.3300336 0.01502876
v 0.1436953 -0.05358 -0.0199532
v 0.6233507 -0.2356124 0.01537525
v 0.1544171 -0.007141352 -0.01976775
v 0.6522587 -0.1352091 0.01576877
v 0.6652173 -0.03143539 0.01619792
v 0.6621037 0.07309785 0.01665203
v 0.6427939 0.1757797 0.01711994
v 0.1481229 0.04010131 -0.01955587
v 0.607165 0.2739984 0.01759
v 0.127561 0.08396358 -0.01933965
v 0.5566518 0.36557 0.01805192
v 0.4926886 0.4483082 0.01849401
v 0.09547943 0.1202606 -0.01914033
v 0.4167117 0.5200301 0.018905
v 0.09547943 0.1202606 -0.01914033
v 0.09547943 0.1202606 -0.01914033
v 0.05462646 0.1448074 -0.01897987
v 0.4167117 0.5200301 0.018905
vt 0.07265625 0.6992188
vt 0.1 0.5
vt 0.075 0.5
vt 0.05234375 0.5039063
vt 0.034375 0.515625
vt 0.02890625 0.5507813
vt 0.109375 0.734375
vt 0.125 0.5
vt 0.1523438 0.7460938
vt 0.15 0.5
vt 0.175 0.5
vt 0.2 0.75
vt 0.2 0.5
vt 0.25 0.75
vt 0.225 0.5
vt 0.25 0.5
vt 0.275 0.5
vt 0.3 0.5
vt 0.3 0.75
vt 0.325 0.5
vt 0.35 0.75
vt 0.35 0.5
vt 0.375 0.5
vt 0.4 0.75
vt 0.4 0.5
vt 0.45 0.75
vt 0.425 0.5
vt 0.45 0.5
vt 0.475 0.5
vt 0.5 0.5
vt 0.5 0.75
vt 0.525 0.5
vt 0.55 0.75
vt 0.55 0.5
vt 0.575 0.5
vt 0.6 0.75
vt 0.6 0.5
vt 0.65 0.75
vt 0.625 0.5
vt 0.65 0.5
vt 0.6750001 0.5
vt 0.7 0.5
vt 0.7 0.75
vt 0.725 0.5
vt 0.7492188 0.75
vt 0.7500001 0.5
vt 0.7750001 0.5
vt 0.7968751 0.75
vt 0.8000001 0.5
vt 0.8421876 0.75
vt 0.825 0.5
vt 0.8500001 0.5
vt 0.8750001 0.5
vt 0.9000001 0.5
vt 0.8843751 0.75
vt 0.9250001 0.5
vt 0.9218751 0.7460938
vt 0.9484376 0.5039063
vt 0.9687501 0.515625
vt 0.9531251 0.734375
vt 0.9820313 0.5507813
vt 0.9531251 0.734375
vt 0.9531251 0.734375
vt 0.9750001 0.6992188
vt 0.9820313 0.5507813
vn -0.02305642 -0.0688302 0.997362
vn -0.01705197 -0.07188284 0.9972672
vn -0.02361204 -0.07029826 0.9972465
vn -0.02361203 -0.07029827 0.9972465
vn -0.02361203 -0.07029827 0.9972465
vn -0.02957958 -0.06714783 0.9973044
vn 0.005413204 -0.07528511 0.9971474
vn 0.006410487 -0.07521624 0.9971467
vn 0.02009788 -0.07289535 0.9971371
vn 0.02009788 -0.07289535 0.9971371
vn 0.03306198 -0.06792794 0.9971423
vn 0.03395558 -0.06747971 0.9971426
vn 0.05156298 -0.05311991 0.997256
vn 0.05517896 -0.04743471 0.9973491
vn 0.05640353 -0.04841807 0.9972333
vn 0.05640353 -0.04841807 0.9972333
vn 0.05640353 -0.04841807 0.9972333
vn 0.059938 -0.04266728 0.9972898
vn 0.07011638 -0.02235366 0.9972883
vn 0.07035895 -0.02138467 0.9972925
vn 0.07238071 -0.007650865 0.9973477
vn 0.0723807 -0.007650868 0.9973477
vn 0.07166306 0.006213591 0.9974095
vn 0.07151296 0.007201304 0.9974137
vn 0.06329618 0.02838403 0.997591
vn 0.05900707 0.03357889 0.9976927
vn 0.06032003 0.03444255 0.9975847
vn 0.06032003 0.03444255 0.9975847
vn 0.06032003 0.03444255 0.9975847
vn 0.05594354 0.03958017 0.9976491
vn 0.03976952 0.05553695 0.9976643
vn 0.03892262 0.05606721 0.997668
vn 0.02648472 0.06223466 0.9977101
vn 0.02648474 0.06223467 0.9977101
vn 0.013076 0.06583659 0.9977448
vn 0.01208994 0.06599911 0.9977464
vn -0.0105944 0.0647301 0.9978466
vn -0.01686055 0.06225596 0.9979178
vn -0.01727474 0.06377183 0.997815
vn -0.01727474 0.06377183 0.997815
vn -0.01727474 0.06377184 0.997815
vn -0.0235134 0.06119707 0.9978486
vn -0.04368817 0.05074501 0.9977556
vn -0.0444544 0.05010325 0.9977543
vn -0.05416335 0.04018062 0.9977233
vn -0.05416334 0.04018062 0.9977233
vn -0.06173139 0.02854267 0.9976846
vn -0.06219072 0.02765502 0.997681
vn -0.067995 0.00568701 0.9976694
vn -0.06757868 -0.001036637 0.9977134
vn -0.06914812 -0.0009626884 0.9976059
vn -0.06914811 -0.0009626885 0.9976059
vn -0.06914811 -0.0009626884 0.9976059
vn -0.0686275 -0.007691066 0.9976127
vn -0.06492148 -0.03010583 0.9974361
vn -0.0645479 -0.03103279 0.9974319
vn -0.05810971 -0.0433348 0.9973692
vn -0.05810971 -0.04333479 0.9973692
vn -0.04937898 -0.05413072 0.9973122
vn -0.04867682 -0.0548418 0.9973079
vn -0.02957958 -0.06714783 0.9973044
vn -0.04867682 -0.0548418 0.9973079
vn -0.04867682 -0.0548418 0.9973079
vn -0.02305642 -0.0688302 0.997362
vn -0.02957958 -0.06714783 0.9973044
g ParticleMesh_Pulse_Facing_0
f 3/3/3 2/2/2 1/1/1
f 1/1/1 4/4/4 3/3/3
f 1/1/1 5/5/5 4/4/4
f 1/1/1 6/6/6 5/5/5
f 7/7/7 1/1/1 2/2/2
f 2/2/2 8/8/8 7/7/7
f 8/8/8 9/9/9 7/7/7
f 9/9/9 8/8/8 10/10/10
f 9/9/9 10/10/10 11/11/11
f 12/12/12 9/9/9 11/11/11
f 12/12/12 11/11/11 13/13/13
f 13/13/13 14/14/14 12/12/12
f 14/14/14 13/13/13 15/15/15
f 14/14/14 15/15/15 16/16/16
f 14/14/14 16/16/16 17/17/17
f 17/17/17 18/18/18 14/14/14
f 19/19/19 14/14/14 18/18/18
f 18/18/18 20/20/20 19/19/19
f 21/21/21 19/19/19 20/20/20
f 20/20/20 22/22/22 21/21/21
f 22/22/22 23/23/23 21/21/21
f 23/23/23 24/24/24 21/21/21
f 24/24/24 23/23/23 25/25/25
f 25/25/25 26/26/26 24/24/24
f 26/26/26 25/25/25 27/27/27
f 26/26/26 27/27/27 28/28/28
f 26/26/26 28/28/28 29/29/29
f 29/29/29 30/30/30 26/26/26
f 31/31/31 26/26/26 30/30/30
f 30/30/30 32/32/32 31/31/31
f 32/32/32 33/33/33 31/31/31
f 33/33/33 32/32/32 34/34/34
f 34/34/34 35/35/35 33/33/33
f 36/36/36 33/33/33 35/35/35
f 36/36/36 35/35/35 37/37/37
f 37/37/37 38/38/38 36/36/36
f 38/38/38 37/37/37 39/39/39
f 38/38/38 39/39/39 40/40/40
f 38/38/38 40/40/40 41/41/41
f 41/41/41 42/42/42 38/38/38
f 43/43/43 38/38/38 42/42/42
f 42/42/42 44/44/44 43/43/43
f 45/45/45 43/43/43 44/44/44
f 45/45/45 44/44/44 46/46/46
f 45/45/45 46/46/46 47/47/47
f 47/47/47 48/48/48 45/45/45
f 48/48/48 47/47/47 49/49/49
f 49/49/49 50/50/50 48/48/48
f 50/50/50 49/49/49 51/51/51
f 50/50/50 51/51/51 52/52/52
f 50/50/50 52/52/52 53/53/53
f 53/53/53 54/54/54 50/50/50
f 55/55/55 50/50/50 54/54/54
f 54/54/54 56/56/56 55/55/55
f 56/56/56 57/57/57 55/55/55
f 56/56/56 58/58/58 57/57/57
f 58/58/58 59/59/59 57/57/57
f 60/60/60 57/57/57 59/59/59
f 62/62/62 59/59/59 61/61/61
f 65/65/65 64/64/64 63/63/63
