g piece1
v 2.999203 1.89184 -0.454458
v 2.401336 -1.011537 -2.480369
v 2.487646 -1.469187 -1.279151
v 2.978249 0.9132893 0.3832876
v 2.978249 0.9132893 0.3832876
v 2.487646 -1.469187 -1.279151
v 1.624318 -1.11447 -0.3910867
v 1.900392 0.2262063 0.5444075
v 1.003916 1.724486 2.414189
v 0.7893876 0.6826863 1.687245
v -1.461018 0.1532062 2.782652
v -0.5976905 -0.2015107 1.894587
v -1.951621 -2.22927 1.120213
v -0.8737643 -1.542187 0.9590932
v 0.02271111 -3.040467 -0.9106885
v 0.2372398 -1.998667 -0.1837439
v 1.900392 0.2262063 0.5444075
v 1.624318 -1.11447 -0.3910867
v 0.6746801 -0.3021031 -0.7042401
v 0.8434895 0.5176739 -0.1322183
v 0.8434895 0.5176739 -0.1322183
v 0.6746801 -0.3021031 -0.7042401
v 0.5883703 0.1555474 -1.905458
v 0.8644442 1.496224 -0.9699639
v 0.8644442 1.496224 -0.9699639
v 0.5883703 0.1555474 -1.905458
v 1.451698 -0.1991695 -2.793523
v 1.942301 2.183307 -1.131084
v -0.24656 1.952704 0.1728731
v -0.03203125 2.994504 0.8998176
v -1.633638 1.068507 0.3802159
v -2.496966 1.423224 1.26828
v -1.909712 -0.2721696 -0.5552782
v -2.987569 -0.9592525 -0.3941584
v -0.7987077 -0.7286495 -1.698115
v -1.013236 -1.770449 -2.42506
v 1.942301 2.183307 -1.131084
v 1.451698 -0.1991695 -2.793523
v 2.401336 -1.011537 -2.480369
v 2.999203 1.89184 -0.454458
v 0.5932068 2.880395 2.020476
v 2.999203 1.89184 -0.454458
v 2.978249 0.9132893 0.3832876
v 1.003916 1.724486 2.414189
v 0.7893876 0.6826863 1.687245
v 1.900392 0.2262063 0.5444075
v 0.8434895 0.5176739 -0.1322183
v 0.1641494 0.7967953 0.5665866
v 0.1641494 0.7967953 0.5665866
v 0.8434895 0.5176739 -0.1322183
v 0.8644442 1.496224 -0.9699639
v -0.24656 1.952704 0.1728731
v -0.03203125 2.994504 0.8998176
v 1.942301 2.183307 -1.131084
v 2.999203 1.89184 -0.454458
v 0.5932068 2.880395 2.020476
v -2.410656 0.9655737 2.469498
v 0.5932068 2.880395 2.020476
v 1.003916 1.724486 2.414189
v -1.461018 0.1532062 2.782652
v -0.5976905 -0.2015107 1.894587
v 0.7893876 0.6826863 1.687245
v 0.1641494 0.7967953 0.5665866
v -0.6840001 0.2561399 0.6933694
v -0.6840001 0.2561399 0.6933694
v 0.1641494 0.7967953 0.5665866
v -0.24656 1.952704 0.1728731
v -1.633638 1.068507 0.3802159
v -2.496966 1.423224 1.26828
v -0.03203125 2.994504 0.8998176
v 0.5932068 2.880395 2.020476
v -2.410656 0.9655737 2.469498
v -3.008523 -1.937803 0.4435872
v -2.410656 0.9655737 2.469498
v -1.461018 0.1532062 2.782652
v -1.951621 -2.22927 1.120213
v -0.8737643 -1.542187 0.9590932
v -0.5976905 -0.2015107 1.894587
v -0.6840001 0.2561399 0.6933694
v -0.8528097 -0.563637 0.1213475
v -0.8528097 -0.563637 0.1213475
v -0.6840001 0.2561399 0.6933694
v -1.633638 1.068507 0.3802159
v -1.909712 -0.2721696 -0.5552782
v -2.987569 -0.9592525 -0.3941584
v -2.496966 1.423224 1.26828
v -2.410656 0.9655737 2.469498
v -3.008523 -1.937803 0.4435872
v -0.602527 -2.926358 -2.031346
v -3.008523 -1.937803 0.4435872
v -1.951621 -2.22927 1.120213
v 0.02271111 -3.040467 -0.9106885
v 0.2372398 -1.998667 -0.1837439
v -0.8737643 -1.542187 0.9590932
v -0.8528097 -0.563637 0.1213475
v -0.1734696 -0.8427585 -0.5774574
v -0.1734696 -0.8427585 -0.5774574
v -0.8528097 -0.563637 0.1213475
v -1.909712 -0.2721696 -0.5552782
v -0.7987077 -0.7286495 -1.698115
v -1.013236 -1.770449 -2.42506
v -2.987569 -0.9592525 -0.3941584
v -3.008523 -1.937803 0.4435872
v -0.602527 -2.926358 -2.031346
v 2.401336 -1.011537 -2.480369
v -0.602527 -2.926358 -2.031346
v 0.02271111 -3.040467 -0.9106885
v 2.487646 -1.469187 -1.279151
v 1.624318 -1.11447 -0.3910867
v 0.2372398 -1.998667 -0.1837439
v -0.1734696 -0.8427585 -0.5774574
v 0.6746801 -0.3021031 -0.7042401
v 0.6746801 -0.3021031 -0.7042401
v -0.1734696 -0.8427585 -0.5774574
v -0.7987077 -0.7286495 -1.698115
v 0.5883703 0.1555474 -1.905458
v 1.451698 -0.1991695 -2.793523
v -1.013236 -1.770449 -2.42506
v -0.602527 -2.926358 -2.031346
v 2.401336 -1.011537 -2.480369
vt 0.01520882 0.2532431
vt 0.04705601 0.2533808
vt 0.04424675 0.2422535
vt 0.01811333 0.2421404
vt 0.1098879 0.6890163
vt 0.1244123 0.663527
vt 0.1115844 0.6635492
vt 0.1034111 0.6778926
vt 0.08055181 0.689067
vt 0.08690299 0.6779212
vt 0.06574013 0.6636285
vt 0.07856811 0.6636063
vt 0.08026455 0.6381393
vt 0.08674134 0.649263
vt 0.1096006 0.6380886
vt 0.1032495 0.6492344
vt 0.4531351 0.1569148
vt 0.4372875 0.1568823
vt 0.4403636 0.1688617
vt 0.4500538 0.1688817
vt 0.8594595 0.9408272
vt 0.8595026 0.9498597
vt 0.8705816 0.952687
vt 0.870511 0.937915
vt 0.0466452 0.6679659
vt 0.03233447 0.6761953
vt 0.03228722 0.689067
vt 0.05771839 0.6744429
vt 0.046706 0.6514015
vt 0.05782644 0.6450067
vt 0.03245608 0.6430663
vt 0.03250332 0.6301946
vt 0.01814535 0.6512957
vt 0.007072155 0.6448187
vt 0.01808454 0.6678602
vt 0.006964099 0.6742549
vt 0.7042928 0.427256
vt 0.7042609 0.3989711
vt 0.6923361 0.3958926
vt 0.692375 0.4303616
vt 0.08198999 0.3879403
vt 0.1167425 0.3823439
vt 0.1116977 0.370719
vt 0.08318017 0.3753113
vt 0.859561 0.9152866
vt 0.8595576 0.9300014
vt 0.8705795 0.9271454
vt 0.8705816 0.9181478
vt 0.4993475 0.8610092
vt 0.4894112 0.8610591
vt 0.4863154 0.8733569
vt 0.5025654 0.8732755
vt 0.1386809 0.2533318
vt 0.1647117 0.2533258
vt 0.1675548 0.2422539
vt 0.1358327 0.2422613
vt 0.7495115 0.6143416
vt 0.7495288 0.6461577
vt 0.760531 0.6432977
vt 0.7605168 0.6171897
vt 0.8477424 0.3389453
vt 0.832189 0.3389909
vt 0.835239 0.3507373
vt 0.8447493 0.3507093
vt 0.712265 0.1471292
vt 0.7212084 0.1471393
vt 0.7240493 0.1360894
vt 0.7094231 0.1360729
vt 0.01636407 0.2730579
vt 0.04400319 0.2731322
vt 0.04705601 0.2613851
vt 0.01337392 0.2612944
vt 0.5581271 0.2975985
vt 0.5924468 0.2976688
vt 0.5893707 0.2856894
vt 0.5612084 0.2856315
vt 0.4757547 0.1378169
vt 0.4610488 0.1377534
vt 0.463858 0.1488807
vt 0.4728501 0.1489195
vt 0.783273 0.1593137
vt 0.783284 0.1690462
vt 0.7952089 0.1721246
vt 0.7951909 0.1562082
vt 0.760531 0.802491
vt 0.7604057 0.7762402
vt 0.7493268 0.7734128
vt 0.7494795 0.8054031
vt 0.7605237 0.6859377
vt 0.760531 0.6540715
vt 0.7495092 0.6569275
vt 0.7495032 0.6830766
vt 0.827582 0.2343429
vt 0.8115345 0.2369273
vt 0.8165793 0.2485521
vt 0.8263918 0.246972
vt 0.6657395 0.1379929
vt 0.6567827 0.137995
vt 0.6539395 0.1490669
vt 0.6685877 0.1490636
vt 0.655331 0.3126266
vt 0.6842084 0.3124818
vt 0.6873042 0.300184
vt 0.6521131 0.3003604
vt 0.6521131 0.290339
vt 0.6857957 0.2902402
vt 0.6827457 0.2784938
vt 0.6551062 0.2785749
vt 0.8705816 0.884764
vt 0.8705736 0.8700724
vt 0.8595713 0.8729325
vt 0.8595762 0.8819159
vt 0.1357459 0.1476871
vt 0.1262357 0.1476616
vt 0.1231829 0.1594088
vt 0.1387361 0.1594505
vt 0.4006204 0.2430321
vt 0.3746286 0.2430027
vt 0.3717877 0.2540525
vt 0.4034623 0.2540884
vn 0.9856908 -0.1213067 -0.1170402
vn 0.9856908 -0.1213067 -0.1170402
vn 0.9856908 -0.1213067 -0.1170402
vn 0.9856908 -0.1213067 -0.1170402
vn 0.4642446 -0.5691399 0.6786432
vn 0.4642446 -0.5691399 0.6786432
vn 0.4642446 -0.5691399 0.6786432
vn 0.4642446 -0.5691399 0.6786432
vn 0.4642446 -0.5691399 0.6786432
vn 0.4642446 -0.5691399 0.6786432
vn 0.4642446 -0.5691399 0.6786432
vn 0.4642446 -0.5691399 0.6786432
vn 0.4642446 -0.5691399 0.6786432
vn 0.4642446 -0.5691399 0.6786432
vn 0.4642446 -0.5691399 0.6786432
vn 0.4642446 -0.5691399 0.6786432
vn -0.5704578 -0.3877475 0.7240372
vn -0.5704578 -0.3877475 0.7240372
vn -0.5704578 -0.3877475 0.7240372
vn -0.5704578 -0.3877475 0.7240372
vn -0.9856908 0.1213067 0.1170402
vn -0.9856908 0.1213067 0.1170402
vn -0.9856908 0.1213067 0.1170402
vn -0.9856908 0.1213067 0.1170402
vn -0.4642446 0.5691399 -0.6786432
vn -0.4642446 0.5691399 -0.6786432
vn -0.4642446 0.5691399 -0.6786432
vn -0.4642446 0.5691399 -0.6786432
vn -0.4642446 0.5691399 -0.6786432
vn -0.4642446 0.5691399 -0.6786432
vn -0.4642446 0.5691399 -0.6786432
vn -0.4642446 0.5691399 -0.6786432
vn -0.4642446 0.5691399 -0.6786432
vn -0.4642446 0.5691399 -0.6786432
vn -0.4642446 0.5691399 -0.6786432
vn -0.4642446 0.5691399 -0.6786432
vn 0.5704578 0.3877475 -0.7240372
vn 0.5704578 0.3877475 -0.7240372
vn 0.5704578 0.3877475 -0.7240372
vn 0.5704578 0.3877475 -0.7240372
vn 0.7256362 0.4384513 0.5302948
vn 0.7256362 0.4384513 0.5302948
vn 0.7256362 0.4384513 0.5302948
vn 0.7256362 0.4384513 0.5302948
vn -0.3104031 -0.9475055 0.07670218
vn -0.3104031 -0.9475055 0.07670218
vn -0.3104031 -0.9475055 0.07670218
vn -0.3104031 -0.9475055 0.07670218
vn -0.7256362 -0.4384513 -0.5302948
vn -0.7256362 -0.4384513 -0.5302948
vn -0.7256362 -0.4384513 -0.5302948
vn -0.7256362 -0.4384513 -0.5302948
vn 0.3104031 0.9475055 -0.07670218
vn 0.3104031 0.9475055 -0.07670218
vn 0.3104031 0.9475055 -0.07670218
vn 0.3104031 0.9475055 -0.07670218
vn -0.05243809 0.3052309 0.9508335
vn -0.05243809 0.3052309 0.9508335
vn -0.05243809 0.3052309 0.9508335
vn -0.05243809 0.3052309 0.9508335
vn 0.4676711 -0.8142851 -0.3438365
vn 0.4676711 -0.8142851 -0.3438365
vn 0.4676711 -0.8142851 -0.3438365
vn 0.4676711 -0.8142851 -0.3438365
vn 0.05243809 -0.3052309 -0.9508335
vn 0.05243809 -0.3052309 -0.9508335
vn 0.05243809 -0.3052309 -0.9508335
vn 0.05243809 -0.3052309 -0.9508335
vn -0.4676711 0.8142851 0.3438365
vn -0.4676711 0.8142851 0.3438365
vn -0.4676711 0.8142851 0.3438365
vn -0.4676711 0.8142851 0.3438365
vn -0.5704578 -0.3877475 0.7240372
vn -0.5704578 -0.3877475 0.7240372
vn -0.5704578 -0.3877475 0.7240372
vn -0.5704578 -0.3877475 0.7240372
vn 0.9856908 -0.1213067 -0.1170402
vn 0.9856908 -0.1213067 -0.1170402
vn 0.9856908 -0.1213067 -0.1170402
vn 0.9856908 -0.1213067 -0.1170402
vn 0.5704578 0.3877475 -0.7240372
vn 0.5704578 0.3877475 -0.7240372
vn 0.5704578 0.3877475 -0.7240372
vn 0.5704578 0.3877475 -0.7240372
vn -0.9856908 0.1213067 0.1170402
vn -0.9856908 0.1213067 0.1170402
vn -0.9856908 0.1213067 0.1170402
vn -0.9856908 0.1213067 0.1170402
vn -0.3104031 -0.9475055 0.07670218
vn -0.3104031 -0.9475055 0.07670218
vn -0.3104031 -0.9475055 0.07670218
vn -0.3104031 -0.9475055 0.07670218
vn 0.7256362 0.4384513 0.5302948
vn 0.7256362 0.4384513 0.5302948
vn 0.7256362 0.4384513 0.5302948
vn 0.7256362 0.4384513 0.5302948
vn 0.3104031 0.9475055 -0.07670218
vn 0.3104031 0.9475055 -0.07670218
vn 0.3104031 0.9475055 -0.07670218
vn 0.3104031 0.9475055 -0.07670218
vn -0.7256362 -0.4384513 -0.5302948
vn -0.7256362 -0.4384513 -0.5302948
vn -0.7256362 -0.4384513 -0.5302948
vn -0.7256362 -0.4384513 -0.5302948
vn 0.4676711 -0.8142851 -0.3438365
vn 0.4676711 -0.8142851 -0.3438365
vn 0.4676711 -0.8142851 -0.3438365
vn 0.4676711 -0.8142851 -0.3438365
vn -0.05243809 0.3052309 0.9508335
vn -0.05243809 0.3052309 0.9508335
vn -0.05243809 0.3052309 0.9508335
vn -0.05243809 0.3052309 0.9508335
vn -0.4676711 0.8142851 0.3438365
vn -0.4676711 0.8142851 0.3438365
vn -0.4676711 0.8142851 0.3438365
vn -0.4676711 0.8142851 0.3438365
vn 0.05243809 -0.3052309 -0.9508335
vn 0.05243809 -0.3052309 -0.9508335
vn 0.05243809 -0.3052309 -0.9508335
vn 0.05243809 -0.3052309 -0.9508335
g piece1_0
f 3/3/3 2/2/2 1/1/1
f 4/4/4 3/3/3 1/1/1
f 7/7/7 6/6/6 5/5/5
f 8/8/8 7/7/7 5/5/5
f 8/8/8 5/5/5 9/9/9
f 10/10/10 8/8/8 9/9/9
f 10/10/10 9/9/9 11/11/11
f 12/12/12 10/10/10 11/11/11
f 12/12/12 11/11/11 13/13/13
f 14/14/14 12/12/12 13/13/13
f 14/14/14 13/13/13 15/15/15
f 16/16/16 14/14/14 15/15/15
f 16/16/16 15/15/15 6/6/6
f 7/7/7 16/16/16 6/6/6
f 19/19/19 18/18/18 17/17/17
f 20/20/20 19/19/19 17/17/17
f 23/23/23 22/22/22 21/21/21
f 24/24/24 23/23/23 21/21/21
f 27/27/27 26/26/26 25/25/25
f 28/28/28 27/27/27 25/25/25
f 28/28/28 25/25/25 29/29/29
f 30/30/30 28/28/28 29/29/29
f 30/30/30 29/29/29 31/31/31
f 32/32/32 30/30/30 31/31/31
f 32/32/32 31/31/31 33/33/33
f 34/34/34 32/32/32 33/33/33
f 34/34/34 33/33/33 35/35/35
f 36/36/36 34/34/34 35/35/35
f 36/36/36 35/35/35 26/26/26
f 27/27/27 36/36/36 26/26/26
f 39/39/39 38/38/38 37/37/37
f 40/40/40 39/39/39 37/37/37
f 43/43/43 42/42/42 41/41/41
f 44/44/44 43/43/43 41/41/41
f 47/47/47 46/46/46 45/45/45
f 48/48/48 47/47/47 45/45/45
f 51/51/51 50/50/50 49/49/49
f 52/52/52 51/51/51 49/49/49
f 55/55/55 54/54/54 53/53/53
f 56/56/56 55/55/55 53/53/53
f 59/59/59 58/58/58 57/57/57
f 60/60/60 59/59/59 57/57/57
f 63/63/63 62/62/62 61/61/61
f 64/64/64 63/63/63 61/61/61
f 67/67/67 66/66/66 65/65/65
f 68/68/68 67/67/67 65/65/65
f 71/71/71 70/70/70 69/69/69
f 72/72/72 71/71/71 69/69/69
f 75/75/75 74/74/74 73/73/73
f 76/76/76 75/75/75 73/73/73
f 79/79/79 78/78/78 77/77/77
f 80/80/80 79/79/79 77/77/77
f 83/83/83 82/82/82 81/81/81
f 84/84/84 83/83/83 81/81/81
f 87/87/87 86/86/86 85/85/85
f 88/88/88 87/87/87 85/85/85
f 91/91/91 90/90/90 89/89/89
f 92/92/92 91/91/91 89/89/89
f 95/95/95 94/94/94 93/93/93
f 96/96/96 95/95/95 93/93/93
f 99/99/99 98/98/98 97/97/97
f 100/100/100 99/99/99 97/97/97
f 103/103/103 102/102/102 101/101/101
f 104/104/104 103/103/103 101/101/101
f 107/107/107 106/106/106 105/105/105
f 108/108/108 107/107/107 105/105/105
f 111/111/111 110/110/110 109/109/109
f 112/112/112 111/111/111 109/109/109
f 115/115/115 114/114/114 113/113/113
f 116/116/116 115/115/115 113/113/113
f 119/119/119 118/118/118 117/117/117
f 120/120/120 119/119/119 117/117/117
