g piece6
v -2.655193 0.01841713 0.4947108
v -1.698071 0.02089247 -1.941087
v -1.526146 1.981491 -0.8170787
v 1.054914 -1.948066 -1.212816
v 0.8899507 0.01696937 -2.330099
v -1.698071 0.02089247 -1.941087
v -1.533107 -1.944143 -0.8238035
v 1.391802 -1.952503 1.028475
v 1.054914 -1.948066 -1.212816
v -1.533107 -1.944143 -0.8238035
v -1.196219 -1.94858 1.417488
v 1.563727 0.0080956 2.152483
v 1.391802 -1.952503 1.028475
v -1.196219 -1.94858 1.417488
v -1.024295 0.0120187 2.541496
v 1.398763 1.973131 1.0352
v 1.563727 0.0080956 2.152483
v -1.024295 0.0120187 2.541496
v -1.189258 1.977054 1.424213
v 1.061875 1.977568 -1.206091
v 1.398763 1.973131 1.0352
v -1.189258 1.977054 1.424213
v -1.526146 1.981491 -0.8170787
v 0.8899507 0.01696937 -2.330099
v 1.061875 1.977568 -1.206091
v -1.526146 1.981491 -0.8170787
v -1.698071 0.02089247 -1.941087
v 1.054914 -1.948066 -1.212816
v 2.520849 0.01057093 -0.2833144
v 0.8899507 0.01696937 -2.330099
v -2.655193 0.01841713 0.4947108
v -1.533107 -1.944143 -0.8238035
v -1.698071 0.02089247 -1.941087
v 1.391802 -1.952503 1.028475
v 2.520849 0.01057093 -0.2833144
v 1.054914 -1.948066 -1.212816
v -2.655193 0.01841713 0.4947108
v -1.196219 -1.94858 1.417488
v -1.533107 -1.944143 -0.8238035
v 1.563727 0.0080956 2.152483
v 2.520849 0.01057093 -0.2833144
v 1.391802 -1.952503 1.028475
v -2.655193 0.01841713 0.4947108
v -1.024295 0.0120187 2.541496
v -1.196219 -1.94858 1.417488
v 1.398763 1.973131 1.0352
v 2.520849 0.01057093 -0.2833144
v 1.563727 0.0080956 2.152483
v -2.655193 0.01841713 0.4947108
v -1.189258 1.977054 1.424213
v -1.024295 0.0120187 2.541496
v 1.061875 1.977568 -1.206091
v 2.520849 0.01057093 -0.2833144
v 1.398763 1.973131 1.0352
v -2.655193 0.01841713 0.4947108
v -1.526146 1.981491 -0.8170787
v -1.189258 1.977054 1.424213
v 0.8899507 0.01696937 -2.330099
v 2.520849 0.01057093 -0.2833144
v 1.061875 1.977568 -1.206091
vt 0.6873042 0.3205403
vt 0.6632928 0.320564
vt 0.6723155 0.3393843
vt 0.6649345 0.8221437
vt 0.6850697 0.8222021
vt 0.6851369 0.7988461
vt 0.6650016 0.7987877
vt 0.6650788 0.5709555
vt 0.6650016 0.5910112
vt 0.6880562 0.5910848
vt 0.6881334 0.571029
vt 0.6650062 0.666732
vt 0.6851369 0.6667279
vt 0.6851323 0.6433774
vt 0.6650016 0.6433814
vt 0.6650016 0.7606307
vt 0.6851369 0.7605723
vt 0.6850697 0.7372164
vt 0.6649345 0.7372747
vt 0.5201226 0.3488808
vt 0.5200524 0.3288246
vt 0.4969983 0.3289061
vt 0.4970686 0.3489623
vt 0.6650016 0.6979963
vt 0.6851323 0.6980004
vt 0.6851369 0.6746498
vt 0.6650062 0.6746457
vt 0.1685002 0.3074715
vt 0.1534539 0.3262516
vt 0.1774516 0.3263129
vt 0.6243404 0.3243721
vt 0.6093345 0.3055825
vt 0.6003605 0.3243958
vt 0.05811151 0.2810459
vt 0.04347897 0.2991771
vt 0.06671391 0.2993195
vt 0.09785731 0.2811215
vt 0.0746276 0.2810459
vt 0.08327997 0.2992903
vt 0.01155386 0.3271056
vt 0.03556527 0.3271294
vt 0.02057655 0.3082854
vt 0.1215469 0.3263248
vt 0.1455402 0.3262634
vt 0.1364951 0.3074715
vt 0.678036 0.9885029
vt 0.6930418 0.9697133
vt 0.669062 0.9696895
vt 0.5684491 0.3056439
vt 0.5834953 0.3244239
vt 0.5924468 0.3055825
vt 0.6961328 0.5630418
vt 0.7170452 0.5528816
vt 0.6960796 0.5428328
vt 0.6960471 0.5809488
vt 0.7169366 0.5911692
vt 0.7170452 0.5709555
vt 0.1136332 0.3075329
vt 0.08963995 0.3074715
vt 0.1045881 0.3263248
vn -0.8937184 0.279537 -0.3508938
vn -0.8937184 0.279537 -0.3508938
vn -0.8937184 0.279537 -0.3508938
vn -0.1296125 -0.4983031 -0.8572599
vn -0.1296125 -0.4983031 -0.8572599
vn -0.1296125 -0.4983031 -0.8572599
vn -0.1296125 -0.4983031 -0.8572599
vn -0.001773358 -0.999997 -0.001713052
vn -0.001773358 -0.999997 -0.001713052
vn -0.001773358 -0.999997 -0.001713052
vn -0.001773358 -0.999997 -0.001713052
vn 0.1278391 -0.5016938 0.8555469
vn 0.1278391 -0.5016938 0.8555469
vn 0.1278391 -0.5016938 0.8555469
vn 0.1278391 -0.5016938 0.8555469
vn 0.1296125 0.4983031 0.8572599
vn 0.1296125 0.4983031 0.8572599
vn 0.1296125 0.4983031 0.8572599
vn 0.1296125 0.4983031 0.8572599
vn 0.001773358 0.999997 0.001713052
vn 0.001773358 0.999997 0.001713052
vn 0.001773358 0.999997 0.001713052
vn 0.001773358 0.999997 0.001713052
vn -0.1278391 0.5016938 -0.8555469
vn -0.1278391 0.5016938 -0.8555469
vn -0.1278391 0.5016938 -0.8555469
vn -0.1278391 0.5016938 -0.8555469
vn 0.75091 -0.2776561 -0.5992005
vn 0.75091 -0.2776561 -0.5992005
vn 0.75091 -0.2776561 -0.5992005
vn -0.8947021 -0.2751616 -0.351844
vn -0.8947021 -0.2751616 -0.351844
vn -0.8947021 -0.2751616 -0.351844
vn 0.8218225 -0.5559458 -0.1246285
vn 0.8218225 -0.5559458 -0.1246285
vn 0.8218225 -0.5559458 -0.1246285
vn -0.8237897 -0.5534512 0.122728
vn -0.8237897 -0.5534512 0.122728
vn -0.8237897 -0.5534512 0.122728
vn 0.8937184 -0.279537 0.3508938
vn 0.8937184 -0.279537 0.3508938
vn 0.8937184 -0.279537 0.3508938
vn -0.7518937 -0.2770424 0.5982503
vn -0.7518937 -0.2770424 0.5982503
vn -0.7518937 -0.2770424 0.5982503
vn 0.8947021 0.2751616 0.351844
vn 0.8947021 0.2751616 0.351844
vn 0.8947021 0.2751616 0.351844
vn -0.75091 0.2776561 0.5992005
vn -0.75091 0.2776561 0.5992005
vn -0.75091 0.2776561 0.5992005
vn 0.8237897 0.5534512 -0.122728
vn 0.8237897 0.5534512 -0.122728
vn 0.8237897 0.5534512 -0.122728
vn -0.8218225 0.5559458 0.1246285
vn -0.8218225 0.5559458 0.1246285
vn -0.8218225 0.5559458 0.1246285
vn 0.7518937 0.2770424 -0.5982503
vn 0.7518937 0.2770424 -0.5982503
vn 0.7518937 0.2770424 -0.5982503
g piece6_0
f 3/3/3 2/2/2 1/1/1
f 6/6/6 5/5/5 4/4/4
f 7/7/7 6/6/6 4/4/4
f 10/10/10 9/9/9 8/8/8
f 11/11/11 10/10/10 8/8/8
f 14/14/14 13/13/13 12/12/12
f 15/15/15 14/14/14 12/12/12
f 18/18/18 17/17/17 16/16/16
f 19/19/19 18/18/18 16/16/16
f 22/22/22 21/21/21 20/20/20
f 23/23/23 22/22/22 20/20/20
f 26/26/26 25/25/25 24/24/24
f 27/27/27 26/26/26 24/24/24
f 30/30/30 29/29/29 28/28/28
f 33/33/33 32/32/32 31/31/31
f 36/36/36 35/35/35 34/34/34
f 39/39/39 38/38/38 37/37/37
f 42/42/42 41/41/41 40/40/40
f 45/45/45 44/44/44 43/43/43
f 48/48/48 47/47/47 46/46/46
f 51/51/51 50/50/50 49/49/49
f 54/54/54 53/53/53 52/52/52
f 57/57/57 56/56/56 55/55/55
f 60/60/60 59/59/59 58/58/58
