g waterfall
v -7.715166 2.663167 -1.515915
v -8.583728 2.663167 -0.01152113
v -8.274621 2.474916 0.1444328
v -7.409029 2.481502 -1.335528
v -7.409029 2.481502 -1.335528
v -8.274621 2.474916 0.1444328
v -8.082931 2.211546 0.2489029
v -7.226705 2.211544 -1.228703
v -8.079828 2.212931 0.250706
v -7.223603 2.212929 -1.2269
v -7.2236 1.265788 -1.226904
v -8.079825 1.265788 0.2507019
v -7.406878 2.485434 -1.334272
v -8.27247 2.478848 0.1456892
v -8.582004 2.671949 -0.01052235
v -7.713441 2.671949 -1.514916
v -7.223603 2.212929 -1.2269
v -8.079828 2.212931 0.250706
v -8.27247 2.478848 0.1456892
v -7.406878 2.485434 -1.334272
v -4.324693 1.180153 1.882078
v -4.706054 1.173566 2.530763
v -4.913425 1.297014 2.336367
v -4.539165 1.297014 1.744634
v -4.155434 0.897162 1.990547
v -4.55116 0.8971645 2.675965
v -4.706054 1.173566 2.530763
v -4.324693 1.180153 1.882078
v -4.55116 0.8971645 2.675965
v -4.155434 0.897162 1.990547
v -4.155434 -0.09999999 1.990547
v -4.55116 -0.09999999 2.675965
v -7.226705 2.211544 -1.228703
v -8.082931 2.211546 0.2489029
v -8.082931 1.265788 0.2489029
v -7.226705 1.265788 -1.228703
v 8.274621 2.474916 0.1444328
v 8.583728 2.663167 -0.01152113
v 7.715166 2.663167 -1.515915
v 7.409029 2.481502 -1.335528
v 8.082931 2.211546 0.2489029
v 8.274621 2.474916 0.1444328
v 7.409029 2.481502 -1.335528
v 7.226705 2.211544 -1.228703
v 7.2236 1.265788 -1.226904
v 7.223603 2.212929 -1.2269
v 8.079828 2.212931 0.250706
v 8.079825 1.265788 0.2507019
v 8.582004 2.671949 -0.01052235
v 8.27247 2.478848 0.1456892
v 7.406878 2.485434 -1.334272
v 7.713441 2.671949 -1.514916
v 8.27247 2.478848 0.1456892
v 8.079828 2.212931 0.250706
v 7.223603 2.212929 -1.2269
v 7.406878 2.485434 -1.334272
v 4.913425 1.297014 2.336367
v 4.706054 1.173566 2.530763
v 4.324693 1.180153 1.882078
v 4.539165 1.297014 1.744634
v 4.706054 1.173566 2.530763
v 4.55116 0.8971645 2.675965
v 4.155434 0.897162 1.990547
v 4.324693 1.180153 1.882078
v 4.155434 -0.09999999 1.990547
v 4.155434 0.897162 1.990547
v 4.55116 0.8971645 2.675965
v 4.55116 -0.09999999 2.675965
v 8.082931 1.265788 0.2489029
v 8.082931 2.211546 0.2489029
v 7.226705 2.211544 -1.228703
v 7.226705 1.265788 -1.228703
vt 0.8358285 0.4076858
vt 0.8401406 0.3991942
vt 0.8381681 0.3983124
vt 0.833886 0.4066805
vt 0.727433 0.1501508
vt 0.7308558 0.1408821
vt 0.7289956 0.1402295
vt 0.7255827 0.1494604
vt 0.3545719 0.9608762
vt 0.459392 0.960876
vt 0.4593923 0.8936867
vt 0.3545722 0.8936867
vt 0.4670089 0.9802073
vt 0.3620217 0.9797401
vt 0.3731033 0.9934385
vt 0.4798236 0.9934385
vt 0.459392 0.960876
vt 0.3545719 0.9608762
vt 0.3620217 0.9797401
vt 0.4670089 0.9802073
vt 0.5387809 0.8722736
vt 0.4927638 0.8718064
vt 0.506554 0.8805636
vt 0.5485311 0.8805636
vt 0.5310862 0.8521985
vt 0.4824633 0.8521986
vt 0.4927638 0.8718064
vt 0.5387809 0.8722736
vt 0.4824633 0.8521986
vt 0.5310862 0.8521985
vt 0.5310862 0.7814606
vt 0.4824633 0.7814606
vt 0.4567992 0.1373352
vt 0.4658778 0.1373352
vt 0.4658778 0.1323075
vt 0.4567992 0.1323075
vt 0.8381681 0.3983124
vt 0.8401406 0.3991942
vt 0.8358285 0.4076858
vt 0.833886 0.4066805
vt 0.7289956 0.1402295
vt 0.7308558 0.1408821
vt 0.727433 0.1501508
vt 0.7255827 0.1494604
vt 0.4593923 0.8936867
vt 0.459392 0.960876
vt 0.3545719 0.9608762
vt 0.3545722 0.8936867
vt 0.3731033 0.9934385
vt 0.3620217 0.9797401
vt 0.4670089 0.9802073
vt 0.4798236 0.9934385
vt 0.3620217 0.9797401
vt 0.3545719 0.9608762
vt 0.459392 0.960876
vt 0.4670089 0.9802073
vt 0.506554 0.8805636
vt 0.4927638 0.8718064
vt 0.5387809 0.8722736
vt 0.5485311 0.8805636
vt 0.4927638 0.8718064
vt 0.4824633 0.8521986
vt 0.5310862 0.8521985
vt 0.5387809 0.8722736
vt 0.5310862 0.7814606
vt 0.5310862 0.8521985
vt 0.4824633 0.8521986
vt 0.4824633 0.7814606
vt 0.4658778 0.1323075
vt 0.4658778 0.1373352
vt 0.4567992 0.1373352
vt 0.4567992 0.1323075
vn -0.4027328 -0.8843774 -0.2359723
vn -0.4027328 -0.8843774 -0.2359723
vn -0.4027328 -0.8843774 -0.2359723
vn -0.4027328 -0.8843774 -0.2359723
vn -0.6724632 -0.6272429 -0.3928865
vn -0.6724632 -0.6272429 -0.3928865
vn -0.6724632 -0.6272429 -0.3928865
vn -0.6724632 -0.6272429 -0.3928865
vn 0.8652308 0 0.5013738
vn 0.8652308 0 0.5013738
vn 0.8652308 0 0.5013738
vn 0.8652308 0 0.5013738
vn 0.4104893 0.879587 0.2404689
vn 0.4104893 0.879587 0.2404689
vn 0.4104893 0.879587 0.2404689
vn 0.4104893 0.879587 0.2404689
vn 0.6736311 0.6255633 0.3935627
vn 0.6736311 0.6255633 0.3935627
vn 0.6736311 0.6255633 0.3935627
vn 0.6736311 0.6255633 0.3935627
vn 0.3485662 0.9117764 0.217176
vn 0.3485662 0.9117764 0.217176
vn 0.3485662 0.9117764 0.217176
vn 0.3485662 0.9117764 0.217176
vn 0.6968952 0.5892292 0.4088351
vn 0.6968952 0.5892292 0.4088351
vn 0.6968952 0.5892292 0.4088351
vn 0.6968952 0.5892292 0.4088351
vn 0.8660254 0 0.5
vn 0.8660254 0 0.5
vn 0.8660254 0 0.5
vn 0.8660254 0 0.5
vn -0.8652308 0 -0.5013738
vn -0.8652308 0 -0.5013738
vn -0.8652308 0 -0.5013738
vn -0.8652308 0 -0.5013738
vn 0.4027328 -0.8843774 -0.2359723
vn 0.4027328 -0.8843774 -0.2359723
vn 0.4027328 -0.8843774 -0.2359723
vn 0.4027328 -0.8843774 -0.2359723
vn 0.6724632 -0.6272429 -0.3928865
vn 0.6724632 -0.6272429 -0.3928865
vn 0.6724632 -0.6272429 -0.3928865
vn 0.6724632 -0.6272429 -0.3928865
vn -0.8652308 0 0.5013738
vn -0.8652308 0 0.5013738
vn -0.8652308 0 0.5013738
vn -0.8652308 0 0.5013738
vn -0.4104893 0.879587 0.2404689
vn -0.4104893 0.879587 0.2404689
vn -0.4104893 0.879587 0.2404689
vn -0.4104893 0.879587 0.2404689
vn -0.6736311 0.6255633 0.3935627
vn -0.6736311 0.6255633 0.3935627
vn -0.6736311 0.6255633 0.3935627
vn -0.6736311 0.6255633 0.3935627
vn -0.3485662 0.9117764 0.217176
vn -0.3485662 0.9117764 0.217176
vn -0.3485662 0.9117764 0.217176
vn -0.3485662 0.9117764 0.217176
vn -0.6968952 0.5892292 0.4088351
vn -0.6968952 0.5892292 0.4088351
vn -0.6968952 0.5892292 0.4088351
vn -0.6968952 0.5892292 0.4088351
vn -0.8660254 0 0.5
vn -0.8660254 0 0.5
vn -0.8660254 0 0.5
vn -0.8660254 0 0.5
vn 0.8652308 0 -0.5013738
vn 0.8652308 0 -0.5013738
vn 0.8652308 0 -0.5013738
vn 0.8652308 0 -0.5013738
g waterfall_0
f 3/3/3 2/2/2 1/1/1
f 4/4/4 3/3/3 1/1/1
f 7/7/7 6/6/6 5/5/5
f 8/8/8 7/7/7 5/5/5
f 11/11/11 10/10/10 9/9/9
f 12/12/12 11/11/11 9/9/9
f 15/15/15 14/14/14 13/13/13
f 16/16/16 15/15/15 13/13/13
f 19/19/19 18/18/18 17/17/17
f 20/20/20 19/19/19 17/17/17
f 23/23/23 22/22/22 21/21/21
f 24/24/24 23/23/23 21/21/21
f 27/27/27 26/26/26 25/25/25
f 28/28/28 27/27/27 25/25/25
f 31/31/31 30/30/30 29/29/29
f 32/32/32 31/31/31 29/29/29
f 35/35/35 34/34/34 33/33/33
f 36/36/36 35/35/35 33/33/33
f 39/39/39 38/38/38 37/37/37
f 40/40/40 39/39/39 37/37/37
f 43/43/43 42/42/42 41/41/41
f 44/44/44 43/43/43 41/41/41
f 47/47/47 46/46/46 45/45/45
f 48/48/48 47/47/47 45/45/45
f 51/51/51 50/50/50 49/49/49
f 52/52/52 51/51/51 49/49/49
f 55/55/55 54/54/54 53/53/53
f 56/56/56 55/55/55 53/53/53
f 59/59/59 58/58/58 57/57/57
f 60/60/60 59/59/59 57/57/57
f 63/63/63 62/62/62 61/61/61
f 64/64/64 63/63/63 61/61/61
f 67/67/67 66/66/66 65/65/65
f 68/68/68 67/67/67 65/65/65
f 71/71/71 70/70/70 69/69/69
f 72/72/72 71/71/71 69/69/69
