g waterfall_right
v 3.115553 0.1499991 -2.563783
v 3.115553 0.1499991 -1.518588
v 2.88683 0.1499991 -1.518588
v 2.710736 0.1499991 -2.563783
v 3.115553 0.1499991 0.7587094
v 3.115553 0.1499991 1.624188
v 2.62296 0.1499991 1.624188
v 2.951375 0.1499991 0.7587094
v 3.115553 0.1499991 1.624188
v 3.115553 0.1499991 2.25191
v 2.62296 0.1499991 2.25191
v 2.62296 0.1499991 1.624188
v 3.115553 0.1499991 -3.927833
v 3.115553 0.1499991 -4.203593
v 3.115553 0.8819253 -4.203593
v 3.115553 0.8819253 -3.927833
v 3.115553 0.1499991 -1.518588
v 3.115553 0.1499991 -2.563783
v 3.115553 0.8819253 -2.563783
v 3.115553 0.8819253 -1.518588
v 3.115553 1.621925 -2.563783
v 3.115553 1.621925 -1.518588
v 3.115553 2.361925 -2.563783
v 3.115553 2.361925 -1.518588
v 3.115553 3.101925 -2.658988
v 3.115553 3.101925 -1.518588
v 3.115553 3.841925 -2.658988
v 3.115553 3.841925 -1.518588
v 3.115553 4.581925 -2.658988
v 3.115553 4.581925 -1.401499
v 3.115553 5.726347 -2.658988
v 3.115553 5.726347 -1.401499
v 3.115553 0.1499991 1.624188
v 3.115553 0.1499991 0.7587094
v 3.115553 0.8819253 0.7587094
v 3.115553 0.8819253 1.624188
v 3.115553 0.1499991 2.25191
v 3.115553 0.8819253 2.25191
v 3.115553 1.621925 0.7587094
v 3.115553 1.621925 1.624188
v 3.115553 1.621925 2.353555
v 3.115553 2.361925 0.7587094
v 3.115553 2.361925 1.624188
v 3.115553 2.361925 2.353555
v 3.115553 3.101925 0.7587094
v 3.115553 3.101925 1.624188
v 3.115553 3.101925 2.481374
v 3.115553 3.841925 0.7587094
v 3.115553 3.841925 1.624188
v 3.115553 3.841925 2.481374
v 3.115553 4.581925 0.6576993
v 3.115553 4.581925 1.624188
v 3.115553 4.581925 2.481374
v 3.115553 5.726347 0.6576993
v 3.115553 5.726347 1.624188
v 3.115553 5.726347 2.481374
v 3.115553 0.1499991 4.239075
v 3.115553 0.1499991 3.481374
v 3.115553 0.8819253 3.71084
v 3.115553 0.8819253 4.108487
v 3.115553 1.621925 3.609194
v 3.115553 1.621925 4.239075
v 3.115553 2.361925 3.609194
v 3.115553 2.361925 4.239075
v 3.115553 3.101925 3.481374
v 3.115553 3.101925 4.239075
v 3.115553 3.841925 3.481374
v 3.115553 3.841925 4.239075
v 3.115553 4.581925 3.481374
v 3.115553 4.581925 4.239075
v 3.115553 5.726347 3.481374
v 3.115553 5.726347 4.239075
v 3.115553 0.8819253 -3.927833
v 3.115553 0.8819253 -4.203593
v 3.115553 1.621925 -4.304277
v 3.115553 1.621925 -3.927833
v 3.115553 2.361925 -4.304277
v 3.115553 2.361925 -3.927833
v 3.115553 3.101925 -4.304277
v 3.115553 3.101925 -3.832628
v 3.115553 3.841925 -4.304277
v 3.115553 3.841925 -3.832628
v 3.115553 4.581925 -4.304277
v 3.115553 4.581925 -3.832628
v 3.115553 5.726347 -4.304277
v 3.115553 5.726347 -3.832628
v 3.115553 5.726347 -3.832628
v 3.115553 5.726347 -4.304277
v 3.216693 6.171709 -4.304277
v 3.216693 6.171709 -3.832628
v 3.115553 5.726347 -1.401499
v 3.115553 5.726347 -2.658988
v 3.216693 6.171709 -2.658988
v 3.216693 6.171709 -1.401499
v 3.115553 5.726347 1.624188
v 3.115553 5.726347 0.6576993
v 3.216693 6.171709 0.6576993
v 3.216693 6.171709 1.624188
v 3.115553 5.726347 2.481374
v 3.216693 6.171709 2.481374
v 3.115553 5.726347 4.239075
v 3.115553 5.726347 3.481374
v 3.216693 6.171709 3.481374
v 3.216693 6.171709 4.239075
v 3.216693 6.171709 -2.658988
v 3.516157 6.467101 -2.658988
v 3.516157 6.467101 -1.401499
v 3.216693 6.171709 -1.401499
v 3.216693 6.171709 0.6576993
v 3.516157 6.467101 0.6576993
v 3.516157 6.467101 1.624188
v 3.216693 6.171709 1.624188
v 3.516157 6.467101 2.481374
v 3.216693 6.171709 2.481374
v 3.216693 6.171709 -4.304277
v 3.516157 6.467101 -4.304277
v 3.516157 6.467101 -3.832628
v 3.216693 6.171709 -3.832628
v 3.216693 6.171709 3.481374
v 3.516157 6.467101 3.481374
v 3.516157 6.467101 4.239075
v 3.216693 6.171709 4.239075
v 4.118808 6.596793 -4.304277
v 15 6.596793 -4.304277
v 15 6.596793 -3.832628
v 4.118808 6.596793 -3.832628
v 3.76514 6.596793 -4.304277
v 3.76514 6.596793 -3.832628
v 3.516157 6.467101 -4.304277
v 3.76514 6.596793 -4.304277
v 3.76514 6.596793 -3.832628
v 3.516157 6.467101 -3.832628
v 4.118808 6.596793 -2.658988
v 15 6.596793 -2.658988
v 15 6.596793 -1.401499
v 4.118808 6.596793 -1.401499
v 3.76514 6.596793 -2.658988
v 3.76514 6.596793 -1.401499
v 3.516157 6.467101 -2.658988
v 3.76514 6.596793 -2.658988
v 3.76514 6.596793 -1.401499
v 3.516157 6.467101 -1.401499
v 4.118808 6.596793 0.6576993
v 15 6.596793 0.6576993
v 15 6.596793 1.624188
v 4.118808 6.596793 1.624188
v 3.76514 6.596793 0.6576993
v 3.76514 6.596793 1.624188
v 15 6.596793 2.481374
v 4.118808 6.596793 2.481374
v 3.76514 6.596793 2.481374
v 3.516157 6.467101 0.6576993
v 3.76514 6.596793 0.6576993
v 3.76514 6.596793 1.624188
v 3.516157 6.467101 1.624188
v 3.76514 6.596793 2.481374
v 3.516157 6.467101 2.481374
v 4.118808 6.596793 3.481374
v 15 6.596793 3.481374
v 15 6.596793 4.239075
v 4.118808 6.596793 4.239075
v 3.76514 6.596793 3.481374
v 3.76514 6.596793 4.239075
v 3.516157 6.467101 3.481374
v 3.76514 6.596793 3.481374
v 3.76514 6.596793 4.239075
v 3.516157 6.467101 4.239075
v 3.115553 0.1499991 3.481374
v 3.115553 0.1499991 4.239075
v 2.673527 0.1499991 4.239075
v 2.673527 0.1499991 3.481374
v 3.115553 0.1499991 -4.203593
v 3.115553 0.1499991 -3.927833
v 2.94814 0.1499991 -3.927833
v 2.94814 0.1499991 -4.203593
vt 0.08582477 0.09150326
vt 0.09138113 0.09150326
vt 0.09138113 0.0927192
vt 0.08582477 0.09365535
vt 0.7533315 0.5332447
vt 0.7579325 0.5332447
vt 0.7579325 0.5358633
vt 0.7533315 0.5341174
vt 0.7733868 0.07979202
vt 0.7767239 0.07979202
vt 0.7767239 0.08241069
vt 0.7733868 0.08241069
vt 0.2737007 0.06995761
vt 0.2751666 0.06995761
vt 0.2751666 0.07384861
vt 0.2737007 0.07384861
vt 0.4199494 0.3352571
vt 0.4199494 0.3762838
vt 0.393442 0.3762838
vt 0.393442 0.3352571
vt 0.3666422 0.3762838
vt 0.3666422 0.3352571
vt 0.3398423 0.3762838
vt 0.3398423 0.3352571
vt 0.3130425 0.3800209
vt 0.3130425 0.3352571
vt 0.2862427 0.3800209
vt 0.2862427 0.3352571
vt 0.2594429 0.3800209
vt 0.2594429 0.3306611
vt 0.2179965 0.3800209
vt 0.2179965 0.3306611
vt 0.4199494 0.4267907
vt 0.4199494 0.460763
vt 0.393442 0.460763
vt 0.393442 0.4267907
vt 0.4199494 0.402151
vt 0.393442 0.402151
vt 0.3666422 0.460763
vt 0.3666422 0.4267907
vt 0.3666422 0.3981612
vt 0.3398423 0.460763
vt 0.3398423 0.4267907
vt 0.3398423 0.3981612
vt 0.3130425 0.460763
vt 0.3130425 0.4267907
vt 0.3130425 0.3931439
vt 0.2862427 0.460763
vt 0.2862427 0.4267907
vt 0.2862427 0.3931439
vt 0.2594429 0.4647279
vt 0.2594429 0.4267907
vt 0.2594429 0.3931439
vt 0.2179965 0.4647279
vt 0.2179965 0.4267907
vt 0.2179965 0.3931439
vt 0.4199494 0.2877963
vt 0.4199494 0.317538
vt 0.393442 0.3085308
vt 0.393442 0.2929223
vt 0.3666422 0.3125207
vt 0.3666422 0.2877963
vt 0.3398423 0.3125207
vt 0.3398423 0.2877963
vt 0.3130425 0.317538
vt 0.3130425 0.2877963
vt 0.2862427 0.317538
vt 0.2862427 0.2877963
vt 0.2594429 0.317538
vt 0.2594429 0.2877963
vt 0.2179965 0.317538
vt 0.2179965 0.2877963
vt 0.4078366 0.2598969
vt 0.4078366 0.2707212
vt 0.3815419 0.2746732
vt 0.3815419 0.2598969
vt 0.3552472 0.2746732
vt 0.3552472 0.2598969
vt 0.3289526 0.2746732
vt 0.3289526 0.2561598
vt 0.3026579 0.2746732
vt 0.3026579 0.2561598
vt 0.2763632 0.2746732
vt 0.2763632 0.2561598
vt 0.2356981 0.2746732
vt 0.2356981 0.2561598
vt 0.2356981 0.2561598
vt 0.2356981 0.2746732
vt 0.2181861 0.2746732
vt 0.2181861 0.2561598
vt 0.2179965 0.3306611
vt 0.2179965 0.3800209
vt 0.2003362 0.3800209
vt 0.2003362 0.3306611
vt 0.2179965 0.4267907
vt 0.2179965 0.4647279
vt 0.2003362 0.4647279
vt 0.2003362 0.4267907
vt 0.2179965 0.3931439
vt 0.2003362 0.3931439
vt 0.2179965 0.2877963
vt 0.2179965 0.317538
vt 0.2003362 0.317538
vt 0.2003362 0.2877963
vt 0.2003362 0.3800209
vt 0.1851049 0.3800209
vt 0.1851049 0.3306611
vt 0.2003362 0.3306611
vt 0.2003362 0.4647279
vt 0.1851049 0.4647279
vt 0.1851049 0.4267907
vt 0.2003362 0.4267907
vt 0.1851049 0.3931439
vt 0.2003362 0.3931439
vt 0.2181861 0.2746732
vt 0.2026955 0.2746732
vt 0.2026955 0.2561598
vt 0.2181861 0.2561598
vt 0.2003362 0.317538
vt 0.1851049 0.317538
vt 0.1851049 0.2877963
vt 0.2003362 0.2877963
vt 0.1880362 0.2746732
vt 0.006561528 0.2746732
vt 0.006561528 0.2561598
vt 0.1880362 0.2561598
vt 0.1939345 0.2746732
vt 0.1939345 0.2561598
vt 0.2026955 0.2746732
vt 0.1939345 0.2746732
vt 0.1939345 0.2561598
vt 0.2026955 0.2561598
vt 0.1712848 0.3800209
vt 0.006561528 0.3800209
vt 0.006561528 0.3306611
vt 0.1712848 0.3306611
vt 0.1766388 0.3800209
vt 0.1766388 0.3306611
vt 0.1851049 0.3800209
vt 0.1766388 0.3800209
vt 0.1766388 0.3306611
vt 0.1851049 0.3306611
vt 0.1712848 0.4647279
vt 0.006561528 0.4647279
vt 0.006561528 0.4267907
vt 0.1712848 0.4267907
vt 0.1766388 0.4647279
vt 0.1766388 0.4267907
vt 0.006561528 0.3931439
vt 0.1712848 0.3931439
vt 0.1766388 0.3931439
vt 0.1851049 0.4647279
vt 0.1766388 0.4647279
vt 0.1766388 0.4267907
vt 0.1851049 0.4267907
vt 0.1766388 0.3931439
vt 0.1851049 0.3931439
vt 0.1712848 0.317538
vt 0.006561528 0.317538
vt 0.006561528 0.2877963
vt 0.1712848 0.2877963
vt 0.1766388 0.317538
vt 0.1766388 0.2877963
vt 0.1851049 0.317538
vt 0.1766388 0.317538
vt 0.1766388 0.2877963
vt 0.1851049 0.2877963
vt 0.4021094 0.08371413
vt 0.4061374 0.08371413
vt 0.4061374 0.08606398
vt 0.4021094 0.08606398
vt 0.02618695 0.03406334
vt 0.0276529 0.03406334
vt 0.0276529 0.03495324
vt 0.02618695 0.03495324
vn 0 1 0
vn 0 1 0
vn 0 1 0
vn 0 1 0
vn 0 1 0
vn 0 1 0
vn 0 1 0
vn 0 1 0
vn 0 1 0
vn 0 1 0
vn 0 1 0
vn 0 1 0
vn -1 0 0
vn -1 0 0
vn -1 0 0
vn -1 0 0
vn -1 0 0
vn -1 0 0
vn -1 0 0
vn -1 0 0
vn -1 0 0
vn -1 0 0
vn -1 0 0
vn -1 0 0
vn -1 0 0
vn -1 0 0
vn -1 0 0
vn -1 0 0
vn -1 0 0
vn -1 0 0
vn -1 0 0
vn -1 0 0
vn -1 0 0
vn -1 0 0
vn -1 0 0
vn -1 0 0
vn -1 0 0
vn -1 0 0
vn -1 0 0
vn -1 0 0
vn -1 0 0
vn -1 0 0
vn -1 0 0
vn -1 0 0
vn -1 0 0
vn -1 0 0
vn -1 0 0
vn -1 0 0
vn -1 0 0
vn -1 0 0
vn -1 0 0
vn -1 0 0
vn -1 0 0
vn -1 0 0
vn -1 0 0
vn -1 0 0
vn -1 0 0
vn -1 0 0
vn -1 0 0
vn -1 0 0
vn -1 0 0
vn -1 0 0
vn -1 0 0
vn -1 0 0
vn -1 0 0
vn -1 0 0
vn -1 0 0
vn -1 0 0
vn -1 0 0
vn -1 0 0
vn -1 0 0
vn -1 0 0
vn -1 0 0
vn -1 0 0
vn -1 0 0
vn -1 0 0
vn -1 0 0
vn -1 0 0
vn -1 0 0
vn -1 0 0
vn -1 0 0
vn -1 0 0
vn -1 0 0
vn -1 0 0
vn -1 0 0
vn -1 0 0
vn -0.9751698 0.2214584 0
vn -0.9751698 0.2214584 0
vn -0.9751698 0.2214584 0
vn -0.9751698 0.2214584 0
vn -0.9751698 0.2214584 0
vn -0.9751698 0.2214584 0
vn -0.9751698 0.2214584 0
vn -0.9751698 0.2214584 0
vn -0.9751698 0.2214584 0
vn -0.9751698 0.2214584 0
vn -0.9751698 0.2214584 0
vn -0.9751698 0.2214584 0
vn -0.9751698 0.2214584 0
vn -0.9751698 0.2214584 0
vn -0.9751698 0.2214584 0
vn -0.9751698 0.2214584 0
vn -0.9751698 0.2214584 0
vn -0.9751698 0.2214584 0
vn -0.70225 0.7119305 0
vn -0.70225 0.7119305 0
vn -0.70225 0.7119305 0
vn -0.70225 0.7119305 0
vn -0.70225 0.7119305 0
vn -0.70225 0.7119305 0
vn -0.70225 0.7119305 0
vn -0.70225 0.7119305 0
vn -0.70225 0.7119305 0
vn -0.70225 0.7119305 0
vn -0.70225 0.7119305 0
vn -0.70225 0.7119305 0
vn -0.70225 0.7119305 0
vn -0.70225 0.7119305 0
vn -0.70225 0.7119305 0
vn -0.70225 0.7119305 0
vn -0.70225 0.7119305 0
vn -0.70225 0.7119305 0
vn 0 1 0
vn 0 1 0
vn 0 1 0
vn 0 1 0
vn 0 1 0
vn 0 1 0
vn -0.4619733 0.8868938 0
vn -0.4619733 0.8868938 0
vn -0.4619733 0.8868938 0
vn -0.4619733 0.8868938 0
vn 0 1 0
vn 0 1 0
vn 0 1 0
vn 0 1 0
vn 0 1 0
vn 0 1 0
vn -0.4619733 0.8868938 0
vn -0.4619733 0.8868938 0
vn -0.4619733 0.8868938 0
vn -0.4619733 0.8868938 0
vn 0 1 0
vn 0 1 0
vn 0 1 0
vn 0 1 0
vn 0 1 0
vn 0 1 0
vn 0 1 0
vn 0 1 0
vn 0 1 0
vn -0.4619733 0.8868938 0
vn -0.4619733 0.8868938 0
vn -0.4619733 0.8868938 0
vn -0.4619733 0.8868938 0
vn -0.4619733 0.8868938 0
vn -0.4619733 0.8868938 0
vn 0 1 0
vn 0 1 0
vn 0 1 0
vn 0 1 0
vn 0 1 0
vn 0 1 0
vn -0.4619733 0.8868938 0
vn -0.4619733 0.8868938 0
vn -0.4619733 0.8868938 0
vn -0.4619733 0.8868938 0
vn 0 1 0
vn 0 1 0
vn 0 1 0
vn 0 1 0
vn 0 1 0
vn 0 1 0
vn 0 1 0
vn 0 1 0
g waterfall_right_0
f 3/3/3 2/2/2 1/1/1
f 4/4/4 3/3/3 1/1/1
f 7/7/7 6/6/6 5/5/5
f 8/8/8 7/7/7 5/5/5
f 11/11/11 10/10/10 9/9/9
f 12/12/12 11/11/11 9/9/9
f 15/15/15 14/14/14 13/13/13
f 16/16/16 15/15/15 13/13/13
f 19/19/19 18/18/18 17/17/17
f 20/20/20 19/19/19 17/17/17
f 21/21/21 19/19/19 20/20/20
f 22/22/22 21/21/21 20/20/20
f 23/23/23 21/21/21 22/22/22
f 24/24/24 23/23/23 22/22/22
f 25/25/25 23/23/23 24/24/24
f 26/26/26 25/25/25 24/24/24
f 27/27/27 25/25/25 26/26/26
f 28/28/28 27/27/27 26/26/26
f 29/29/29 27/27/27 28/28/28
f 30/30/30 29/29/29 28/28/28
f 31/31/31 29/29/29 30/30/30
f 32/32/32 31/31/31 30/30/30
f 35/35/35 34/34/34 33/33/33
f 36/36/36 35/35/35 33/33/33
f 36/36/36 33/33/33 37/37/37
f 38/38/38 36/36/36 37/37/37
f 39/39/39 35/35/35 36/36/36
f 40/40/40 39/39/39 36/36/36
f 40/40/40 36/36/36 38/38/38
f 41/41/41 40/40/40 38/38/38
f 42/42/42 39/39/39 40/40/40
f 43/43/43 42/42/42 40/40/40
f 43/43/43 40/40/40 41/41/41
f 44/44/44 43/43/43 41/41/41
f 45/45/45 42/42/42 43/43/43
f 46/46/46 45/45/45 43/43/43
f 46/46/46 43/43/43 44/44/44
f 47/47/47 46/46/46 44/44/44
f 48/48/48 45/45/45 46/46/46
f 49/49/49 48/48/48 46/46/46
f 49/49/49 46/46/46 47/47/47
f 50/50/50 49/49/49 47/47/47
f 51/51/51 48/48/48 49/49/49
f 52/52/52 51/51/51 49/49/49
f 52/52/52 49/49/49 50/50/50
f 53/53/53 52/52/52 50/50/50
f 54/54/54 51/51/51 52/52/52
f 55/55/55 54/54/54 52/52/52
f 55/55/55 52/52/52 53/53/53
f 56/56/56 55/55/55 53/53/53
f 59/59/59 58/58/58 57/57/57
f 60/60/60 59/59/59 57/57/57
f 61/61/61 59/59/59 60/60/60
f 62/62/62 61/61/61 60/60/60
f 63/63/63 61/61/61 62/62/62
f 64/64/64 63/63/63 62/62/62
f 65/65/65 63/63/63 64/64/64
f 66/66/66 65/65/65 64/64/64
f 67/67/67 65/65/65 66/66/66
f 68/68/68 67/67/67 66/66/66
f 69/69/69 67/67/67 68/68/68
f 70/70/70 69/69/69 68/68/68
f 71/71/71 69/69/69 70/70/70
f 72/72/72 71/71/71 70/70/70
f 75/75/75 74/74/74 73/73/73
f 76/76/76 75/75/75 73/73/73
f 77/77/77 75/75/75 76/76/76
f 78/78/78 77/77/77 76/76/76
f 79/79/79 77/77/77 78/78/78
f 80/80/80 79/79/79 78/78/78
f 81/81/81 79/79/79 80/80/80
f 82/82/82 81/81/81 80/80/80
f 83/83/83 81/81/81 82/82/82
f 84/84/84 83/83/83 82/82/82
f 85/85/85 83/83/83 84/84/84
f 86/86/86 85/85/85 84/84/84
f 89/89/89 88/88/88 87/87/87
f 90/90/90 89/89/89 87/87/87
f 93/93/93 92/92/92 91/91/91
f 94/94/94 93/93/93 91/91/91
f 97/97/97 96/96/96 95/95/95
f 98/98/98 97/97/97 95/95/95
f 98/98/98 95/95/95 99/99/99
f 100/100/100 98/98/98 99/99/99
f 103/103/103 102/102/102 101/101/101
f 104/104/104 103/103/103 101/101/101
f 107/107/107 106/106/106 105/105/105
f 108/108/108 107/107/107 105/105/105
f 111/111/111 110/110/110 109/109/109
f 112/112/112 111/111/111 109/109/109
f 113/113/113 111/111/111 112/112/112
f 114/114/114 113/113/113 112/112/112
f 117/117/117 116/116/116 115/115/115
f 118/118/118 117/117/117 115/115/115
f 121/121/121 120/120/120 119/119/119
f 122/122/122 121/121/121 119/119/119
f 125/125/125 124/124/124 123/123/123
f 126/126/126 125/125/125 123/123/123
f 126/126/126 123/123/123 127/127/127
f 128/128/128 126/126/126 127/127/127
f 131/131/131 130/130/130 129/129/129
f 132/132/132 131/131/131 129/129/129
f 135/135/135 134/134/134 133/133/133
f 136/136/136 135/135/135 133/133/133
f 136/136/136 133/133/133 137/137/137
f 138/138/138 136/136/136 137/137/137
f 141/141/141 140/140/140 139/139/139
f 142/142/142 141/141/141 139/139/139
f 145/145/145 144/144/144 143/143/143
f 146/146/146 145/145/145 143/143/143
f 146/146/146 143/143/143 147/147/147
f 148/148/148 146/146/146 147/147/147
f 149/149/149 145/145/145 146/146/146
f 150/150/150 149/149/149 146/146/146
f 150/150/150 146/146/146 148/148/148
f 151/151/151 150/150/150 148/148/148
f 154/154/154 153/153/153 152/152/152
f 155/155/155 154/154/154 152/152/152
f 156/156/156 154/154/154 155/155/155
f 157/157/157 156/156/156 155/155/155
f 160/160/160 159/159/159 158/158/158
f 161/161/161 160/160/160 158/158/158
f 161/161/161 158/158/158 162/162/162
f 163/163/163 161/161/161 162/162/162
f 166/166/166 165/165/165 164/164/164
f 167/167/167 166/166/166 164/164/164
f 170/170/170 169/169/169 168/168/168
f 171/171/171 170/170/170 168/168/168
f 174/174/174 173/173/173 172/172/172
f 175/175/175 174/174/174 172/172/172
